G04 #@! TF.GenerationSoftware,KiCad,Pcbnew,(5.1.10)-1*
G04 #@! TF.CreationDate,2021-08-18T17:13:35+08:00*
G04 #@! TF.ProjectId,dboard,64626f61-7264-42e6-9b69-6361645f7063,rev?*
G04 #@! TF.SameCoordinates,Original*
G04 #@! TF.FileFunction,Copper,L1,Top*
G04 #@! TF.FilePolarity,Positive*
%FSLAX46Y46*%
G04 Gerber Fmt 4.6, Leading zero omitted, Abs format (unit mm)*
G04 Created by KiCad (PCBNEW (5.1.10)-1) date 2021-08-18 17:13:35*
%MOMM*%
%LPD*%
G01*
G04 APERTURE LIST*
G04 #@! TA.AperFunction,ComponentPad*
%ADD10O,0.900000X1.700000*%
G04 #@! TD*
G04 #@! TA.AperFunction,ComponentPad*
%ADD11O,0.900000X2.400000*%
G04 #@! TD*
G04 #@! TA.AperFunction,ComponentPad*
%ADD12C,0.650000*%
G04 #@! TD*
G04 #@! TA.AperFunction,ComponentPad*
%ADD13C,0.800000*%
G04 #@! TD*
G04 #@! TA.AperFunction,ComponentPad*
%ADD14C,6.000000*%
G04 #@! TD*
G04 #@! TA.AperFunction,ViaPad*
%ADD15C,0.800000*%
G04 #@! TD*
G04 #@! TA.AperFunction,Conductor*
%ADD16C,0.400000*%
G04 #@! TD*
G04 #@! TA.AperFunction,Conductor*
%ADD17C,0.200000*%
G04 #@! TD*
G04 #@! TA.AperFunction,Conductor*
%ADD18C,0.100000*%
G04 #@! TD*
G04 APERTURE END LIST*
D10*
X-8293750Y6280000D03*
X356250Y6280000D03*
D11*
X-8293750Y9660000D03*
X356250Y9660000D03*
D12*
X-6948750Y9315000D03*
X-6098750Y9315000D03*
X-5248750Y9315000D03*
X-4398750Y9315000D03*
X-3548750Y9315000D03*
X-2698750Y9315000D03*
X-1848750Y9315000D03*
X-993750Y9315000D03*
X-6943750Y10640000D03*
X-6093750Y10640000D03*
X-5243750Y10640000D03*
X-4393750Y10640000D03*
X-3543750Y10640000D03*
X-1843750Y10640000D03*
X-993750Y10640000D03*
X-2693750Y10640000D03*
D13*
X15404904Y5873654D03*
X17031250Y5200000D03*
X18657596Y5873654D03*
X19331250Y7500000D03*
X18657596Y9126346D03*
X17031250Y9800000D03*
X15404904Y9126346D03*
X14731250Y7500000D03*
D14*
X17031250Y7500000D03*
D13*
X-22595096Y5873654D03*
X-20968750Y5200000D03*
X-19342404Y5873654D03*
X-18668750Y7500000D03*
X-19342404Y9126346D03*
X-20968750Y9800000D03*
X-22595096Y9126346D03*
X-23268750Y7500000D03*
D14*
X-20968750Y7500000D03*
D12*
X-1275000Y-8640000D03*
X-2975000Y-8640000D03*
X-2125000Y-8640000D03*
X-425000Y-8640000D03*
X425000Y-8640000D03*
X1275000Y-8640000D03*
X2125000Y-8640000D03*
X2975000Y-8640000D03*
X-2975000Y-7315000D03*
X-2120000Y-7315000D03*
X-1270000Y-7315000D03*
X-420000Y-7315000D03*
X430000Y-7315000D03*
X1280000Y-7315000D03*
X2130000Y-7315000D03*
X2980000Y-7315000D03*
D11*
X-4325000Y-7660000D03*
X4325000Y-7660000D03*
D10*
X-4325000Y-4280000D03*
X4325000Y-4280000D03*
D14*
X17000000Y-5500000D03*
D13*
X19300000Y-5500000D03*
X18626346Y-7126346D03*
X17000000Y-7800000D03*
X15373654Y-7126346D03*
X14700000Y-5500000D03*
X15373654Y-3873654D03*
X17000000Y-3200000D03*
X18626346Y-3873654D03*
D14*
X-21000000Y-5500000D03*
D13*
X-18700000Y-5500000D03*
X-19373654Y-7126346D03*
X-21000000Y-7800000D03*
X-22626346Y-7126346D03*
X-23300000Y-5500000D03*
X-22626346Y-3873654D03*
X-21000000Y-3200000D03*
X-19373654Y-3873654D03*
D15*
X-10100000Y-3300000D03*
X-12500000Y-3300000D03*
X-15100000Y-7100000D03*
X-15100000Y-3100000D03*
X-16400000Y-5100000D03*
X8531250Y5300000D03*
X11131250Y9100000D03*
X11131250Y5100000D03*
X6131250Y5300000D03*
X12431250Y7100000D03*
X-8382000Y-8382000D03*
X4413250Y10382000D03*
X1307716Y-10122285D03*
X-5276466Y12122285D03*
D16*
X17000000Y-5500000D02*
X17000000Y-1500000D01*
X17000000Y-5500000D02*
X21000000Y-5500000D01*
X17000000Y-5500000D02*
X17000000Y-9500000D01*
X17000000Y-5500000D02*
X12500000Y-5500000D01*
X-20968750Y7500000D02*
X-16468750Y7500000D01*
X-20968750Y7500000D02*
X-20968750Y3500000D01*
X-20968750Y7500000D02*
X-24968750Y7500000D01*
X-20968750Y7500000D02*
X-20968750Y11500000D01*
X-2120000Y-8635000D02*
X-2125000Y-8640000D01*
X-2120000Y-7315000D02*
X-2120000Y-8635000D01*
X2130000Y-8635000D02*
X2125000Y-8640000D01*
X2130000Y-7315000D02*
X2130000Y-8635000D01*
X-8382000Y-8382000D02*
X-6985000Y-9779000D01*
X-2125000Y-9099619D02*
X-2125000Y-8640000D01*
X-2804381Y-9779000D02*
X-2125000Y-9099619D01*
X-6985000Y-9779000D02*
X-2804381Y-9779000D01*
X-6098750Y9315000D02*
X-6098750Y10635000D01*
X-1843750Y11099619D02*
X-1843750Y10640000D01*
X-6098750Y10635000D02*
X-6093750Y10640000D01*
X-1164369Y11779000D02*
X-1843750Y11099619D01*
X3016250Y11779000D02*
X-1164369Y11779000D01*
X-1848750Y10635000D02*
X-1843750Y10640000D01*
X-1848750Y9315000D02*
X-1848750Y10635000D01*
X4413250Y10382000D02*
X3016250Y11779000D01*
D17*
X-252334Y-10122285D02*
X1307716Y-10122285D01*
X-1275000Y-9099619D02*
X-252334Y-10122285D01*
X-1275000Y-8640000D02*
X-1275000Y-9099619D01*
X-3716416Y12122285D02*
X-5276466Y12122285D01*
X-2693750Y11099619D02*
X-3716416Y12122285D01*
X-2693750Y10640000D02*
X-2693750Y11099619D01*
X425000Y-8564998D02*
X425000Y-8640000D01*
X-420000Y-7719998D02*
X425000Y-8564998D01*
X-420000Y-7315000D02*
X-420000Y-7719998D01*
X-4393750Y10564998D02*
X-4393750Y10640000D01*
X-3548750Y9719998D02*
X-4393750Y10564998D01*
X-3548750Y9315000D02*
X-3548750Y9719998D01*
D16*
X1603444Y-651079D02*
X1665709Y-663408D01*
X1727737Y-676593D01*
X1737448Y-677613D01*
X1737458Y-677615D01*
X1737467Y-677615D01*
X1930702Y-696562D01*
X1965610Y-700000D01*
X16970351Y-700000D01*
X17808329Y-771104D01*
X18593539Y-974904D01*
X19333186Y-1308091D01*
X20006124Y-1761139D01*
X20593106Y-2321093D01*
X21077346Y-2971936D01*
X21445006Y-3695070D01*
X21685572Y-4469816D01*
X21792159Y-5274007D01*
X21761725Y-6084665D01*
X21595139Y-6878609D01*
X21297164Y-7633131D01*
X20876319Y-8326660D01*
X20344640Y-8939367D01*
X19717327Y-9453731D01*
X19012315Y-9855048D01*
X18249761Y-10131841D01*
X17438489Y-10278544D01*
X16983502Y-10300000D01*
X2291958Y-10300000D01*
X2307716Y-10220776D01*
X2307716Y-10023794D01*
X2269287Y-9830596D01*
X2193905Y-9648607D01*
X2138040Y-9565000D01*
X2216105Y-9565000D01*
X2394813Y-9529453D01*
X2550000Y-9465173D01*
X2705187Y-9529453D01*
X2883895Y-9565000D01*
X3066105Y-9565000D01*
X3244813Y-9529453D01*
X3413152Y-9459725D01*
X3564653Y-9358495D01*
X3681181Y-9241967D01*
X3824798Y-9338599D01*
X4015570Y-9418341D01*
X4062722Y-9426715D01*
X4225000Y-9304427D01*
X4225000Y-7760000D01*
X4425000Y-7760000D01*
X4425000Y-9304427D01*
X4587278Y-9426715D01*
X4634430Y-9418341D01*
X4825202Y-9338599D01*
X4996752Y-9223172D01*
X5142487Y-9076495D01*
X5256806Y-8904205D01*
X5335316Y-8712923D01*
X5375000Y-8510000D01*
X5375000Y-8021527D01*
X14619895Y-8021527D01*
X14955449Y-8484214D01*
X15576926Y-8825746D01*
X16253091Y-9039470D01*
X16957959Y-9117176D01*
X17664443Y-9055875D01*
X18345392Y-8857923D01*
X18974640Y-8530928D01*
X19044551Y-8484214D01*
X19380105Y-8021527D01*
X19155948Y-7797370D01*
X19155948Y-7797369D01*
X17000000Y-5641421D01*
X14844052Y-7797369D01*
X14844052Y-7797370D01*
X14619895Y-8021527D01*
X5375000Y-8021527D01*
X5375000Y-7760000D01*
X4425000Y-7760000D01*
X4225000Y-7760000D01*
X4205000Y-7760000D01*
X4205000Y-7560000D01*
X4225000Y-7560000D01*
X4225000Y-6015573D01*
X4425000Y-6015573D01*
X4425000Y-7560000D01*
X5375000Y-7560000D01*
X5375000Y-6810000D01*
X5335316Y-6607077D01*
X5256806Y-6415795D01*
X5142487Y-6243505D01*
X4996752Y-6096828D01*
X4825202Y-5981401D01*
X4634430Y-5901659D01*
X4587278Y-5893285D01*
X4425000Y-6015573D01*
X4225000Y-6015573D01*
X4062722Y-5893285D01*
X4015570Y-5901659D01*
X3824798Y-5981401D01*
X3653248Y-6096828D01*
X3507513Y-6243505D01*
X3393194Y-6415795D01*
X3368939Y-6474890D01*
X3249813Y-6425547D01*
X3071105Y-6390000D01*
X2888895Y-6390000D01*
X2710187Y-6425547D01*
X2555000Y-6489827D01*
X2399813Y-6425547D01*
X2221105Y-6390000D01*
X2038895Y-6390000D01*
X1860187Y-6425547D01*
X1705000Y-6489827D01*
X1549813Y-6425547D01*
X1371105Y-6390000D01*
X1188895Y-6390000D01*
X1010187Y-6425547D01*
X855000Y-6489827D01*
X699813Y-6425547D01*
X521105Y-6390000D01*
X338895Y-6390000D01*
X160187Y-6425547D01*
X5000Y-6489827D01*
X-150187Y-6425547D01*
X-328895Y-6390000D01*
X-511105Y-6390000D01*
X-689813Y-6425547D01*
X-845000Y-6489827D01*
X-1000187Y-6425547D01*
X-1178895Y-6390000D01*
X-1361105Y-6390000D01*
X-1539813Y-6425547D01*
X-1695000Y-6489827D01*
X-1850187Y-6425547D01*
X-2028895Y-6390000D01*
X-2211105Y-6390000D01*
X-2389813Y-6425547D01*
X-2547500Y-6490863D01*
X-2705187Y-6425547D01*
X-2883895Y-6390000D01*
X-3066105Y-6390000D01*
X-3244813Y-6425547D01*
X-3368212Y-6476660D01*
X-3393194Y-6415795D01*
X-3507513Y-6243505D01*
X-3653248Y-6096828D01*
X-3824798Y-5981401D01*
X-4015570Y-5901659D01*
X-4062722Y-5893285D01*
X-4225000Y-6015573D01*
X-4225000Y-7560000D01*
X-4205000Y-7560000D01*
X-4205000Y-7760000D01*
X-4225000Y-7760000D01*
X-4225000Y-7780000D01*
X-4425000Y-7780000D01*
X-4425000Y-7760000D01*
X-4445000Y-7760000D01*
X-4445000Y-7560000D01*
X-4425000Y-7560000D01*
X-4425000Y-6015573D01*
X-4550000Y-5921377D01*
X-4550000Y-5668623D01*
X-4425000Y-5574427D01*
X-4425000Y-4380000D01*
X-4225000Y-4380000D01*
X-4225000Y-5574427D01*
X-4062722Y-5696715D01*
X-4015570Y-5688341D01*
X-3824798Y-5608599D01*
X-3653248Y-5493172D01*
X-3507513Y-5346495D01*
X-3393194Y-5174205D01*
X-3314684Y-4982923D01*
X-3275000Y-4780000D01*
X-3275000Y-4380000D01*
X3275000Y-4380000D01*
X3275000Y-4780000D01*
X3314684Y-4982923D01*
X3393194Y-5174205D01*
X3507513Y-5346495D01*
X3653248Y-5493172D01*
X3824798Y-5608599D01*
X4015570Y-5688341D01*
X4062722Y-5696715D01*
X4225000Y-5574427D01*
X4225000Y-4380000D01*
X4425000Y-4380000D01*
X4425000Y-5574427D01*
X4587278Y-5696715D01*
X4634430Y-5688341D01*
X4825202Y-5608599D01*
X4996752Y-5493172D01*
X5031738Y-5457959D01*
X13382824Y-5457959D01*
X13444125Y-6164443D01*
X13642077Y-6845392D01*
X13969072Y-7474640D01*
X14015786Y-7544551D01*
X14478473Y-7880105D01*
X14702630Y-7655948D01*
X14702631Y-7655948D01*
X16858579Y-5500000D01*
X17141421Y-5500000D01*
X19297369Y-7655948D01*
X19297370Y-7655948D01*
X19521527Y-7880105D01*
X19984214Y-7544551D01*
X20325746Y-6923074D01*
X20539470Y-6246909D01*
X20617176Y-5542041D01*
X20555875Y-4835557D01*
X20357923Y-4154608D01*
X20030928Y-3525360D01*
X19984214Y-3455449D01*
X19521527Y-3119895D01*
X19297370Y-3344052D01*
X19297369Y-3344052D01*
X17141421Y-5500000D01*
X16858579Y-5500000D01*
X14702631Y-3344052D01*
X14702630Y-3344052D01*
X14478473Y-3119895D01*
X14015786Y-3455449D01*
X13674254Y-4076926D01*
X13460530Y-4753091D01*
X13382824Y-5457959D01*
X5031738Y-5457959D01*
X5142487Y-5346495D01*
X5256806Y-5174205D01*
X5335316Y-4982923D01*
X5375000Y-4780000D01*
X5375000Y-4380000D01*
X4425000Y-4380000D01*
X4225000Y-4380000D01*
X3275000Y-4380000D01*
X-3275000Y-4380000D01*
X-4225000Y-4380000D01*
X-4425000Y-4380000D01*
X-4445000Y-4380000D01*
X-4445000Y-4180000D01*
X-4425000Y-4180000D01*
X-4425000Y-2985573D01*
X-4225000Y-2985573D01*
X-4225000Y-4180000D01*
X-3275000Y-4180000D01*
X-3275000Y-3780000D01*
X3275000Y-3780000D01*
X3275000Y-4180000D01*
X4225000Y-4180000D01*
X4225000Y-2985573D01*
X4425000Y-2985573D01*
X4425000Y-4180000D01*
X5375000Y-4180000D01*
X5375000Y-3780000D01*
X5335316Y-3577077D01*
X5256806Y-3385795D01*
X5142487Y-3213505D01*
X4996752Y-3066828D01*
X4865437Y-2978473D01*
X14619895Y-2978473D01*
X14844052Y-3202630D01*
X14844052Y-3202631D01*
X17000000Y-5358579D01*
X19155948Y-3202631D01*
X19155948Y-3202630D01*
X19380105Y-2978473D01*
X19044551Y-2515786D01*
X18423074Y-2174254D01*
X17746909Y-1960530D01*
X17042041Y-1882824D01*
X16335557Y-1944125D01*
X15654608Y-2142077D01*
X15025360Y-2469072D01*
X14955449Y-2515786D01*
X14619895Y-2978473D01*
X4865437Y-2978473D01*
X4825202Y-2951401D01*
X4634430Y-2871659D01*
X4587278Y-2863285D01*
X4425000Y-2985573D01*
X4225000Y-2985573D01*
X4062722Y-2863285D01*
X4015570Y-2871659D01*
X3824798Y-2951401D01*
X3653248Y-3066828D01*
X3507513Y-3213505D01*
X3393194Y-3385795D01*
X3314684Y-3577077D01*
X3275000Y-3780000D01*
X-3275000Y-3780000D01*
X-3314684Y-3577077D01*
X-3393194Y-3385795D01*
X-3507513Y-3213505D01*
X-3653248Y-3066828D01*
X-3824798Y-2951401D01*
X-4015570Y-2871659D01*
X-4062722Y-2863285D01*
X-4225000Y-2985573D01*
X-4425000Y-2985573D01*
X-4550000Y-2891377D01*
X-4550000Y-1247700D01*
X-4442129Y-1247700D01*
X-4250148Y-1209513D01*
X-4069307Y-1134605D01*
X-3906553Y-1025857D01*
X-3905000Y-1024304D01*
X-3903447Y-1025857D01*
X-3740693Y-1134605D01*
X-3559852Y-1209513D01*
X-3367871Y-1247700D01*
X-3172129Y-1247700D01*
X-2980148Y-1209513D01*
X-2799307Y-1134605D01*
X-2636553Y-1025857D01*
X-2635000Y-1024304D01*
X-2633447Y-1025857D01*
X-2470693Y-1134605D01*
X-2289852Y-1209513D01*
X-2097871Y-1247700D01*
X-1902129Y-1247700D01*
X-1710148Y-1209513D01*
X-1529307Y-1134605D01*
X-1366553Y-1025857D01*
X-1365000Y-1024304D01*
X-1363447Y-1025857D01*
X-1200693Y-1134605D01*
X-1019852Y-1209513D01*
X-827871Y-1247700D01*
X-632129Y-1247700D01*
X-440148Y-1209513D01*
X-259307Y-1134605D01*
X-96553Y-1025857D01*
X-95000Y-1024304D01*
X-93447Y-1025857D01*
X69307Y-1134605D01*
X250148Y-1209513D01*
X442129Y-1247700D01*
X637871Y-1247700D01*
X829852Y-1209513D01*
X1010693Y-1134605D01*
X1173447Y-1025857D01*
X1311857Y-887447D01*
X1420605Y-724693D01*
X1468032Y-610196D01*
X1603444Y-651079D01*
G04 #@! TA.AperFunction,Conductor*
D18*
G36*
X1603444Y-651079D02*
G01*
X1665709Y-663408D01*
X1727737Y-676593D01*
X1737448Y-677613D01*
X1737458Y-677615D01*
X1737467Y-677615D01*
X1930702Y-696562D01*
X1965610Y-700000D01*
X16970351Y-700000D01*
X17808329Y-771104D01*
X18593539Y-974904D01*
X19333186Y-1308091D01*
X20006124Y-1761139D01*
X20593106Y-2321093D01*
X21077346Y-2971936D01*
X21445006Y-3695070D01*
X21685572Y-4469816D01*
X21792159Y-5274007D01*
X21761725Y-6084665D01*
X21595139Y-6878609D01*
X21297164Y-7633131D01*
X20876319Y-8326660D01*
X20344640Y-8939367D01*
X19717327Y-9453731D01*
X19012315Y-9855048D01*
X18249761Y-10131841D01*
X17438489Y-10278544D01*
X16983502Y-10300000D01*
X2291958Y-10300000D01*
X2307716Y-10220776D01*
X2307716Y-10023794D01*
X2269287Y-9830596D01*
X2193905Y-9648607D01*
X2138040Y-9565000D01*
X2216105Y-9565000D01*
X2394813Y-9529453D01*
X2550000Y-9465173D01*
X2705187Y-9529453D01*
X2883895Y-9565000D01*
X3066105Y-9565000D01*
X3244813Y-9529453D01*
X3413152Y-9459725D01*
X3564653Y-9358495D01*
X3681181Y-9241967D01*
X3824798Y-9338599D01*
X4015570Y-9418341D01*
X4062722Y-9426715D01*
X4225000Y-9304427D01*
X4225000Y-7760000D01*
X4425000Y-7760000D01*
X4425000Y-9304427D01*
X4587278Y-9426715D01*
X4634430Y-9418341D01*
X4825202Y-9338599D01*
X4996752Y-9223172D01*
X5142487Y-9076495D01*
X5256806Y-8904205D01*
X5335316Y-8712923D01*
X5375000Y-8510000D01*
X5375000Y-8021527D01*
X14619895Y-8021527D01*
X14955449Y-8484214D01*
X15576926Y-8825746D01*
X16253091Y-9039470D01*
X16957959Y-9117176D01*
X17664443Y-9055875D01*
X18345392Y-8857923D01*
X18974640Y-8530928D01*
X19044551Y-8484214D01*
X19380105Y-8021527D01*
X19155948Y-7797370D01*
X19155948Y-7797369D01*
X17000000Y-5641421D01*
X14844052Y-7797369D01*
X14844052Y-7797370D01*
X14619895Y-8021527D01*
X5375000Y-8021527D01*
X5375000Y-7760000D01*
X4425000Y-7760000D01*
X4225000Y-7760000D01*
X4205000Y-7760000D01*
X4205000Y-7560000D01*
X4225000Y-7560000D01*
X4225000Y-6015573D01*
X4425000Y-6015573D01*
X4425000Y-7560000D01*
X5375000Y-7560000D01*
X5375000Y-6810000D01*
X5335316Y-6607077D01*
X5256806Y-6415795D01*
X5142487Y-6243505D01*
X4996752Y-6096828D01*
X4825202Y-5981401D01*
X4634430Y-5901659D01*
X4587278Y-5893285D01*
X4425000Y-6015573D01*
X4225000Y-6015573D01*
X4062722Y-5893285D01*
X4015570Y-5901659D01*
X3824798Y-5981401D01*
X3653248Y-6096828D01*
X3507513Y-6243505D01*
X3393194Y-6415795D01*
X3368939Y-6474890D01*
X3249813Y-6425547D01*
X3071105Y-6390000D01*
X2888895Y-6390000D01*
X2710187Y-6425547D01*
X2555000Y-6489827D01*
X2399813Y-6425547D01*
X2221105Y-6390000D01*
X2038895Y-6390000D01*
X1860187Y-6425547D01*
X1705000Y-6489827D01*
X1549813Y-6425547D01*
X1371105Y-6390000D01*
X1188895Y-6390000D01*
X1010187Y-6425547D01*
X855000Y-6489827D01*
X699813Y-6425547D01*
X521105Y-6390000D01*
X338895Y-6390000D01*
X160187Y-6425547D01*
X5000Y-6489827D01*
X-150187Y-6425547D01*
X-328895Y-6390000D01*
X-511105Y-6390000D01*
X-689813Y-6425547D01*
X-845000Y-6489827D01*
X-1000187Y-6425547D01*
X-1178895Y-6390000D01*
X-1361105Y-6390000D01*
X-1539813Y-6425547D01*
X-1695000Y-6489827D01*
X-1850187Y-6425547D01*
X-2028895Y-6390000D01*
X-2211105Y-6390000D01*
X-2389813Y-6425547D01*
X-2547500Y-6490863D01*
X-2705187Y-6425547D01*
X-2883895Y-6390000D01*
X-3066105Y-6390000D01*
X-3244813Y-6425547D01*
X-3368212Y-6476660D01*
X-3393194Y-6415795D01*
X-3507513Y-6243505D01*
X-3653248Y-6096828D01*
X-3824798Y-5981401D01*
X-4015570Y-5901659D01*
X-4062722Y-5893285D01*
X-4225000Y-6015573D01*
X-4225000Y-7560000D01*
X-4205000Y-7560000D01*
X-4205000Y-7760000D01*
X-4225000Y-7760000D01*
X-4225000Y-7780000D01*
X-4425000Y-7780000D01*
X-4425000Y-7760000D01*
X-4445000Y-7760000D01*
X-4445000Y-7560000D01*
X-4425000Y-7560000D01*
X-4425000Y-6015573D01*
X-4550000Y-5921377D01*
X-4550000Y-5668623D01*
X-4425000Y-5574427D01*
X-4425000Y-4380000D01*
X-4225000Y-4380000D01*
X-4225000Y-5574427D01*
X-4062722Y-5696715D01*
X-4015570Y-5688341D01*
X-3824798Y-5608599D01*
X-3653248Y-5493172D01*
X-3507513Y-5346495D01*
X-3393194Y-5174205D01*
X-3314684Y-4982923D01*
X-3275000Y-4780000D01*
X-3275000Y-4380000D01*
X3275000Y-4380000D01*
X3275000Y-4780000D01*
X3314684Y-4982923D01*
X3393194Y-5174205D01*
X3507513Y-5346495D01*
X3653248Y-5493172D01*
X3824798Y-5608599D01*
X4015570Y-5688341D01*
X4062722Y-5696715D01*
X4225000Y-5574427D01*
X4225000Y-4380000D01*
X4425000Y-4380000D01*
X4425000Y-5574427D01*
X4587278Y-5696715D01*
X4634430Y-5688341D01*
X4825202Y-5608599D01*
X4996752Y-5493172D01*
X5031738Y-5457959D01*
X13382824Y-5457959D01*
X13444125Y-6164443D01*
X13642077Y-6845392D01*
X13969072Y-7474640D01*
X14015786Y-7544551D01*
X14478473Y-7880105D01*
X14702630Y-7655948D01*
X14702631Y-7655948D01*
X16858579Y-5500000D01*
X17141421Y-5500000D01*
X19297369Y-7655948D01*
X19297370Y-7655948D01*
X19521527Y-7880105D01*
X19984214Y-7544551D01*
X20325746Y-6923074D01*
X20539470Y-6246909D01*
X20617176Y-5542041D01*
X20555875Y-4835557D01*
X20357923Y-4154608D01*
X20030928Y-3525360D01*
X19984214Y-3455449D01*
X19521527Y-3119895D01*
X19297370Y-3344052D01*
X19297369Y-3344052D01*
X17141421Y-5500000D01*
X16858579Y-5500000D01*
X14702631Y-3344052D01*
X14702630Y-3344052D01*
X14478473Y-3119895D01*
X14015786Y-3455449D01*
X13674254Y-4076926D01*
X13460530Y-4753091D01*
X13382824Y-5457959D01*
X5031738Y-5457959D01*
X5142487Y-5346495D01*
X5256806Y-5174205D01*
X5335316Y-4982923D01*
X5375000Y-4780000D01*
X5375000Y-4380000D01*
X4425000Y-4380000D01*
X4225000Y-4380000D01*
X3275000Y-4380000D01*
X-3275000Y-4380000D01*
X-4225000Y-4380000D01*
X-4425000Y-4380000D01*
X-4445000Y-4380000D01*
X-4445000Y-4180000D01*
X-4425000Y-4180000D01*
X-4425000Y-2985573D01*
X-4225000Y-2985573D01*
X-4225000Y-4180000D01*
X-3275000Y-4180000D01*
X-3275000Y-3780000D01*
X3275000Y-3780000D01*
X3275000Y-4180000D01*
X4225000Y-4180000D01*
X4225000Y-2985573D01*
X4425000Y-2985573D01*
X4425000Y-4180000D01*
X5375000Y-4180000D01*
X5375000Y-3780000D01*
X5335316Y-3577077D01*
X5256806Y-3385795D01*
X5142487Y-3213505D01*
X4996752Y-3066828D01*
X4865437Y-2978473D01*
X14619895Y-2978473D01*
X14844052Y-3202630D01*
X14844052Y-3202631D01*
X17000000Y-5358579D01*
X19155948Y-3202631D01*
X19155948Y-3202630D01*
X19380105Y-2978473D01*
X19044551Y-2515786D01*
X18423074Y-2174254D01*
X17746909Y-1960530D01*
X17042041Y-1882824D01*
X16335557Y-1944125D01*
X15654608Y-2142077D01*
X15025360Y-2469072D01*
X14955449Y-2515786D01*
X14619895Y-2978473D01*
X4865437Y-2978473D01*
X4825202Y-2951401D01*
X4634430Y-2871659D01*
X4587278Y-2863285D01*
X4425000Y-2985573D01*
X4225000Y-2985573D01*
X4062722Y-2863285D01*
X4015570Y-2871659D01*
X3824798Y-2951401D01*
X3653248Y-3066828D01*
X3507513Y-3213505D01*
X3393194Y-3385795D01*
X3314684Y-3577077D01*
X3275000Y-3780000D01*
X-3275000Y-3780000D01*
X-3314684Y-3577077D01*
X-3393194Y-3385795D01*
X-3507513Y-3213505D01*
X-3653248Y-3066828D01*
X-3824798Y-2951401D01*
X-4015570Y-2871659D01*
X-4062722Y-2863285D01*
X-4225000Y-2985573D01*
X-4425000Y-2985573D01*
X-4550000Y-2891377D01*
X-4550000Y-1247700D01*
X-4442129Y-1247700D01*
X-4250148Y-1209513D01*
X-4069307Y-1134605D01*
X-3906553Y-1025857D01*
X-3905000Y-1024304D01*
X-3903447Y-1025857D01*
X-3740693Y-1134605D01*
X-3559852Y-1209513D01*
X-3367871Y-1247700D01*
X-3172129Y-1247700D01*
X-2980148Y-1209513D01*
X-2799307Y-1134605D01*
X-2636553Y-1025857D01*
X-2635000Y-1024304D01*
X-2633447Y-1025857D01*
X-2470693Y-1134605D01*
X-2289852Y-1209513D01*
X-2097871Y-1247700D01*
X-1902129Y-1247700D01*
X-1710148Y-1209513D01*
X-1529307Y-1134605D01*
X-1366553Y-1025857D01*
X-1365000Y-1024304D01*
X-1363447Y-1025857D01*
X-1200693Y-1134605D01*
X-1019852Y-1209513D01*
X-827871Y-1247700D01*
X-632129Y-1247700D01*
X-440148Y-1209513D01*
X-259307Y-1134605D01*
X-96553Y-1025857D01*
X-95000Y-1024304D01*
X-93447Y-1025857D01*
X69307Y-1134605D01*
X250148Y-1209513D01*
X442129Y-1247700D01*
X637871Y-1247700D01*
X829852Y-1209513D01*
X1010693Y-1134605D01*
X1173447Y-1025857D01*
X1311857Y-887447D01*
X1420605Y-724693D01*
X1468032Y-610196D01*
X1603444Y-651079D01*
G37*
G04 #@! TD.AperFunction*
D16*
X-5450000Y-653729D02*
X-5450000Y-8979000D01*
X-6653629Y-8979000D01*
X-7390164Y-8242466D01*
X-7420429Y-8090311D01*
X-7495811Y-7908322D01*
X-7605249Y-7744537D01*
X-7744537Y-7605249D01*
X-7908322Y-7495811D01*
X-8090311Y-7420429D01*
X-8283509Y-7382000D01*
X-8480491Y-7382000D01*
X-8673689Y-7420429D01*
X-8855678Y-7495811D01*
X-9019463Y-7605249D01*
X-9158751Y-7744537D01*
X-9268189Y-7908322D01*
X-9343571Y-8090311D01*
X-9382000Y-8283509D01*
X-9382000Y-8480491D01*
X-9343571Y-8673689D01*
X-9268189Y-8855678D01*
X-9158751Y-9019463D01*
X-9019463Y-9158751D01*
X-8855678Y-9268189D01*
X-8673689Y-9343571D01*
X-8521534Y-9373836D01*
X-7595371Y-10300000D01*
X-20970351Y-10300000D01*
X-21808329Y-10228896D01*
X-22593534Y-10025098D01*
X-23333185Y-9691910D01*
X-24006121Y-9238863D01*
X-24593100Y-8678913D01*
X-25077347Y-8028064D01*
X-25445006Y-7304930D01*
X-25685570Y-6530190D01*
X-25792159Y-5725994D01*
X-25770364Y-5145431D01*
X-24600000Y-5145431D01*
X-24600000Y-5854569D01*
X-24461654Y-6550081D01*
X-24190279Y-7205240D01*
X-23796303Y-7794866D01*
X-23294866Y-8296303D01*
X-22705240Y-8690279D01*
X-22050081Y-8961654D01*
X-21354569Y-9100000D01*
X-20645431Y-9100000D01*
X-19949919Y-8961654D01*
X-19294760Y-8690279D01*
X-18705134Y-8296303D01*
X-18203697Y-7794866D01*
X-17809721Y-7205240D01*
X-17538346Y-6550081D01*
X-17400000Y-5854569D01*
X-17400000Y-5145431D01*
X-17538346Y-4449919D01*
X-17809721Y-3794760D01*
X-18203697Y-3205134D01*
X-18705134Y-2703697D01*
X-19294760Y-2309721D01*
X-19949919Y-2038346D01*
X-20645431Y-1900000D01*
X-21354569Y-1900000D01*
X-22050081Y-2038346D01*
X-22705240Y-2309721D01*
X-23294866Y-2703697D01*
X-23796303Y-3205134D01*
X-24190279Y-3794760D01*
X-24461654Y-4449919D01*
X-24600000Y-5145431D01*
X-25770364Y-5145431D01*
X-25761725Y-4915335D01*
X-25595139Y-4121391D01*
X-25297164Y-3366869D01*
X-24876318Y-2673338D01*
X-24344640Y-2060633D01*
X-23717327Y-1546269D01*
X-23012317Y-1144953D01*
X-22249767Y-868160D01*
X-21438489Y-721456D01*
X-20983502Y-700000D01*
X-5965610Y-700000D01*
X-5930702Y-696562D01*
X-5917730Y-696562D01*
X-5908010Y-695541D01*
X-5714060Y-673786D01*
X-5651979Y-660590D01*
X-5589763Y-648271D01*
X-5580426Y-645381D01*
X-5468204Y-609781D01*
X-5450000Y-653729D01*
G04 #@! TA.AperFunction,Conductor*
D18*
G36*
X-5450000Y-653729D02*
G01*
X-5450000Y-8979000D01*
X-6653629Y-8979000D01*
X-7390164Y-8242466D01*
X-7420429Y-8090311D01*
X-7495811Y-7908322D01*
X-7605249Y-7744537D01*
X-7744537Y-7605249D01*
X-7908322Y-7495811D01*
X-8090311Y-7420429D01*
X-8283509Y-7382000D01*
X-8480491Y-7382000D01*
X-8673689Y-7420429D01*
X-8855678Y-7495811D01*
X-9019463Y-7605249D01*
X-9158751Y-7744537D01*
X-9268189Y-7908322D01*
X-9343571Y-8090311D01*
X-9382000Y-8283509D01*
X-9382000Y-8480491D01*
X-9343571Y-8673689D01*
X-9268189Y-8855678D01*
X-9158751Y-9019463D01*
X-9019463Y-9158751D01*
X-8855678Y-9268189D01*
X-8673689Y-9343571D01*
X-8521534Y-9373836D01*
X-7595371Y-10300000D01*
X-20970351Y-10300000D01*
X-21808329Y-10228896D01*
X-22593534Y-10025098D01*
X-23333185Y-9691910D01*
X-24006121Y-9238863D01*
X-24593100Y-8678913D01*
X-25077347Y-8028064D01*
X-25445006Y-7304930D01*
X-25685570Y-6530190D01*
X-25792159Y-5725994D01*
X-25770364Y-5145431D01*
X-24600000Y-5145431D01*
X-24600000Y-5854569D01*
X-24461654Y-6550081D01*
X-24190279Y-7205240D01*
X-23796303Y-7794866D01*
X-23294866Y-8296303D01*
X-22705240Y-8690279D01*
X-22050081Y-8961654D01*
X-21354569Y-9100000D01*
X-20645431Y-9100000D01*
X-19949919Y-8961654D01*
X-19294760Y-8690279D01*
X-18705134Y-8296303D01*
X-18203697Y-7794866D01*
X-17809721Y-7205240D01*
X-17538346Y-6550081D01*
X-17400000Y-5854569D01*
X-17400000Y-5145431D01*
X-17538346Y-4449919D01*
X-17809721Y-3794760D01*
X-18203697Y-3205134D01*
X-18705134Y-2703697D01*
X-19294760Y-2309721D01*
X-19949919Y-2038346D01*
X-20645431Y-1900000D01*
X-21354569Y-1900000D01*
X-22050081Y-2038346D01*
X-22705240Y-2309721D01*
X-23294866Y-2703697D01*
X-23796303Y-3205134D01*
X-24190279Y-3794760D01*
X-24461654Y-4449919D01*
X-24600000Y-5145431D01*
X-25770364Y-5145431D01*
X-25761725Y-4915335D01*
X-25595139Y-4121391D01*
X-25297164Y-3366869D01*
X-24876318Y-2673338D01*
X-24344640Y-2060633D01*
X-23717327Y-1546269D01*
X-23012317Y-1144953D01*
X-22249767Y-868160D01*
X-21438489Y-721456D01*
X-20983502Y-700000D01*
X-5965610Y-700000D01*
X-5930702Y-696562D01*
X-5917730Y-696562D01*
X-5908010Y-695541D01*
X-5714060Y-673786D01*
X-5651979Y-660590D01*
X-5589763Y-648271D01*
X-5580426Y-645381D01*
X-5468204Y-609781D01*
X-5450000Y-653729D01*
G37*
G04 #@! TD.AperFunction*
D16*
X-6276466Y12220776D02*
X-6276466Y12023794D01*
X-6238037Y11830596D01*
X-6162655Y11648607D01*
X-6106790Y11565000D01*
X-6184855Y11565000D01*
X-6363563Y11529453D01*
X-6518750Y11465173D01*
X-6673937Y11529453D01*
X-6852645Y11565000D01*
X-7034855Y11565000D01*
X-7213563Y11529453D01*
X-7381902Y11459725D01*
X-7533403Y11358495D01*
X-7649931Y11241967D01*
X-7793548Y11338599D01*
X-7984320Y11418341D01*
X-8031472Y11426715D01*
X-8193750Y11304427D01*
X-8193750Y9760000D01*
X-8173750Y9760000D01*
X-8173750Y9560000D01*
X-8193750Y9560000D01*
X-8193750Y8015573D01*
X-8031472Y7893285D01*
X-7984320Y7901659D01*
X-7793548Y7981401D01*
X-7621998Y8096828D01*
X-7476263Y8243505D01*
X-7361944Y8415795D01*
X-7337689Y8474890D01*
X-7218563Y8425547D01*
X-7039855Y8390000D01*
X-6857645Y8390000D01*
X-6678937Y8425547D01*
X-6523750Y8489827D01*
X-6368563Y8425547D01*
X-6189855Y8390000D01*
X-6007645Y8390000D01*
X-5828937Y8425547D01*
X-5673750Y8489827D01*
X-5518563Y8425547D01*
X-5339855Y8390000D01*
X-5157645Y8390000D01*
X-4978937Y8425547D01*
X-4823750Y8489827D01*
X-4668563Y8425547D01*
X-4489855Y8390000D01*
X-4307645Y8390000D01*
X-4128937Y8425547D01*
X-3973750Y8489827D01*
X-3818563Y8425547D01*
X-3639855Y8390000D01*
X-3457645Y8390000D01*
X-3278937Y8425547D01*
X-3123750Y8489827D01*
X-2968563Y8425547D01*
X-2789855Y8390000D01*
X-2607645Y8390000D01*
X-2428937Y8425547D01*
X-2273750Y8489827D01*
X-2118563Y8425547D01*
X-1939855Y8390000D01*
X-1757645Y8390000D01*
X-1578937Y8425547D01*
X-1421250Y8490863D01*
X-1263563Y8425547D01*
X-1084855Y8390000D01*
X-902645Y8390000D01*
X-723937Y8425547D01*
X-600538Y8476660D01*
X-575556Y8415795D01*
X-461237Y8243505D01*
X-315502Y8096828D01*
X-143952Y7981401D01*
X46820Y7901659D01*
X93972Y7893285D01*
X256250Y8015573D01*
X256250Y9560000D01*
X236250Y9560000D01*
X236250Y9760000D01*
X256250Y9760000D01*
X256250Y9780000D01*
X456250Y9780000D01*
X456250Y9760000D01*
X476250Y9760000D01*
X476250Y9560000D01*
X456250Y9560000D01*
X456250Y8015573D01*
X581250Y7921377D01*
X581250Y7668623D01*
X456250Y7574427D01*
X456250Y6380000D01*
X476250Y6380000D01*
X476250Y6180000D01*
X456250Y6180000D01*
X456250Y4985573D01*
X581250Y4891377D01*
X581250Y3247700D01*
X473379Y3247700D01*
X281398Y3209513D01*
X100557Y3134605D01*
X-62197Y3025857D01*
X-63750Y3024304D01*
X-65303Y3025857D01*
X-228057Y3134605D01*
X-408898Y3209513D01*
X-600879Y3247700D01*
X-796621Y3247700D01*
X-988602Y3209513D01*
X-1169443Y3134605D01*
X-1332197Y3025857D01*
X-1333750Y3024304D01*
X-1335303Y3025857D01*
X-1498057Y3134605D01*
X-1678898Y3209513D01*
X-1870879Y3247700D01*
X-2066621Y3247700D01*
X-2258602Y3209513D01*
X-2439443Y3134605D01*
X-2602197Y3025857D01*
X-2603750Y3024304D01*
X-2605303Y3025857D01*
X-2768057Y3134605D01*
X-2948898Y3209513D01*
X-3140879Y3247700D01*
X-3336621Y3247700D01*
X-3528602Y3209513D01*
X-3709443Y3134605D01*
X-3872197Y3025857D01*
X-3873750Y3024304D01*
X-3875303Y3025857D01*
X-4038057Y3134605D01*
X-4218898Y3209513D01*
X-4410879Y3247700D01*
X-4606621Y3247700D01*
X-4798602Y3209513D01*
X-4979443Y3134605D01*
X-5142197Y3025857D01*
X-5280607Y2887447D01*
X-5389355Y2724693D01*
X-5440256Y2601810D01*
X-5603444Y2651079D01*
X-5665709Y2663408D01*
X-5727737Y2676593D01*
X-5737447Y2677613D01*
X-5737458Y2677615D01*
X-5737468Y2677615D01*
X-5930872Y2696579D01*
X-5965610Y2700000D01*
X-20939101Y2700000D01*
X-21777079Y2771104D01*
X-22562284Y2974902D01*
X-23301935Y3308090D01*
X-23974871Y3761137D01*
X-24561850Y4321087D01*
X-25046097Y4971936D01*
X-25049420Y4978473D01*
X-23348855Y4978473D01*
X-23013301Y4515786D01*
X-22391824Y4174254D01*
X-21715659Y3960530D01*
X-21010791Y3882824D01*
X-20304307Y3944125D01*
X-19623358Y4142077D01*
X-18994110Y4469072D01*
X-18924199Y4515786D01*
X-18588645Y4978473D01*
X-18812802Y5202630D01*
X-18812802Y5202631D01*
X-20968750Y7358579D01*
X-23124698Y5202631D01*
X-23124698Y5202630D01*
X-23348855Y4978473D01*
X-25049420Y4978473D01*
X-25413756Y5695070D01*
X-25654320Y6469810D01*
X-25760909Y7274006D01*
X-25750847Y7542041D01*
X-24585926Y7542041D01*
X-24524625Y6835557D01*
X-24326673Y6154608D01*
X-23999678Y5525360D01*
X-23952964Y5455449D01*
X-23490277Y5119895D01*
X-23266120Y5344052D01*
X-23266119Y5344052D01*
X-21110171Y7500000D01*
X-20827329Y7500000D01*
X-18671381Y5344052D01*
X-18671380Y5344052D01*
X-18447223Y5119895D01*
X-17984536Y5455449D01*
X-17643004Y6076926D01*
X-17610425Y6180000D01*
X-9343750Y6180000D01*
X-9343750Y5780000D01*
X-9304066Y5577077D01*
X-9225556Y5385795D01*
X-9111237Y5213505D01*
X-8965502Y5066828D01*
X-8793952Y4951401D01*
X-8603180Y4871659D01*
X-8556028Y4863285D01*
X-8393750Y4985573D01*
X-8393750Y6180000D01*
X-8193750Y6180000D01*
X-8193750Y4985573D01*
X-8031472Y4863285D01*
X-7984320Y4871659D01*
X-7793548Y4951401D01*
X-7621998Y5066828D01*
X-7476263Y5213505D01*
X-7361944Y5385795D01*
X-7283434Y5577077D01*
X-7243750Y5780000D01*
X-7243750Y6180000D01*
X-693750Y6180000D01*
X-693750Y5780000D01*
X-654066Y5577077D01*
X-575556Y5385795D01*
X-461237Y5213505D01*
X-315502Y5066828D01*
X-143952Y4951401D01*
X46820Y4871659D01*
X93972Y4863285D01*
X256250Y4985573D01*
X256250Y6180000D01*
X-693750Y6180000D01*
X-7243750Y6180000D01*
X-8193750Y6180000D01*
X-8393750Y6180000D01*
X-9343750Y6180000D01*
X-17610425Y6180000D01*
X-17429280Y6753091D01*
X-17426314Y6780000D01*
X-9343750Y6780000D01*
X-9343750Y6380000D01*
X-8393750Y6380000D01*
X-8393750Y7574427D01*
X-8193750Y7574427D01*
X-8193750Y6380000D01*
X-7243750Y6380000D01*
X-7243750Y6780000D01*
X-693750Y6780000D01*
X-693750Y6380000D01*
X256250Y6380000D01*
X256250Y7574427D01*
X93972Y7696715D01*
X46820Y7688341D01*
X-143952Y7608599D01*
X-315502Y7493172D01*
X-461237Y7346495D01*
X-575556Y7174205D01*
X-654066Y6982923D01*
X-693750Y6780000D01*
X-7243750Y6780000D01*
X-7283434Y6982923D01*
X-7361944Y7174205D01*
X-7476263Y7346495D01*
X-7621998Y7493172D01*
X-7793548Y7608599D01*
X-7984320Y7688341D01*
X-8031472Y7696715D01*
X-8193750Y7574427D01*
X-8393750Y7574427D01*
X-8556028Y7696715D01*
X-8603180Y7688341D01*
X-8793952Y7608599D01*
X-8965502Y7493172D01*
X-9111237Y7346495D01*
X-9225556Y7174205D01*
X-9304066Y6982923D01*
X-9343750Y6780000D01*
X-17426314Y6780000D01*
X-17351574Y7457959D01*
X-17412875Y8164443D01*
X-17610827Y8845392D01*
X-17937822Y9474640D01*
X-17984536Y9544551D01*
X-18005838Y9560000D01*
X-9343750Y9560000D01*
X-9343750Y8810000D01*
X-9304066Y8607077D01*
X-9225556Y8415795D01*
X-9111237Y8243505D01*
X-8965502Y8096828D01*
X-8793952Y7981401D01*
X-8603180Y7901659D01*
X-8556028Y7893285D01*
X-8393750Y8015573D01*
X-8393750Y9560000D01*
X-9343750Y9560000D01*
X-18005838Y9560000D01*
X-18447223Y9880105D01*
X-18671380Y9655948D01*
X-18671381Y9655948D01*
X-20827329Y7500000D01*
X-21110171Y7500000D01*
X-23266119Y9655948D01*
X-23266120Y9655948D01*
X-23490277Y9880105D01*
X-23952964Y9544551D01*
X-24294496Y8923074D01*
X-24508220Y8246909D01*
X-24585926Y7542041D01*
X-25750847Y7542041D01*
X-25730475Y8084665D01*
X-25563889Y8878609D01*
X-25265914Y9633131D01*
X-25030229Y10021527D01*
X-23348855Y10021527D01*
X-23124698Y9797370D01*
X-23124698Y9797369D01*
X-20968750Y7641421D01*
X-18812802Y9797369D01*
X-18812802Y9797370D01*
X-18588645Y10021527D01*
X-18924199Y10484214D01*
X-18971121Y10510000D01*
X-9343750Y10510000D01*
X-9343750Y9760000D01*
X-8393750Y9760000D01*
X-8393750Y11304427D01*
X-8556028Y11426715D01*
X-8603180Y11418341D01*
X-8793952Y11338599D01*
X-8965502Y11223172D01*
X-9111237Y11076495D01*
X-9225556Y10904205D01*
X-9304066Y10712923D01*
X-9343750Y10510000D01*
X-18971121Y10510000D01*
X-19545676Y10825746D01*
X-20221841Y11039470D01*
X-20926709Y11117176D01*
X-21633193Y11055875D01*
X-22314142Y10857923D01*
X-22943390Y10530928D01*
X-23013301Y10484214D01*
X-23348855Y10021527D01*
X-25030229Y10021527D01*
X-24845068Y10326662D01*
X-24313390Y10939367D01*
X-23686077Y11453731D01*
X-22981067Y11855047D01*
X-22218517Y12131840D01*
X-21407239Y12278544D01*
X-20952252Y12300000D01*
X-6260708Y12300000D01*
X-6276466Y12220776D01*
G04 #@! TA.AperFunction,Conductor*
D18*
G36*
X-6276466Y12220776D02*
G01*
X-6276466Y12023794D01*
X-6238037Y11830596D01*
X-6162655Y11648607D01*
X-6106790Y11565000D01*
X-6184855Y11565000D01*
X-6363563Y11529453D01*
X-6518750Y11465173D01*
X-6673937Y11529453D01*
X-6852645Y11565000D01*
X-7034855Y11565000D01*
X-7213563Y11529453D01*
X-7381902Y11459725D01*
X-7533403Y11358495D01*
X-7649931Y11241967D01*
X-7793548Y11338599D01*
X-7984320Y11418341D01*
X-8031472Y11426715D01*
X-8193750Y11304427D01*
X-8193750Y9760000D01*
X-8173750Y9760000D01*
X-8173750Y9560000D01*
X-8193750Y9560000D01*
X-8193750Y8015573D01*
X-8031472Y7893285D01*
X-7984320Y7901659D01*
X-7793548Y7981401D01*
X-7621998Y8096828D01*
X-7476263Y8243505D01*
X-7361944Y8415795D01*
X-7337689Y8474890D01*
X-7218563Y8425547D01*
X-7039855Y8390000D01*
X-6857645Y8390000D01*
X-6678937Y8425547D01*
X-6523750Y8489827D01*
X-6368563Y8425547D01*
X-6189855Y8390000D01*
X-6007645Y8390000D01*
X-5828937Y8425547D01*
X-5673750Y8489827D01*
X-5518563Y8425547D01*
X-5339855Y8390000D01*
X-5157645Y8390000D01*
X-4978937Y8425547D01*
X-4823750Y8489827D01*
X-4668563Y8425547D01*
X-4489855Y8390000D01*
X-4307645Y8390000D01*
X-4128937Y8425547D01*
X-3973750Y8489827D01*
X-3818563Y8425547D01*
X-3639855Y8390000D01*
X-3457645Y8390000D01*
X-3278937Y8425547D01*
X-3123750Y8489827D01*
X-2968563Y8425547D01*
X-2789855Y8390000D01*
X-2607645Y8390000D01*
X-2428937Y8425547D01*
X-2273750Y8489827D01*
X-2118563Y8425547D01*
X-1939855Y8390000D01*
X-1757645Y8390000D01*
X-1578937Y8425547D01*
X-1421250Y8490863D01*
X-1263563Y8425547D01*
X-1084855Y8390000D01*
X-902645Y8390000D01*
X-723937Y8425547D01*
X-600538Y8476660D01*
X-575556Y8415795D01*
X-461237Y8243505D01*
X-315502Y8096828D01*
X-143952Y7981401D01*
X46820Y7901659D01*
X93972Y7893285D01*
X256250Y8015573D01*
X256250Y9560000D01*
X236250Y9560000D01*
X236250Y9760000D01*
X256250Y9760000D01*
X256250Y9780000D01*
X456250Y9780000D01*
X456250Y9760000D01*
X476250Y9760000D01*
X476250Y9560000D01*
X456250Y9560000D01*
X456250Y8015573D01*
X581250Y7921377D01*
X581250Y7668623D01*
X456250Y7574427D01*
X456250Y6380000D01*
X476250Y6380000D01*
X476250Y6180000D01*
X456250Y6180000D01*
X456250Y4985573D01*
X581250Y4891377D01*
X581250Y3247700D01*
X473379Y3247700D01*
X281398Y3209513D01*
X100557Y3134605D01*
X-62197Y3025857D01*
X-63750Y3024304D01*
X-65303Y3025857D01*
X-228057Y3134605D01*
X-408898Y3209513D01*
X-600879Y3247700D01*
X-796621Y3247700D01*
X-988602Y3209513D01*
X-1169443Y3134605D01*
X-1332197Y3025857D01*
X-1333750Y3024304D01*
X-1335303Y3025857D01*
X-1498057Y3134605D01*
X-1678898Y3209513D01*
X-1870879Y3247700D01*
X-2066621Y3247700D01*
X-2258602Y3209513D01*
X-2439443Y3134605D01*
X-2602197Y3025857D01*
X-2603750Y3024304D01*
X-2605303Y3025857D01*
X-2768057Y3134605D01*
X-2948898Y3209513D01*
X-3140879Y3247700D01*
X-3336621Y3247700D01*
X-3528602Y3209513D01*
X-3709443Y3134605D01*
X-3872197Y3025857D01*
X-3873750Y3024304D01*
X-3875303Y3025857D01*
X-4038057Y3134605D01*
X-4218898Y3209513D01*
X-4410879Y3247700D01*
X-4606621Y3247700D01*
X-4798602Y3209513D01*
X-4979443Y3134605D01*
X-5142197Y3025857D01*
X-5280607Y2887447D01*
X-5389355Y2724693D01*
X-5440256Y2601810D01*
X-5603444Y2651079D01*
X-5665709Y2663408D01*
X-5727737Y2676593D01*
X-5737447Y2677613D01*
X-5737458Y2677615D01*
X-5737468Y2677615D01*
X-5930872Y2696579D01*
X-5965610Y2700000D01*
X-20939101Y2700000D01*
X-21777079Y2771104D01*
X-22562284Y2974902D01*
X-23301935Y3308090D01*
X-23974871Y3761137D01*
X-24561850Y4321087D01*
X-25046097Y4971936D01*
X-25049420Y4978473D01*
X-23348855Y4978473D01*
X-23013301Y4515786D01*
X-22391824Y4174254D01*
X-21715659Y3960530D01*
X-21010791Y3882824D01*
X-20304307Y3944125D01*
X-19623358Y4142077D01*
X-18994110Y4469072D01*
X-18924199Y4515786D01*
X-18588645Y4978473D01*
X-18812802Y5202630D01*
X-18812802Y5202631D01*
X-20968750Y7358579D01*
X-23124698Y5202631D01*
X-23124698Y5202630D01*
X-23348855Y4978473D01*
X-25049420Y4978473D01*
X-25413756Y5695070D01*
X-25654320Y6469810D01*
X-25760909Y7274006D01*
X-25750847Y7542041D01*
X-24585926Y7542041D01*
X-24524625Y6835557D01*
X-24326673Y6154608D01*
X-23999678Y5525360D01*
X-23952964Y5455449D01*
X-23490277Y5119895D01*
X-23266120Y5344052D01*
X-23266119Y5344052D01*
X-21110171Y7500000D01*
X-20827329Y7500000D01*
X-18671381Y5344052D01*
X-18671380Y5344052D01*
X-18447223Y5119895D01*
X-17984536Y5455449D01*
X-17643004Y6076926D01*
X-17610425Y6180000D01*
X-9343750Y6180000D01*
X-9343750Y5780000D01*
X-9304066Y5577077D01*
X-9225556Y5385795D01*
X-9111237Y5213505D01*
X-8965502Y5066828D01*
X-8793952Y4951401D01*
X-8603180Y4871659D01*
X-8556028Y4863285D01*
X-8393750Y4985573D01*
X-8393750Y6180000D01*
X-8193750Y6180000D01*
X-8193750Y4985573D01*
X-8031472Y4863285D01*
X-7984320Y4871659D01*
X-7793548Y4951401D01*
X-7621998Y5066828D01*
X-7476263Y5213505D01*
X-7361944Y5385795D01*
X-7283434Y5577077D01*
X-7243750Y5780000D01*
X-7243750Y6180000D01*
X-693750Y6180000D01*
X-693750Y5780000D01*
X-654066Y5577077D01*
X-575556Y5385795D01*
X-461237Y5213505D01*
X-315502Y5066828D01*
X-143952Y4951401D01*
X46820Y4871659D01*
X93972Y4863285D01*
X256250Y4985573D01*
X256250Y6180000D01*
X-693750Y6180000D01*
X-7243750Y6180000D01*
X-8193750Y6180000D01*
X-8393750Y6180000D01*
X-9343750Y6180000D01*
X-17610425Y6180000D01*
X-17429280Y6753091D01*
X-17426314Y6780000D01*
X-9343750Y6780000D01*
X-9343750Y6380000D01*
X-8393750Y6380000D01*
X-8393750Y7574427D01*
X-8193750Y7574427D01*
X-8193750Y6380000D01*
X-7243750Y6380000D01*
X-7243750Y6780000D01*
X-693750Y6780000D01*
X-693750Y6380000D01*
X256250Y6380000D01*
X256250Y7574427D01*
X93972Y7696715D01*
X46820Y7688341D01*
X-143952Y7608599D01*
X-315502Y7493172D01*
X-461237Y7346495D01*
X-575556Y7174205D01*
X-654066Y6982923D01*
X-693750Y6780000D01*
X-7243750Y6780000D01*
X-7283434Y6982923D01*
X-7361944Y7174205D01*
X-7476263Y7346495D01*
X-7621998Y7493172D01*
X-7793548Y7608599D01*
X-7984320Y7688341D01*
X-8031472Y7696715D01*
X-8193750Y7574427D01*
X-8393750Y7574427D01*
X-8556028Y7696715D01*
X-8603180Y7688341D01*
X-8793952Y7608599D01*
X-8965502Y7493172D01*
X-9111237Y7346495D01*
X-9225556Y7174205D01*
X-9304066Y6982923D01*
X-9343750Y6780000D01*
X-17426314Y6780000D01*
X-17351574Y7457959D01*
X-17412875Y8164443D01*
X-17610827Y8845392D01*
X-17937822Y9474640D01*
X-17984536Y9544551D01*
X-18005838Y9560000D01*
X-9343750Y9560000D01*
X-9343750Y8810000D01*
X-9304066Y8607077D01*
X-9225556Y8415795D01*
X-9111237Y8243505D01*
X-8965502Y8096828D01*
X-8793952Y7981401D01*
X-8603180Y7901659D01*
X-8556028Y7893285D01*
X-8393750Y8015573D01*
X-8393750Y9560000D01*
X-9343750Y9560000D01*
X-18005838Y9560000D01*
X-18447223Y9880105D01*
X-18671380Y9655948D01*
X-18671381Y9655948D01*
X-20827329Y7500000D01*
X-21110171Y7500000D01*
X-23266119Y9655948D01*
X-23266120Y9655948D01*
X-23490277Y9880105D01*
X-23952964Y9544551D01*
X-24294496Y8923074D01*
X-24508220Y8246909D01*
X-24585926Y7542041D01*
X-25750847Y7542041D01*
X-25730475Y8084665D01*
X-25563889Y8878609D01*
X-25265914Y9633131D01*
X-25030229Y10021527D01*
X-23348855Y10021527D01*
X-23124698Y9797370D01*
X-23124698Y9797369D01*
X-20968750Y7641421D01*
X-18812802Y9797369D01*
X-18812802Y9797370D01*
X-18588645Y10021527D01*
X-18924199Y10484214D01*
X-18971121Y10510000D01*
X-9343750Y10510000D01*
X-9343750Y9760000D01*
X-8393750Y9760000D01*
X-8393750Y11304427D01*
X-8556028Y11426715D01*
X-8603180Y11418341D01*
X-8793952Y11338599D01*
X-8965502Y11223172D01*
X-9111237Y11076495D01*
X-9225556Y10904205D01*
X-9304066Y10712923D01*
X-9343750Y10510000D01*
X-18971121Y10510000D01*
X-19545676Y10825746D01*
X-20221841Y11039470D01*
X-20926709Y11117176D01*
X-21633193Y11055875D01*
X-22314142Y10857923D01*
X-22943390Y10530928D01*
X-23013301Y10484214D01*
X-23348855Y10021527D01*
X-25030229Y10021527D01*
X-24845068Y10326662D01*
X-24313390Y10939367D01*
X-23686077Y11453731D01*
X-22981067Y11855047D01*
X-22218517Y12131840D01*
X-21407239Y12278544D01*
X-20952252Y12300000D01*
X-6260708Y12300000D01*
X-6276466Y12220776D01*
G37*
G04 #@! TD.AperFunction*
D16*
X17839579Y12228896D02*
X18624789Y12025096D01*
X19364436Y11691909D01*
X20037374Y11238861D01*
X20624356Y10678907D01*
X21108596Y10028064D01*
X21476256Y9304930D01*
X21716822Y8530184D01*
X21823409Y7725993D01*
X21792975Y6915335D01*
X21626389Y6121391D01*
X21328414Y5366869D01*
X20907569Y4673340D01*
X20375890Y4060633D01*
X19748577Y3546269D01*
X19043565Y3144952D01*
X18281011Y2868159D01*
X17469739Y2721456D01*
X17014752Y2700000D01*
X1965610Y2700000D01*
X1930702Y2696562D01*
X1917730Y2696562D01*
X1908009Y2695541D01*
X1714060Y2673786D01*
X1651971Y2660589D01*
X1589764Y2648271D01*
X1580433Y2645383D01*
X1580429Y2645382D01*
X1580426Y2645381D01*
X1580427Y2645381D01*
X1495824Y2618543D01*
X1481250Y2653728D01*
X1481250Y7854569D01*
X13431250Y7854569D01*
X13431250Y7145431D01*
X13569596Y6449919D01*
X13840971Y5794760D01*
X14234947Y5205134D01*
X14736384Y4703697D01*
X15326010Y4309721D01*
X15981169Y4038346D01*
X16676681Y3900000D01*
X17385819Y3900000D01*
X18081331Y4038346D01*
X18736490Y4309721D01*
X19326116Y4703697D01*
X19827553Y5205134D01*
X20221529Y5794760D01*
X20492904Y6449919D01*
X20631250Y7145431D01*
X20631250Y7854569D01*
X20492904Y8550081D01*
X20221529Y9205240D01*
X19827553Y9794866D01*
X19326116Y10296303D01*
X18736490Y10690279D01*
X18081331Y10961654D01*
X17385819Y11100000D01*
X16676681Y11100000D01*
X15981169Y10961654D01*
X15326010Y10690279D01*
X14736384Y10296303D01*
X14234947Y9794866D01*
X13840971Y9205240D01*
X13569596Y8550081D01*
X13431250Y7854569D01*
X1481250Y7854569D01*
X1481250Y10979000D01*
X2684880Y10979000D01*
X3421414Y10242465D01*
X3451679Y10090311D01*
X3527061Y9908322D01*
X3636499Y9744537D01*
X3775787Y9605249D01*
X3939572Y9495811D01*
X4121561Y9420429D01*
X4314759Y9382000D01*
X4511741Y9382000D01*
X4704939Y9420429D01*
X4886928Y9495811D01*
X5050713Y9605249D01*
X5190001Y9744537D01*
X5299439Y9908322D01*
X5374821Y10090311D01*
X5413250Y10283509D01*
X5413250Y10480491D01*
X5374821Y10673689D01*
X5299439Y10855678D01*
X5190001Y11019463D01*
X5050713Y11158751D01*
X4886928Y11268189D01*
X4704939Y11343571D01*
X4552785Y11373836D01*
X3626620Y12300000D01*
X17001601Y12300000D01*
X17839579Y12228896D01*
G04 #@! TA.AperFunction,Conductor*
D18*
G36*
X17839579Y12228896D02*
G01*
X18624789Y12025096D01*
X19364436Y11691909D01*
X20037374Y11238861D01*
X20624356Y10678907D01*
X21108596Y10028064D01*
X21476256Y9304930D01*
X21716822Y8530184D01*
X21823409Y7725993D01*
X21792975Y6915335D01*
X21626389Y6121391D01*
X21328414Y5366869D01*
X20907569Y4673340D01*
X20375890Y4060633D01*
X19748577Y3546269D01*
X19043565Y3144952D01*
X18281011Y2868159D01*
X17469739Y2721456D01*
X17014752Y2700000D01*
X1965610Y2700000D01*
X1930702Y2696562D01*
X1917730Y2696562D01*
X1908009Y2695541D01*
X1714060Y2673786D01*
X1651971Y2660589D01*
X1589764Y2648271D01*
X1580433Y2645383D01*
X1580429Y2645382D01*
X1580426Y2645381D01*
X1580427Y2645381D01*
X1495824Y2618543D01*
X1481250Y2653728D01*
X1481250Y7854569D01*
X13431250Y7854569D01*
X13431250Y7145431D01*
X13569596Y6449919D01*
X13840971Y5794760D01*
X14234947Y5205134D01*
X14736384Y4703697D01*
X15326010Y4309721D01*
X15981169Y4038346D01*
X16676681Y3900000D01*
X17385819Y3900000D01*
X18081331Y4038346D01*
X18736490Y4309721D01*
X19326116Y4703697D01*
X19827553Y5205134D01*
X20221529Y5794760D01*
X20492904Y6449919D01*
X20631250Y7145431D01*
X20631250Y7854569D01*
X20492904Y8550081D01*
X20221529Y9205240D01*
X19827553Y9794866D01*
X19326116Y10296303D01*
X18736490Y10690279D01*
X18081331Y10961654D01*
X17385819Y11100000D01*
X16676681Y11100000D01*
X15981169Y10961654D01*
X15326010Y10690279D01*
X14736384Y10296303D01*
X14234947Y9794866D01*
X13840971Y9205240D01*
X13569596Y8550081D01*
X13431250Y7854569D01*
X1481250Y7854569D01*
X1481250Y10979000D01*
X2684880Y10979000D01*
X3421414Y10242465D01*
X3451679Y10090311D01*
X3527061Y9908322D01*
X3636499Y9744537D01*
X3775787Y9605249D01*
X3939572Y9495811D01*
X4121561Y9420429D01*
X4314759Y9382000D01*
X4511741Y9382000D01*
X4704939Y9420429D01*
X4886928Y9495811D01*
X5050713Y9605249D01*
X5190001Y9744537D01*
X5299439Y9908322D01*
X5374821Y10090311D01*
X5413250Y10283509D01*
X5413250Y10480491D01*
X5374821Y10673689D01*
X5299439Y10855678D01*
X5190001Y11019463D01*
X5050713Y11158751D01*
X4886928Y11268189D01*
X4704939Y11343571D01*
X4552785Y11373836D01*
X3626620Y12300000D01*
X17001601Y12300000D01*
X17839579Y12228896D01*
G37*
G04 #@! TD.AperFunction*
M02*
