G04 #@! TF.GenerationSoftware,KiCad,Pcbnew,(5.1.10)-1*
G04 #@! TF.CreationDate,2021-08-18T17:13:36+08:00*
G04 #@! TF.ProjectId,dboard,64626f61-7264-42e6-9b69-6361645f7063,rev?*
G04 #@! TF.SameCoordinates,Original*
G04 #@! TF.FileFunction,Soldermask,Bot*
G04 #@! TF.FilePolarity,Negative*
%FSLAX46Y46*%
G04 Gerber Fmt 4.6, Leading zero omitted, Abs format (unit mm)*
G04 Created by KiCad (PCBNEW (5.1.10)-1) date 2021-08-18 17:13:36*
%MOMM*%
%LPD*%
G01*
G04 APERTURE LIST*
%ADD10C,0.889400*%
%ADD11O,1.002000X1.802000*%
%ADD12O,1.002000X2.502000*%
%ADD13C,0.752000*%
%ADD14C,0.902000*%
%ADD15C,6.102000*%
%ADD16C,0.100000*%
G04 APERTURE END LIST*
D10*
X-4508750Y2254000D03*
X-3238750Y2254000D03*
X571250Y2254000D03*
X-698750Y2254000D03*
X-1968750Y2254000D03*
G36*
G01*
X-12087000Y4061500D02*
X-13050500Y4061500D01*
G75*
G02*
X-13319750Y4330750I0J269250D01*
G01*
X-13319750Y4869250D01*
G75*
G02*
X-13050500Y5138500I269250J0D01*
G01*
X-12087000Y5138500D01*
G75*
G02*
X-11817750Y4869250I0J-269250D01*
G01*
X-11817750Y4330750D01*
G75*
G02*
X-12087000Y4061500I-269250J0D01*
G01*
G37*
G36*
G01*
X-12087000Y5936500D02*
X-13050500Y5936500D01*
G75*
G02*
X-13319750Y6205750I0J269250D01*
G01*
X-13319750Y6744250D01*
G75*
G02*
X-13050500Y7013500I269250J0D01*
G01*
X-12087000Y7013500D01*
G75*
G02*
X-11817750Y6744250I0J-269250D01*
G01*
X-11817750Y6205750D01*
G75*
G02*
X-12087000Y5936500I-269250J0D01*
G01*
G37*
G36*
G01*
X-10074500Y10299000D02*
X-10638000Y10299000D01*
G75*
G02*
X-10882250Y10543250I0J244250D01*
G01*
X-10882250Y11031750D01*
G75*
G02*
X-10638000Y11276000I244250J0D01*
G01*
X-10074500Y11276000D01*
G75*
G02*
X-9830250Y11031750I0J-244250D01*
G01*
X-9830250Y10543250D01*
G75*
G02*
X-10074500Y10299000I-244250J0D01*
G01*
G37*
G36*
G01*
X-10074500Y8724000D02*
X-10638000Y8724000D01*
G75*
G02*
X-10882250Y8968250I0J244250D01*
G01*
X-10882250Y9456750D01*
G75*
G02*
X-10638000Y9701000I244250J0D01*
G01*
X-10074500Y9701000D01*
G75*
G02*
X-9830250Y9456750I0J-244250D01*
G01*
X-9830250Y8968250D01*
G75*
G02*
X-10074500Y8724000I-244250J0D01*
G01*
G37*
D11*
X-8293750Y6280000D03*
X356250Y6280000D03*
D12*
X-8293750Y9660000D03*
X356250Y9660000D03*
D13*
X-6948750Y9315000D03*
X-6098750Y9315000D03*
X-5248750Y9315000D03*
X-4398750Y9315000D03*
X-3548750Y9315000D03*
X-2698750Y9315000D03*
X-1848750Y9315000D03*
X-993750Y9315000D03*
X-6943750Y10640000D03*
X-6093750Y10640000D03*
X-5243750Y10640000D03*
X-4393750Y10640000D03*
X-3543750Y10640000D03*
X-1843750Y10640000D03*
X-993750Y10640000D03*
X-2693750Y10640000D03*
G36*
G01*
X5086850Y8224000D02*
X3775650Y8224000D01*
G75*
G02*
X3505250Y8494400I0J270400D01*
G01*
X3505250Y9305600D01*
G75*
G02*
X3775650Y9576000I270400J0D01*
G01*
X5086850Y9576000D01*
G75*
G02*
X5357250Y9305600I0J-270400D01*
G01*
X5357250Y8494400D01*
G75*
G02*
X5086850Y8224000I-270400J0D01*
G01*
G37*
G36*
G01*
X5086850Y11024000D02*
X3775650Y11024000D01*
G75*
G02*
X3505250Y11294400I0J270400D01*
G01*
X3505250Y12105600D01*
G75*
G02*
X3775650Y12376000I270400J0D01*
G01*
X5086850Y12376000D01*
G75*
G02*
X5357250Y12105600I0J-270400D01*
G01*
X5357250Y11294400D01*
G75*
G02*
X5086850Y11024000I-270400J0D01*
G01*
G37*
G36*
G01*
X2050250Y4824999D02*
X2050250Y5475001D01*
G75*
G02*
X2101249Y5526000I50999J0D01*
G01*
X3161251Y5526000D01*
G75*
G02*
X3212250Y5475001I0J-50999D01*
G01*
X3212250Y4824999D01*
G75*
G02*
X3161251Y4774000I-50999J0D01*
G01*
X2101249Y4774000D01*
G75*
G02*
X2050250Y4824999I0J50999D01*
G01*
G37*
G36*
G01*
X2050250Y5774999D02*
X2050250Y6425001D01*
G75*
G02*
X2101249Y6476000I50999J0D01*
G01*
X3161251Y6476000D01*
G75*
G02*
X3212250Y6425001I0J-50999D01*
G01*
X3212250Y5774999D01*
G75*
G02*
X3161251Y5724000I-50999J0D01*
G01*
X2101249Y5724000D01*
G75*
G02*
X2050250Y5774999I0J50999D01*
G01*
G37*
G36*
G01*
X2050250Y6724999D02*
X2050250Y7375001D01*
G75*
G02*
X2101249Y7426000I50999J0D01*
G01*
X3161251Y7426000D01*
G75*
G02*
X3212250Y7375001I0J-50999D01*
G01*
X3212250Y6724999D01*
G75*
G02*
X3161251Y6674000I-50999J0D01*
G01*
X2101249Y6674000D01*
G75*
G02*
X2050250Y6724999I0J50999D01*
G01*
G37*
G36*
G01*
X4250250Y6724999D02*
X4250250Y7375001D01*
G75*
G02*
X4301249Y7426000I50999J0D01*
G01*
X5361251Y7426000D01*
G75*
G02*
X5412250Y7375001I0J-50999D01*
G01*
X5412250Y6724999D01*
G75*
G02*
X5361251Y6674000I-50999J0D01*
G01*
X4301249Y6674000D01*
G75*
G02*
X4250250Y6724999I0J50999D01*
G01*
G37*
G36*
G01*
X4250250Y4824999D02*
X4250250Y5475001D01*
G75*
G02*
X4301249Y5526000I50999J0D01*
G01*
X5361251Y5526000D01*
G75*
G02*
X5412250Y5475001I0J-50999D01*
G01*
X5412250Y4824999D01*
G75*
G02*
X5361251Y4774000I-50999J0D01*
G01*
X4301249Y4774000D01*
G75*
G02*
X4250250Y4824999I0J50999D01*
G01*
G37*
G36*
G01*
X4250250Y5774999D02*
X4250250Y6425001D01*
G75*
G02*
X4301249Y6476000I50999J0D01*
G01*
X5361251Y6476000D01*
G75*
G02*
X5412250Y6425001I0J-50999D01*
G01*
X5412250Y5774999D01*
G75*
G02*
X5361251Y5724000I-50999J0D01*
G01*
X4301249Y5724000D01*
G75*
G02*
X4250250Y5774999I0J50999D01*
G01*
G37*
D14*
X-22595096Y5873654D03*
X-20968750Y5200000D03*
X-19342404Y5873654D03*
X-18668750Y7500000D03*
X-19342404Y9126346D03*
X-20968750Y9800000D03*
X-22595096Y9126346D03*
X-23268750Y7500000D03*
D15*
X-20968750Y7500000D03*
G36*
G01*
X7780250Y6199500D02*
X7780250Y8000500D01*
G75*
G02*
X7955750Y8176000I175500J0D01*
G01*
X8306750Y8176000D01*
G75*
G02*
X8482250Y8000500I0J-175500D01*
G01*
X8482250Y6199500D01*
G75*
G02*
X8306750Y6024000I-175500J0D01*
G01*
X7955750Y6024000D01*
G75*
G02*
X7780250Y6199500I0J175500D01*
G01*
G37*
G36*
G01*
X8780250Y6199500D02*
X8780250Y8000500D01*
G75*
G02*
X8955750Y8176000I175500J0D01*
G01*
X9306750Y8176000D01*
G75*
G02*
X9482250Y8000500I0J-175500D01*
G01*
X9482250Y6199500D01*
G75*
G02*
X9306750Y6024000I-175500J0D01*
G01*
X8955750Y6024000D01*
G75*
G02*
X8780250Y6199500I0J175500D01*
G01*
G37*
G36*
G01*
X9780250Y6199500D02*
X9780250Y8000500D01*
G75*
G02*
X9955750Y8176000I175500J0D01*
G01*
X10306750Y8176000D01*
G75*
G02*
X10482250Y8000500I0J-175500D01*
G01*
X10482250Y6199500D01*
G75*
G02*
X10306750Y6024000I-175500J0D01*
G01*
X9955750Y6024000D01*
G75*
G02*
X9780250Y6199500I0J175500D01*
G01*
G37*
G36*
G01*
X10780250Y6199500D02*
X10780250Y8000500D01*
G75*
G02*
X10955750Y8176000I175500J0D01*
G01*
X11306750Y8176000D01*
G75*
G02*
X11482250Y8000500I0J-175500D01*
G01*
X11482250Y6199500D01*
G75*
G02*
X11306750Y6024000I-175500J0D01*
G01*
X10955750Y6024000D01*
G75*
G02*
X10780250Y6199500I0J175500D01*
G01*
G37*
G36*
G01*
X5930250Y10607216D02*
X5930250Y11842784D01*
G75*
G02*
X6263466Y12176000I333216J0D01*
G01*
X7199034Y12176000D01*
G75*
G02*
X7532250Y11842784I0J-333216D01*
G01*
X7532250Y10607216D01*
G75*
G02*
X7199034Y10274000I-333216J0D01*
G01*
X6263466Y10274000D01*
G75*
G02*
X5930250Y10607216I0J333216D01*
G01*
G37*
G36*
G01*
X11730250Y10607216D02*
X11730250Y11842784D01*
G75*
G02*
X12063466Y12176000I333216J0D01*
G01*
X12999034Y12176000D01*
G75*
G02*
X13332250Y11842784I0J-333216D01*
G01*
X13332250Y10607216D01*
G75*
G02*
X12999034Y10274000I-333216J0D01*
G01*
X12063466Y10274000D01*
G75*
G02*
X11730250Y10607216I0J333216D01*
G01*
G37*
G36*
G01*
X-9700650Y6724000D02*
X-11011850Y6724000D01*
G75*
G02*
X-11282250Y6994400I0J270400D01*
G01*
X-11282250Y7805600D01*
G75*
G02*
X-11011850Y8076000I270400J0D01*
G01*
X-9700650Y8076000D01*
G75*
G02*
X-9430250Y7805600I0J-270400D01*
G01*
X-9430250Y6994400D01*
G75*
G02*
X-9700650Y6724000I-270400J0D01*
G01*
G37*
G36*
G01*
X-9700650Y3924000D02*
X-11011850Y3924000D01*
G75*
G02*
X-11282250Y4194400I0J270400D01*
G01*
X-11282250Y5005600D01*
G75*
G02*
X-11011850Y5276000I270400J0D01*
G01*
X-9700650Y5276000D01*
G75*
G02*
X-9430250Y5005600I0J-270400D01*
G01*
X-9430250Y4194400D01*
G75*
G02*
X-9700650Y3924000I-270400J0D01*
G01*
G37*
G36*
G01*
X-11574500Y10299000D02*
X-12138000Y10299000D01*
G75*
G02*
X-12382250Y10543250I0J244250D01*
G01*
X-12382250Y11031750D01*
G75*
G02*
X-12138000Y11276000I244250J0D01*
G01*
X-11574500Y11276000D01*
G75*
G02*
X-11330250Y11031750I0J-244250D01*
G01*
X-11330250Y10543250D01*
G75*
G02*
X-11574500Y10299000I-244250J0D01*
G01*
G37*
G36*
G01*
X-11574500Y8724000D02*
X-12138000Y8724000D01*
G75*
G02*
X-12382250Y8968250I0J244250D01*
G01*
X-12382250Y9456750D01*
G75*
G02*
X-12138000Y9701000I244250J0D01*
G01*
X-11574500Y9701000D01*
G75*
G02*
X-11330250Y9456750I0J-244250D01*
G01*
X-11330250Y8968250D01*
G75*
G02*
X-11574500Y8724000I-244250J0D01*
G01*
G37*
D10*
X-2000000Y-254000D03*
X-3270000Y-254000D03*
X-4540000Y-254000D03*
X-730000Y-254000D03*
X540000Y-254000D03*
D13*
X-1275000Y-8640000D03*
X-2975000Y-8640000D03*
X-2125000Y-8640000D03*
X-425000Y-8640000D03*
X425000Y-8640000D03*
X1275000Y-8640000D03*
X2125000Y-8640000D03*
X2975000Y-8640000D03*
X-2975000Y-7315000D03*
X-2120000Y-7315000D03*
X-1270000Y-7315000D03*
X-420000Y-7315000D03*
X430000Y-7315000D03*
X1280000Y-7315000D03*
X2130000Y-7315000D03*
X2980000Y-7315000D03*
D12*
X-4325000Y-7660000D03*
X4325000Y-7660000D03*
D11*
X-4325000Y-4280000D03*
X4325000Y-4280000D03*
G36*
G01*
X-15699000Y-8607216D02*
X-15699000Y-9842784D01*
G75*
G02*
X-16032216Y-10176000I-333216J0D01*
G01*
X-16967784Y-10176000D01*
G75*
G02*
X-17301000Y-9842784I0J333216D01*
G01*
X-17301000Y-8607216D01*
G75*
G02*
X-16967784Y-8274000I333216J0D01*
G01*
X-16032216Y-8274000D01*
G75*
G02*
X-15699000Y-8607216I0J-333216D01*
G01*
G37*
G36*
G01*
X-9899000Y-8607216D02*
X-9899000Y-9842784D01*
G75*
G02*
X-10232216Y-10176000I-333216J0D01*
G01*
X-11167784Y-10176000D01*
G75*
G02*
X-11501000Y-9842784I0J333216D01*
G01*
X-11501000Y-8607216D01*
G75*
G02*
X-11167784Y-8274000I333216J0D01*
G01*
X-10232216Y-8274000D01*
G75*
G02*
X-9899000Y-8607216I0J-333216D01*
G01*
G37*
G36*
G01*
X-14749000Y-4199500D02*
X-14749000Y-6000500D01*
G75*
G02*
X-14924500Y-6176000I-175500J0D01*
G01*
X-15275500Y-6176000D01*
G75*
G02*
X-15451000Y-6000500I0J175500D01*
G01*
X-15451000Y-4199500D01*
G75*
G02*
X-15275500Y-4024000I175500J0D01*
G01*
X-14924500Y-4024000D01*
G75*
G02*
X-14749000Y-4199500I0J-175500D01*
G01*
G37*
G36*
G01*
X-13749000Y-4199500D02*
X-13749000Y-6000500D01*
G75*
G02*
X-13924500Y-6176000I-175500J0D01*
G01*
X-14275500Y-6176000D01*
G75*
G02*
X-14451000Y-6000500I0J175500D01*
G01*
X-14451000Y-4199500D01*
G75*
G02*
X-14275500Y-4024000I175500J0D01*
G01*
X-13924500Y-4024000D01*
G75*
G02*
X-13749000Y-4199500I0J-175500D01*
G01*
G37*
G36*
G01*
X-12749000Y-4199500D02*
X-12749000Y-6000500D01*
G75*
G02*
X-12924500Y-6176000I-175500J0D01*
G01*
X-13275500Y-6176000D01*
G75*
G02*
X-13451000Y-6000500I0J175500D01*
G01*
X-13451000Y-4199500D01*
G75*
G02*
X-13275500Y-4024000I175500J0D01*
G01*
X-12924500Y-4024000D01*
G75*
G02*
X-12749000Y-4199500I0J-175500D01*
G01*
G37*
G36*
G01*
X-11749000Y-4199500D02*
X-11749000Y-6000500D01*
G75*
G02*
X-11924500Y-6176000I-175500J0D01*
G01*
X-12275500Y-6176000D01*
G75*
G02*
X-12451000Y-6000500I0J175500D01*
G01*
X-12451000Y-4199500D01*
G75*
G02*
X-12275500Y-4024000I175500J0D01*
G01*
X-11924500Y-4024000D01*
G75*
G02*
X-11749000Y-4199500I0J-175500D01*
G01*
G37*
G36*
G01*
X-8219000Y-3774999D02*
X-8219000Y-4425001D01*
G75*
G02*
X-8269999Y-4476000I-50999J0D01*
G01*
X-9330001Y-4476000D01*
G75*
G02*
X-9381000Y-4425001I0J50999D01*
G01*
X-9381000Y-3774999D01*
G75*
G02*
X-9330001Y-3724000I50999J0D01*
G01*
X-8269999Y-3724000D01*
G75*
G02*
X-8219000Y-3774999I0J-50999D01*
G01*
G37*
G36*
G01*
X-8219000Y-2824999D02*
X-8219000Y-3475001D01*
G75*
G02*
X-8269999Y-3526000I-50999J0D01*
G01*
X-9330001Y-3526000D01*
G75*
G02*
X-9381000Y-3475001I0J50999D01*
G01*
X-9381000Y-2824999D01*
G75*
G02*
X-9330001Y-2774000I50999J0D01*
G01*
X-8269999Y-2774000D01*
G75*
G02*
X-8219000Y-2824999I0J-50999D01*
G01*
G37*
G36*
G01*
X-8219000Y-4724999D02*
X-8219000Y-5375001D01*
G75*
G02*
X-8269999Y-5426000I-50999J0D01*
G01*
X-9330001Y-5426000D01*
G75*
G02*
X-9381000Y-5375001I0J50999D01*
G01*
X-9381000Y-4724999D01*
G75*
G02*
X-9330001Y-4674000I50999J0D01*
G01*
X-8269999Y-4674000D01*
G75*
G02*
X-8219000Y-4724999I0J-50999D01*
G01*
G37*
G36*
G01*
X-6019000Y-4724999D02*
X-6019000Y-5375001D01*
G75*
G02*
X-6069999Y-5426000I-50999J0D01*
G01*
X-7130001Y-5426000D01*
G75*
G02*
X-7181000Y-5375001I0J50999D01*
G01*
X-7181000Y-4724999D01*
G75*
G02*
X-7130001Y-4674000I50999J0D01*
G01*
X-6069999Y-4674000D01*
G75*
G02*
X-6019000Y-4724999I0J-50999D01*
G01*
G37*
G36*
G01*
X-6019000Y-3774999D02*
X-6019000Y-4425001D01*
G75*
G02*
X-6069999Y-4476000I-50999J0D01*
G01*
X-7130001Y-4476000D01*
G75*
G02*
X-7181000Y-4425001I0J50999D01*
G01*
X-7181000Y-3774999D01*
G75*
G02*
X-7130001Y-3724000I50999J0D01*
G01*
X-6069999Y-3724000D01*
G75*
G02*
X-6019000Y-3774999I0J-50999D01*
G01*
G37*
G36*
G01*
X-6019000Y-2824999D02*
X-6019000Y-3475001D01*
G75*
G02*
X-6069999Y-3526000I-50999J0D01*
G01*
X-7130001Y-3526000D01*
G75*
G02*
X-7181000Y-3475001I0J50999D01*
G01*
X-7181000Y-2824999D01*
G75*
G02*
X-7130001Y-2774000I50999J0D01*
G01*
X-6069999Y-2774000D01*
G75*
G02*
X-6019000Y-2824999I0J-50999D01*
G01*
G37*
G36*
G01*
X5731900Y-1924000D02*
X7043100Y-1924000D01*
G75*
G02*
X7313500Y-2194400I0J-270400D01*
G01*
X7313500Y-3005600D01*
G75*
G02*
X7043100Y-3276000I-270400J0D01*
G01*
X5731900Y-3276000D01*
G75*
G02*
X5461500Y-3005600I0J270400D01*
G01*
X5461500Y-2194400D01*
G75*
G02*
X5731900Y-1924000I270400J0D01*
G01*
G37*
G36*
G01*
X5731900Y-4724000D02*
X7043100Y-4724000D01*
G75*
G02*
X7313500Y-4994400I0J-270400D01*
G01*
X7313500Y-5805600D01*
G75*
G02*
X7043100Y-6076000I-270400J0D01*
G01*
X5731900Y-6076000D01*
G75*
G02*
X5461500Y-5805600I0J270400D01*
G01*
X5461500Y-4994400D01*
G75*
G02*
X5731900Y-4724000I270400J0D01*
G01*
G37*
G36*
G01*
X6105750Y-6724000D02*
X6669250Y-6724000D01*
G75*
G02*
X6913500Y-6968250I0J-244250D01*
G01*
X6913500Y-7456750D01*
G75*
G02*
X6669250Y-7701000I-244250J0D01*
G01*
X6105750Y-7701000D01*
G75*
G02*
X5861500Y-7456750I0J244250D01*
G01*
X5861500Y-6968250D01*
G75*
G02*
X6105750Y-6724000I244250J0D01*
G01*
G37*
G36*
G01*
X6105750Y-8299000D02*
X6669250Y-8299000D01*
G75*
G02*
X6913500Y-8543250I0J-244250D01*
G01*
X6913500Y-9031750D01*
G75*
G02*
X6669250Y-9276000I-244250J0D01*
G01*
X6105750Y-9276000D01*
G75*
G02*
X5861500Y-9031750I0J244250D01*
G01*
X5861500Y-8543250D01*
G75*
G02*
X6105750Y-8299000I244250J0D01*
G01*
G37*
G36*
G01*
X7605750Y-6724000D02*
X8169250Y-6724000D01*
G75*
G02*
X8413500Y-6968250I0J-244250D01*
G01*
X8413500Y-7456750D01*
G75*
G02*
X8169250Y-7701000I-244250J0D01*
G01*
X7605750Y-7701000D01*
G75*
G02*
X7361500Y-7456750I0J244250D01*
G01*
X7361500Y-6968250D01*
G75*
G02*
X7605750Y-6724000I244250J0D01*
G01*
G37*
G36*
G01*
X7605750Y-8299000D02*
X8169250Y-8299000D01*
G75*
G02*
X8413500Y-8543250I0J-244250D01*
G01*
X8413500Y-9031750D01*
G75*
G02*
X8169250Y-9276000I-244250J0D01*
G01*
X7605750Y-9276000D01*
G75*
G02*
X7361500Y-9031750I0J244250D01*
G01*
X7361500Y-8543250D01*
G75*
G02*
X7605750Y-8299000I244250J0D01*
G01*
G37*
D15*
X17000000Y-5500000D03*
D14*
X19300000Y-5500000D03*
X18626346Y-7126346D03*
X17000000Y-7800000D03*
X15373654Y-7126346D03*
X14700000Y-5500000D03*
X15373654Y-3873654D03*
X17000000Y-3200000D03*
X18626346Y-3873654D03*
G36*
G01*
X-9055600Y-9024000D02*
X-7744400Y-9024000D01*
G75*
G02*
X-7474000Y-9294400I0J-270400D01*
G01*
X-7474000Y-10105600D01*
G75*
G02*
X-7744400Y-10376000I-270400J0D01*
G01*
X-9055600Y-10376000D01*
G75*
G02*
X-9326000Y-10105600I0J270400D01*
G01*
X-9326000Y-9294400D01*
G75*
G02*
X-9055600Y-9024000I270400J0D01*
G01*
G37*
G36*
G01*
X-9055600Y-6224000D02*
X-7744400Y-6224000D01*
G75*
G02*
X-7474000Y-6494400I0J-270400D01*
G01*
X-7474000Y-7305600D01*
G75*
G02*
X-7744400Y-7576000I-270400J0D01*
G01*
X-9055600Y-7576000D01*
G75*
G02*
X-9326000Y-7305600I0J270400D01*
G01*
X-9326000Y-6494400D01*
G75*
G02*
X-9055600Y-6224000I270400J0D01*
G01*
G37*
G36*
G01*
X8118250Y-3936500D02*
X9081750Y-3936500D01*
G75*
G02*
X9351000Y-4205750I0J-269250D01*
G01*
X9351000Y-4744250D01*
G75*
G02*
X9081750Y-5013500I-269250J0D01*
G01*
X8118250Y-5013500D01*
G75*
G02*
X7849000Y-4744250I0J269250D01*
G01*
X7849000Y-4205750D01*
G75*
G02*
X8118250Y-3936500I269250J0D01*
G01*
G37*
G36*
G01*
X8118250Y-2061500D02*
X9081750Y-2061500D01*
G75*
G02*
X9351000Y-2330750I0J-269250D01*
G01*
X9351000Y-2869250D01*
G75*
G02*
X9081750Y-3138500I-269250J0D01*
G01*
X8118250Y-3138500D01*
G75*
G02*
X7849000Y-2869250I0J269250D01*
G01*
X7849000Y-2330750D01*
G75*
G02*
X8118250Y-2061500I269250J0D01*
G01*
G37*
D16*
G36*
X-17299010Y-9842588D02*
G01*
X-17292627Y-9907396D01*
X-17273778Y-9969531D01*
X-17243172Y-10026793D01*
X-17201982Y-10076982D01*
X-17151793Y-10118172D01*
X-17094531Y-10148778D01*
X-17032396Y-10167627D01*
X-16967588Y-10174010D01*
X-16965962Y-10175175D01*
X-16966158Y-10177165D01*
X-16967784Y-10178000D01*
X-17034644Y-10178000D01*
X-17034840Y-10177990D01*
X-17091629Y-10172397D01*
X-17092014Y-10172321D01*
X-17140712Y-10157548D01*
X-17141074Y-10157398D01*
X-17185960Y-10133406D01*
X-17186286Y-10133188D01*
X-17225626Y-10100903D01*
X-17225903Y-10100626D01*
X-17258188Y-10061286D01*
X-17258406Y-10060960D01*
X-17282398Y-10016074D01*
X-17282548Y-10015712D01*
X-17297321Y-9967014D01*
X-17297397Y-9966629D01*
X-17302990Y-9909840D01*
X-17303000Y-9909644D01*
X-17303000Y-9842784D01*
X-17302000Y-9841052D01*
X-17300000Y-9841052D01*
X-17299010Y-9842588D01*
G37*
G36*
X-9897835Y-9841158D02*
G01*
X-9897000Y-9842784D01*
X-9897000Y-9909644D01*
X-9897010Y-9909840D01*
X-9902603Y-9966629D01*
X-9902679Y-9967014D01*
X-9917452Y-10015712D01*
X-9917602Y-10016074D01*
X-9941594Y-10060960D01*
X-9941812Y-10061286D01*
X-9974097Y-10100626D01*
X-9974374Y-10100903D01*
X-10013714Y-10133188D01*
X-10014040Y-10133406D01*
X-10058926Y-10157398D01*
X-10059288Y-10157548D01*
X-10107986Y-10172321D01*
X-10108371Y-10172397D01*
X-10165160Y-10177990D01*
X-10165356Y-10178000D01*
X-10232216Y-10178000D01*
X-10233948Y-10177000D01*
X-10233948Y-10175000D01*
X-10232412Y-10174010D01*
X-10167604Y-10167627D01*
X-10105469Y-10148778D01*
X-10048207Y-10118172D01*
X-9998018Y-10076982D01*
X-9956828Y-10026793D01*
X-9926222Y-9969531D01*
X-9907373Y-9907396D01*
X-9900990Y-9842588D01*
X-9899825Y-9840962D01*
X-9897835Y-9841158D01*
G37*
G36*
X-11499010Y-9842588D02*
G01*
X-11492627Y-9907396D01*
X-11473778Y-9969531D01*
X-11443172Y-10026793D01*
X-11401982Y-10076982D01*
X-11351793Y-10118172D01*
X-11294531Y-10148778D01*
X-11232396Y-10167627D01*
X-11167588Y-10174010D01*
X-11165962Y-10175175D01*
X-11166158Y-10177165D01*
X-11167784Y-10178000D01*
X-11234644Y-10178000D01*
X-11234840Y-10177990D01*
X-11291629Y-10172397D01*
X-11292014Y-10172321D01*
X-11340712Y-10157548D01*
X-11341074Y-10157398D01*
X-11385960Y-10133406D01*
X-11386286Y-10133188D01*
X-11425626Y-10100903D01*
X-11425903Y-10100626D01*
X-11458188Y-10061286D01*
X-11458406Y-10060960D01*
X-11482398Y-10016074D01*
X-11482548Y-10015712D01*
X-11497321Y-9967014D01*
X-11497397Y-9966629D01*
X-11502990Y-9909840D01*
X-11503000Y-9909644D01*
X-11503000Y-9842784D01*
X-11502000Y-9841052D01*
X-11500000Y-9841052D01*
X-11499010Y-9842588D01*
G37*
G36*
X-15697835Y-9841158D02*
G01*
X-15697000Y-9842784D01*
X-15697000Y-9909644D01*
X-15697010Y-9909840D01*
X-15702603Y-9966629D01*
X-15702679Y-9967014D01*
X-15717452Y-10015712D01*
X-15717602Y-10016074D01*
X-15741594Y-10060960D01*
X-15741812Y-10061286D01*
X-15774097Y-10100626D01*
X-15774374Y-10100903D01*
X-15813714Y-10133188D01*
X-15814040Y-10133406D01*
X-15858926Y-10157398D01*
X-15859288Y-10157548D01*
X-15907986Y-10172321D01*
X-15908371Y-10172397D01*
X-15965160Y-10177990D01*
X-15965356Y-10178000D01*
X-16032216Y-10178000D01*
X-16033948Y-10177000D01*
X-16033948Y-10175000D01*
X-16032412Y-10174010D01*
X-15967604Y-10167627D01*
X-15905469Y-10148778D01*
X-15848207Y-10118172D01*
X-15798018Y-10076982D01*
X-15756828Y-10026793D01*
X-15726222Y-9969531D01*
X-15707373Y-9907396D01*
X-15700990Y-9842588D01*
X-15699825Y-9840962D01*
X-15697835Y-9841158D01*
G37*
G36*
X2451510Y-8451551D02*
G01*
X2463034Y-8465593D01*
X2481671Y-8480888D01*
X2502934Y-8492253D01*
X2526009Y-8499253D01*
X2550000Y-8501616D01*
X2573992Y-8499253D01*
X2597066Y-8492253D01*
X2618330Y-8480888D01*
X2636967Y-8465592D01*
X2648490Y-8451551D01*
X2650362Y-8450847D01*
X2651908Y-8452116D01*
X2651699Y-8453931D01*
X2645171Y-8463702D01*
X2617114Y-8531435D01*
X2602811Y-8603345D01*
X2602811Y-8676655D01*
X2617114Y-8748565D01*
X2645171Y-8816298D01*
X2651699Y-8826069D01*
X2651830Y-8828065D01*
X2650167Y-8829176D01*
X2648490Y-8828449D01*
X2636966Y-8814407D01*
X2618329Y-8799112D01*
X2597066Y-8787747D01*
X2573991Y-8780747D01*
X2550000Y-8778384D01*
X2526008Y-8780747D01*
X2502934Y-8787747D01*
X2481670Y-8799112D01*
X2463033Y-8814408D01*
X2451510Y-8828449D01*
X2449638Y-8829153D01*
X2448092Y-8827884D01*
X2448301Y-8826069D01*
X2454829Y-8816298D01*
X2482886Y-8748565D01*
X2497189Y-8676655D01*
X2497189Y-8603345D01*
X2482886Y-8531435D01*
X2454829Y-8463702D01*
X2448301Y-8453931D01*
X2448170Y-8451935D01*
X2449833Y-8450824D01*
X2451510Y-8451551D01*
G37*
G36*
X751510Y-8451551D02*
G01*
X763034Y-8465593D01*
X781671Y-8480888D01*
X802934Y-8492253D01*
X826009Y-8499253D01*
X850000Y-8501616D01*
X873992Y-8499253D01*
X897066Y-8492253D01*
X918330Y-8480888D01*
X936967Y-8465592D01*
X948490Y-8451551D01*
X950362Y-8450847D01*
X951908Y-8452116D01*
X951699Y-8453931D01*
X945171Y-8463702D01*
X917114Y-8531435D01*
X902811Y-8603345D01*
X902811Y-8676655D01*
X917114Y-8748565D01*
X945171Y-8816298D01*
X951699Y-8826069D01*
X951830Y-8828065D01*
X950167Y-8829176D01*
X948490Y-8828449D01*
X936966Y-8814407D01*
X918329Y-8799112D01*
X897066Y-8787747D01*
X873991Y-8780747D01*
X850000Y-8778384D01*
X826008Y-8780747D01*
X802934Y-8787747D01*
X781670Y-8799112D01*
X763033Y-8814408D01*
X751510Y-8828449D01*
X749638Y-8829153D01*
X748092Y-8827884D01*
X748301Y-8826069D01*
X754829Y-8816298D01*
X782886Y-8748565D01*
X797189Y-8676655D01*
X797189Y-8603345D01*
X782886Y-8531435D01*
X754829Y-8463702D01*
X748301Y-8453931D01*
X748170Y-8451935D01*
X749833Y-8450824D01*
X751510Y-8451551D01*
G37*
G36*
X1601510Y-8451551D02*
G01*
X1613034Y-8465593D01*
X1631671Y-8480888D01*
X1652934Y-8492253D01*
X1676009Y-8499253D01*
X1700000Y-8501616D01*
X1723992Y-8499253D01*
X1747066Y-8492253D01*
X1768330Y-8480888D01*
X1786967Y-8465592D01*
X1798490Y-8451551D01*
X1800362Y-8450847D01*
X1801908Y-8452116D01*
X1801699Y-8453931D01*
X1795171Y-8463702D01*
X1767114Y-8531435D01*
X1752811Y-8603345D01*
X1752811Y-8676655D01*
X1767114Y-8748565D01*
X1795171Y-8816298D01*
X1801699Y-8826069D01*
X1801830Y-8828065D01*
X1800167Y-8829176D01*
X1798490Y-8828449D01*
X1786966Y-8814407D01*
X1768329Y-8799112D01*
X1747066Y-8787747D01*
X1723991Y-8780747D01*
X1700000Y-8778384D01*
X1676008Y-8780747D01*
X1652934Y-8787747D01*
X1631670Y-8799112D01*
X1613033Y-8814408D01*
X1601510Y-8828449D01*
X1599638Y-8829153D01*
X1598092Y-8827884D01*
X1598301Y-8826069D01*
X1604829Y-8816298D01*
X1632886Y-8748565D01*
X1647189Y-8676655D01*
X1647189Y-8603345D01*
X1632886Y-8531435D01*
X1604829Y-8463702D01*
X1598301Y-8453931D01*
X1598170Y-8451935D01*
X1599833Y-8450824D01*
X1601510Y-8451551D01*
G37*
G36*
X-2648490Y-8451551D02*
G01*
X-2636966Y-8465593D01*
X-2618329Y-8480888D01*
X-2597066Y-8492253D01*
X-2573991Y-8499253D01*
X-2550000Y-8501616D01*
X-2526008Y-8499253D01*
X-2502934Y-8492253D01*
X-2481670Y-8480888D01*
X-2463033Y-8465592D01*
X-2451510Y-8451551D01*
X-2449638Y-8450847D01*
X-2448092Y-8452116D01*
X-2448301Y-8453931D01*
X-2454829Y-8463702D01*
X-2482886Y-8531435D01*
X-2497189Y-8603345D01*
X-2497189Y-8676655D01*
X-2482886Y-8748565D01*
X-2454829Y-8816298D01*
X-2448301Y-8826069D01*
X-2448170Y-8828065D01*
X-2449833Y-8829176D01*
X-2451510Y-8828449D01*
X-2463034Y-8814407D01*
X-2481671Y-8799112D01*
X-2502934Y-8787747D01*
X-2526009Y-8780747D01*
X-2550000Y-8778384D01*
X-2573992Y-8780747D01*
X-2597066Y-8787747D01*
X-2618330Y-8799112D01*
X-2636967Y-8814408D01*
X-2648490Y-8828449D01*
X-2650362Y-8829153D01*
X-2651908Y-8827884D01*
X-2651699Y-8826069D01*
X-2645171Y-8816298D01*
X-2617114Y-8748565D01*
X-2602811Y-8676655D01*
X-2602811Y-8603345D01*
X-2617114Y-8531435D01*
X-2645171Y-8463702D01*
X-2651699Y-8453931D01*
X-2651830Y-8451935D01*
X-2650167Y-8450824D01*
X-2648490Y-8451551D01*
G37*
G36*
X-1798490Y-8451551D02*
G01*
X-1786966Y-8465593D01*
X-1768329Y-8480888D01*
X-1747066Y-8492253D01*
X-1723991Y-8499253D01*
X-1700000Y-8501616D01*
X-1676008Y-8499253D01*
X-1652934Y-8492253D01*
X-1631670Y-8480888D01*
X-1613033Y-8465592D01*
X-1601510Y-8451551D01*
X-1599638Y-8450847D01*
X-1598092Y-8452116D01*
X-1598301Y-8453931D01*
X-1604829Y-8463702D01*
X-1632886Y-8531435D01*
X-1647189Y-8603345D01*
X-1647189Y-8676655D01*
X-1632886Y-8748565D01*
X-1604829Y-8816298D01*
X-1598301Y-8826069D01*
X-1598170Y-8828065D01*
X-1599833Y-8829176D01*
X-1601510Y-8828449D01*
X-1613034Y-8814407D01*
X-1631671Y-8799112D01*
X-1652934Y-8787747D01*
X-1676009Y-8780747D01*
X-1700000Y-8778384D01*
X-1723992Y-8780747D01*
X-1747066Y-8787747D01*
X-1768330Y-8799112D01*
X-1786967Y-8814408D01*
X-1798490Y-8828449D01*
X-1800362Y-8829153D01*
X-1801908Y-8827884D01*
X-1801699Y-8826069D01*
X-1795171Y-8816298D01*
X-1767114Y-8748565D01*
X-1752811Y-8676655D01*
X-1752811Y-8603345D01*
X-1767114Y-8531435D01*
X-1795171Y-8463702D01*
X-1801699Y-8453931D01*
X-1801830Y-8451935D01*
X-1800167Y-8450824D01*
X-1798490Y-8451551D01*
G37*
G36*
X-948490Y-8451551D02*
G01*
X-936966Y-8465593D01*
X-918329Y-8480888D01*
X-897066Y-8492253D01*
X-873991Y-8499253D01*
X-850000Y-8501616D01*
X-826008Y-8499253D01*
X-802934Y-8492253D01*
X-781670Y-8480888D01*
X-763033Y-8465592D01*
X-751510Y-8451551D01*
X-749638Y-8450847D01*
X-748092Y-8452116D01*
X-748301Y-8453931D01*
X-754829Y-8463702D01*
X-782886Y-8531435D01*
X-797189Y-8603345D01*
X-797189Y-8676655D01*
X-782886Y-8748565D01*
X-754829Y-8816298D01*
X-748301Y-8826069D01*
X-748170Y-8828065D01*
X-749833Y-8829176D01*
X-751510Y-8828449D01*
X-763034Y-8814407D01*
X-781671Y-8799112D01*
X-802934Y-8787747D01*
X-826009Y-8780747D01*
X-850000Y-8778384D01*
X-873992Y-8780747D01*
X-897066Y-8787747D01*
X-918330Y-8799112D01*
X-936967Y-8814408D01*
X-948490Y-8828449D01*
X-950362Y-8829153D01*
X-951908Y-8827884D01*
X-951699Y-8826069D01*
X-945171Y-8816298D01*
X-917114Y-8748565D01*
X-902811Y-8676655D01*
X-902811Y-8603345D01*
X-917114Y-8531435D01*
X-945171Y-8463702D01*
X-951699Y-8453931D01*
X-951830Y-8451935D01*
X-950167Y-8450824D01*
X-948490Y-8451551D01*
G37*
G36*
X-98490Y-8451551D02*
G01*
X-86966Y-8465593D01*
X-68329Y-8480888D01*
X-47066Y-8492253D01*
X-23991Y-8499253D01*
X0Y-8501616D01*
X23992Y-8499253D01*
X47066Y-8492253D01*
X68330Y-8480888D01*
X86967Y-8465592D01*
X98490Y-8451551D01*
X100362Y-8450847D01*
X101908Y-8452116D01*
X101699Y-8453931D01*
X95171Y-8463702D01*
X67114Y-8531435D01*
X52811Y-8603345D01*
X52811Y-8676655D01*
X67114Y-8748565D01*
X95171Y-8816298D01*
X101699Y-8826069D01*
X101830Y-8828065D01*
X100167Y-8829176D01*
X98490Y-8828449D01*
X86966Y-8814407D01*
X68329Y-8799112D01*
X47066Y-8787747D01*
X23991Y-8780747D01*
X0Y-8778384D01*
X-23992Y-8780747D01*
X-47066Y-8787747D01*
X-68330Y-8799112D01*
X-86967Y-8814408D01*
X-98490Y-8828449D01*
X-100362Y-8829153D01*
X-101908Y-8827884D01*
X-101699Y-8826069D01*
X-95171Y-8816298D01*
X-67114Y-8748565D01*
X-52811Y-8676655D01*
X-52811Y-8603345D01*
X-67114Y-8531435D01*
X-95171Y-8463702D01*
X-101699Y-8453931D01*
X-101830Y-8451935D01*
X-100167Y-8450824D01*
X-98490Y-8451551D01*
G37*
G36*
X-16966052Y-8273000D02*
G01*
X-16966052Y-8275000D01*
X-16967588Y-8275990D01*
X-17032396Y-8282373D01*
X-17094531Y-8301222D01*
X-17151793Y-8331828D01*
X-17201982Y-8373018D01*
X-17243172Y-8423207D01*
X-17273778Y-8480469D01*
X-17292627Y-8542604D01*
X-17299010Y-8607412D01*
X-17300175Y-8609038D01*
X-17302165Y-8608842D01*
X-17303000Y-8607216D01*
X-17303000Y-8540356D01*
X-17302990Y-8540160D01*
X-17297397Y-8483371D01*
X-17297321Y-8482986D01*
X-17282548Y-8434288D01*
X-17282398Y-8433926D01*
X-17258406Y-8389040D01*
X-17258188Y-8388714D01*
X-17225903Y-8349374D01*
X-17225626Y-8349097D01*
X-17186286Y-8316812D01*
X-17185960Y-8316594D01*
X-17141074Y-8292602D01*
X-17140712Y-8292452D01*
X-17092014Y-8277679D01*
X-17091629Y-8277603D01*
X-17034840Y-8272010D01*
X-17034644Y-8272000D01*
X-16967784Y-8272000D01*
X-16966052Y-8273000D01*
G37*
G36*
X-11166052Y-8273000D02*
G01*
X-11166052Y-8275000D01*
X-11167588Y-8275990D01*
X-11232396Y-8282373D01*
X-11294531Y-8301222D01*
X-11351793Y-8331828D01*
X-11401982Y-8373018D01*
X-11443172Y-8423207D01*
X-11473778Y-8480469D01*
X-11492627Y-8542604D01*
X-11499010Y-8607412D01*
X-11500175Y-8609038D01*
X-11502165Y-8608842D01*
X-11503000Y-8607216D01*
X-11503000Y-8540356D01*
X-11502990Y-8540160D01*
X-11497397Y-8483371D01*
X-11497321Y-8482986D01*
X-11482548Y-8434288D01*
X-11482398Y-8433926D01*
X-11458406Y-8389040D01*
X-11458188Y-8388714D01*
X-11425903Y-8349374D01*
X-11425626Y-8349097D01*
X-11386286Y-8316812D01*
X-11385960Y-8316594D01*
X-11341074Y-8292602D01*
X-11340712Y-8292452D01*
X-11292014Y-8277679D01*
X-11291629Y-8277603D01*
X-11234840Y-8272010D01*
X-11234644Y-8272000D01*
X-11167784Y-8272000D01*
X-11166052Y-8273000D01*
G37*
G36*
X-10165160Y-8272010D02*
G01*
X-10108371Y-8277603D01*
X-10107986Y-8277679D01*
X-10059288Y-8292452D01*
X-10058926Y-8292602D01*
X-10014040Y-8316594D01*
X-10013714Y-8316812D01*
X-9974374Y-8349097D01*
X-9974097Y-8349374D01*
X-9941812Y-8388714D01*
X-9941594Y-8389040D01*
X-9917602Y-8433926D01*
X-9917452Y-8434288D01*
X-9902679Y-8482986D01*
X-9902603Y-8483371D01*
X-9897010Y-8540160D01*
X-9897000Y-8540356D01*
X-9897000Y-8607216D01*
X-9898000Y-8608948D01*
X-9900000Y-8608948D01*
X-9900990Y-8607412D01*
X-9907373Y-8542604D01*
X-9926222Y-8480469D01*
X-9956828Y-8423207D01*
X-9998018Y-8373018D01*
X-10048207Y-8331828D01*
X-10105469Y-8301222D01*
X-10167604Y-8282373D01*
X-10232412Y-8275990D01*
X-10234038Y-8274825D01*
X-10233842Y-8272835D01*
X-10232216Y-8272000D01*
X-10165356Y-8272000D01*
X-10165160Y-8272010D01*
G37*
G36*
X-15965160Y-8272010D02*
G01*
X-15908371Y-8277603D01*
X-15907986Y-8277679D01*
X-15859288Y-8292452D01*
X-15858926Y-8292602D01*
X-15814040Y-8316594D01*
X-15813714Y-8316812D01*
X-15774374Y-8349097D01*
X-15774097Y-8349374D01*
X-15741812Y-8388714D01*
X-15741594Y-8389040D01*
X-15717602Y-8433926D01*
X-15717452Y-8434288D01*
X-15702679Y-8482986D01*
X-15702603Y-8483371D01*
X-15697010Y-8540160D01*
X-15697000Y-8540356D01*
X-15697000Y-8607216D01*
X-15698000Y-8608948D01*
X-15700000Y-8608948D01*
X-15700990Y-8607412D01*
X-15707373Y-8542604D01*
X-15726222Y-8480469D01*
X-15756828Y-8423207D01*
X-15798018Y-8373018D01*
X-15848207Y-8331828D01*
X-15905469Y-8301222D01*
X-15967604Y-8282373D01*
X-16032412Y-8275990D01*
X-16034038Y-8274825D01*
X-16033842Y-8272835D01*
X-16032216Y-8272000D01*
X-15965356Y-8272000D01*
X-15965160Y-8272010D01*
G37*
G36*
X-93490Y-7126551D02*
G01*
X-81966Y-7140593D01*
X-63329Y-7155888D01*
X-42066Y-7167253D01*
X-18991Y-7174253D01*
X5000Y-7176616D01*
X28992Y-7174253D01*
X52066Y-7167253D01*
X73330Y-7155888D01*
X91967Y-7140592D01*
X103490Y-7126551D01*
X105362Y-7125847D01*
X106908Y-7127116D01*
X106699Y-7128931D01*
X100171Y-7138702D01*
X72114Y-7206435D01*
X57811Y-7278345D01*
X57811Y-7351655D01*
X72114Y-7423565D01*
X100171Y-7491298D01*
X106699Y-7501069D01*
X106830Y-7503065D01*
X105167Y-7504176D01*
X103490Y-7503449D01*
X91966Y-7489407D01*
X73329Y-7474112D01*
X52066Y-7462747D01*
X28991Y-7455747D01*
X5000Y-7453384D01*
X-18992Y-7455747D01*
X-42066Y-7462747D01*
X-63330Y-7474112D01*
X-81967Y-7489408D01*
X-93490Y-7503449D01*
X-95362Y-7504153D01*
X-96908Y-7502884D01*
X-96699Y-7501069D01*
X-90171Y-7491298D01*
X-62114Y-7423565D01*
X-47811Y-7351655D01*
X-47811Y-7278345D01*
X-62114Y-7206435D01*
X-90171Y-7138702D01*
X-96699Y-7128931D01*
X-96830Y-7126935D01*
X-95167Y-7125824D01*
X-93490Y-7126551D01*
G37*
G36*
X-943490Y-7126551D02*
G01*
X-931966Y-7140593D01*
X-913329Y-7155888D01*
X-892066Y-7167253D01*
X-868991Y-7174253D01*
X-845000Y-7176616D01*
X-821008Y-7174253D01*
X-797934Y-7167253D01*
X-776670Y-7155888D01*
X-758033Y-7140592D01*
X-746510Y-7126551D01*
X-744638Y-7125847D01*
X-743092Y-7127116D01*
X-743301Y-7128931D01*
X-749829Y-7138702D01*
X-777886Y-7206435D01*
X-792189Y-7278345D01*
X-792189Y-7351655D01*
X-777886Y-7423565D01*
X-749829Y-7491298D01*
X-743301Y-7501069D01*
X-743170Y-7503065D01*
X-744833Y-7504176D01*
X-746510Y-7503449D01*
X-758034Y-7489407D01*
X-776671Y-7474112D01*
X-797934Y-7462747D01*
X-821009Y-7455747D01*
X-845000Y-7453384D01*
X-868992Y-7455747D01*
X-892066Y-7462747D01*
X-913330Y-7474112D01*
X-931967Y-7489408D01*
X-943490Y-7503449D01*
X-945362Y-7504153D01*
X-946908Y-7502884D01*
X-946699Y-7501069D01*
X-940171Y-7491298D01*
X-912114Y-7423565D01*
X-897811Y-7351655D01*
X-897811Y-7278345D01*
X-912114Y-7206435D01*
X-940171Y-7138702D01*
X-946699Y-7128931D01*
X-946830Y-7126935D01*
X-945167Y-7125824D01*
X-943490Y-7126551D01*
G37*
G36*
X2456510Y-7126551D02*
G01*
X2468034Y-7140593D01*
X2486671Y-7155888D01*
X2507934Y-7167253D01*
X2531009Y-7174253D01*
X2555000Y-7176616D01*
X2578992Y-7174253D01*
X2602066Y-7167253D01*
X2623330Y-7155888D01*
X2641967Y-7140592D01*
X2653490Y-7126551D01*
X2655362Y-7125847D01*
X2656908Y-7127116D01*
X2656699Y-7128931D01*
X2650171Y-7138702D01*
X2622114Y-7206435D01*
X2607811Y-7278345D01*
X2607811Y-7351655D01*
X2622114Y-7423565D01*
X2650171Y-7491298D01*
X2656699Y-7501069D01*
X2656830Y-7503065D01*
X2655167Y-7504176D01*
X2653490Y-7503449D01*
X2641966Y-7489407D01*
X2623329Y-7474112D01*
X2602066Y-7462747D01*
X2578991Y-7455747D01*
X2555000Y-7453384D01*
X2531008Y-7455747D01*
X2507934Y-7462747D01*
X2486670Y-7474112D01*
X2468033Y-7489408D01*
X2456510Y-7503449D01*
X2454638Y-7504153D01*
X2453092Y-7502884D01*
X2453301Y-7501069D01*
X2459829Y-7491298D01*
X2487886Y-7423565D01*
X2502189Y-7351655D01*
X2502189Y-7278345D01*
X2487886Y-7206435D01*
X2459829Y-7138702D01*
X2453301Y-7128931D01*
X2453170Y-7126935D01*
X2454833Y-7125824D01*
X2456510Y-7126551D01*
G37*
G36*
X-1793490Y-7126551D02*
G01*
X-1781966Y-7140593D01*
X-1763329Y-7155888D01*
X-1742066Y-7167253D01*
X-1718991Y-7174253D01*
X-1695000Y-7176616D01*
X-1671008Y-7174253D01*
X-1647934Y-7167253D01*
X-1626670Y-7155888D01*
X-1608033Y-7140592D01*
X-1596510Y-7126551D01*
X-1594638Y-7125847D01*
X-1593092Y-7127116D01*
X-1593301Y-7128931D01*
X-1599829Y-7138702D01*
X-1627886Y-7206435D01*
X-1642189Y-7278345D01*
X-1642189Y-7351655D01*
X-1627886Y-7423565D01*
X-1599829Y-7491298D01*
X-1593301Y-7501069D01*
X-1593170Y-7503065D01*
X-1594833Y-7504176D01*
X-1596510Y-7503449D01*
X-1608034Y-7489407D01*
X-1626671Y-7474112D01*
X-1647934Y-7462747D01*
X-1671009Y-7455747D01*
X-1695000Y-7453384D01*
X-1718992Y-7455747D01*
X-1742066Y-7462747D01*
X-1763330Y-7474112D01*
X-1781967Y-7489408D01*
X-1793490Y-7503449D01*
X-1795362Y-7504153D01*
X-1796908Y-7502884D01*
X-1796699Y-7501069D01*
X-1790171Y-7491298D01*
X-1762114Y-7423565D01*
X-1747811Y-7351655D01*
X-1747811Y-7278345D01*
X-1762114Y-7206435D01*
X-1790171Y-7138702D01*
X-1796699Y-7128931D01*
X-1796830Y-7126935D01*
X-1795167Y-7125824D01*
X-1793490Y-7126551D01*
G37*
G36*
X1606510Y-7126551D02*
G01*
X1618034Y-7140593D01*
X1636671Y-7155888D01*
X1657934Y-7167253D01*
X1681009Y-7174253D01*
X1705000Y-7176616D01*
X1728992Y-7174253D01*
X1752066Y-7167253D01*
X1773330Y-7155888D01*
X1791967Y-7140592D01*
X1803490Y-7126551D01*
X1805362Y-7125847D01*
X1806908Y-7127116D01*
X1806699Y-7128931D01*
X1800171Y-7138702D01*
X1772114Y-7206435D01*
X1757811Y-7278345D01*
X1757811Y-7351655D01*
X1772114Y-7423565D01*
X1800171Y-7491298D01*
X1806699Y-7501069D01*
X1806830Y-7503065D01*
X1805167Y-7504176D01*
X1803490Y-7503449D01*
X1791966Y-7489407D01*
X1773329Y-7474112D01*
X1752066Y-7462747D01*
X1728991Y-7455747D01*
X1705000Y-7453384D01*
X1681008Y-7455747D01*
X1657934Y-7462747D01*
X1636670Y-7474112D01*
X1618033Y-7489408D01*
X1606510Y-7503449D01*
X1604638Y-7504153D01*
X1603092Y-7502884D01*
X1603301Y-7501069D01*
X1609829Y-7491298D01*
X1637886Y-7423565D01*
X1652189Y-7351655D01*
X1652189Y-7278345D01*
X1637886Y-7206435D01*
X1609829Y-7138702D01*
X1603301Y-7128931D01*
X1603170Y-7126935D01*
X1604833Y-7125824D01*
X1606510Y-7126551D01*
G37*
G36*
X756510Y-7126551D02*
G01*
X768034Y-7140593D01*
X786671Y-7155888D01*
X807934Y-7167253D01*
X831009Y-7174253D01*
X855000Y-7176616D01*
X878992Y-7174253D01*
X902066Y-7167253D01*
X923330Y-7155888D01*
X941967Y-7140592D01*
X953490Y-7126551D01*
X955362Y-7125847D01*
X956908Y-7127116D01*
X956699Y-7128931D01*
X950171Y-7138702D01*
X922114Y-7206435D01*
X907811Y-7278345D01*
X907811Y-7351655D01*
X922114Y-7423565D01*
X950171Y-7491298D01*
X956699Y-7501069D01*
X956830Y-7503065D01*
X955167Y-7504176D01*
X953490Y-7503449D01*
X941966Y-7489407D01*
X923329Y-7474112D01*
X902066Y-7462747D01*
X878991Y-7455747D01*
X855000Y-7453384D01*
X831008Y-7455747D01*
X807934Y-7462747D01*
X786670Y-7474112D01*
X768033Y-7489408D01*
X756510Y-7503449D01*
X754638Y-7504153D01*
X753092Y-7502884D01*
X753301Y-7501069D01*
X759829Y-7491298D01*
X787886Y-7423565D01*
X802189Y-7351655D01*
X802189Y-7278345D01*
X787886Y-7206435D01*
X759829Y-7138702D01*
X753301Y-7128931D01*
X753170Y-7126935D01*
X754833Y-7125824D01*
X756510Y-7126551D01*
G37*
G36*
X-2645993Y-7130289D02*
G01*
X-2634466Y-7144334D01*
X-2615829Y-7159629D01*
X-2594565Y-7170994D01*
X-2571490Y-7177994D01*
X-2547499Y-7180357D01*
X-2523508Y-7177994D01*
X-2500433Y-7170994D01*
X-2479169Y-7159628D01*
X-2460533Y-7144333D01*
X-2449007Y-7130289D01*
X-2447135Y-7129585D01*
X-2445589Y-7130854D01*
X-2445798Y-7132669D01*
X-2449829Y-7138702D01*
X-2477886Y-7206435D01*
X-2492189Y-7278345D01*
X-2492189Y-7351655D01*
X-2477886Y-7423565D01*
X-2449829Y-7491298D01*
X-2445798Y-7497331D01*
X-2445667Y-7499327D01*
X-2447330Y-7500438D01*
X-2449007Y-7499711D01*
X-2460534Y-7485666D01*
X-2479171Y-7470371D01*
X-2500435Y-7459006D01*
X-2523510Y-7452006D01*
X-2547501Y-7449643D01*
X-2571492Y-7452006D01*
X-2594567Y-7459006D01*
X-2615831Y-7470372D01*
X-2634467Y-7485667D01*
X-2645993Y-7499711D01*
X-2647865Y-7500415D01*
X-2649411Y-7499146D01*
X-2649202Y-7497331D01*
X-2645171Y-7491298D01*
X-2617114Y-7423565D01*
X-2602811Y-7351655D01*
X-2602811Y-7278345D01*
X-2617114Y-7206435D01*
X-2645171Y-7138702D01*
X-2649202Y-7132669D01*
X-2649333Y-7130673D01*
X-2647670Y-7129562D01*
X-2645993Y-7130289D01*
G37*
G36*
X-6017268Y-4475000D02*
G01*
X-6017000Y-4476000D01*
X-6017000Y-4674000D01*
X-6018000Y-4675732D01*
X-6019000Y-4676000D01*
X-7181000Y-4676000D01*
X-7182732Y-4675000D01*
X-7183000Y-4674000D01*
X-7183000Y-4476000D01*
X-7182000Y-4474268D01*
X-7181000Y-4474000D01*
X-6019000Y-4474000D01*
X-6017268Y-4475000D01*
G37*
G36*
X-8217268Y-4475000D02*
G01*
X-8217000Y-4476000D01*
X-8217000Y-4674000D01*
X-8218000Y-4675732D01*
X-8219000Y-4676000D01*
X-9381000Y-4676000D01*
X-9382732Y-4675000D01*
X-9383000Y-4674000D01*
X-9383000Y-4476000D01*
X-9382000Y-4474268D01*
X-9381000Y-4474000D01*
X-8219000Y-4474000D01*
X-8217268Y-4475000D01*
G37*
G36*
X-6017268Y-3525000D02*
G01*
X-6017000Y-3526000D01*
X-6017000Y-3724000D01*
X-6018000Y-3725732D01*
X-6019000Y-3726000D01*
X-7181000Y-3726000D01*
X-7182732Y-3725000D01*
X-7183000Y-3724000D01*
X-7183000Y-3526000D01*
X-7182000Y-3524268D01*
X-7181000Y-3524000D01*
X-6019000Y-3524000D01*
X-6017268Y-3525000D01*
G37*
G36*
X-8217268Y-3525000D02*
G01*
X-8217000Y-3526000D01*
X-8217000Y-3724000D01*
X-8218000Y-3725732D01*
X-8219000Y-3726000D01*
X-9381000Y-3726000D01*
X-9382732Y-3725000D01*
X-9383000Y-3724000D01*
X-9383000Y-3526000D01*
X-9382000Y-3524268D01*
X-9381000Y-3524000D01*
X-8219000Y-3524000D01*
X-8217268Y-3525000D01*
G37*
G36*
X5413982Y5725000D02*
G01*
X5414250Y5724000D01*
X5414250Y5526000D01*
X5413250Y5524268D01*
X5412250Y5524000D01*
X4250250Y5524000D01*
X4248518Y5525000D01*
X4248250Y5526000D01*
X4248250Y5724000D01*
X4249250Y5725732D01*
X4250250Y5726000D01*
X5412250Y5726000D01*
X5413982Y5725000D01*
G37*
G36*
X3213982Y5725000D02*
G01*
X3214250Y5724000D01*
X3214250Y5526000D01*
X3213250Y5524268D01*
X3212250Y5524000D01*
X2050250Y5524000D01*
X2048518Y5525000D01*
X2048250Y5526000D01*
X2048250Y5724000D01*
X2049250Y5725732D01*
X2050250Y5726000D01*
X3212250Y5726000D01*
X3213982Y5725000D01*
G37*
G36*
X3213982Y6675000D02*
G01*
X3214250Y6674000D01*
X3214250Y6476000D01*
X3213250Y6474268D01*
X3212250Y6474000D01*
X2050250Y6474000D01*
X2048518Y6475000D01*
X2048250Y6476000D01*
X2048250Y6674000D01*
X2049250Y6675732D01*
X2050250Y6676000D01*
X3212250Y6676000D01*
X3213982Y6675000D01*
G37*
G36*
X5413982Y6675000D02*
G01*
X5414250Y6674000D01*
X5414250Y6476000D01*
X5413250Y6474268D01*
X5412250Y6474000D01*
X4250250Y6474000D01*
X4248518Y6475000D01*
X4248250Y6476000D01*
X4248250Y6674000D01*
X4249250Y6675732D01*
X4250250Y6676000D01*
X5412250Y6676000D01*
X5413982Y6675000D01*
G37*
G36*
X-3222240Y9503449D02*
G01*
X-3210716Y9489407D01*
X-3192079Y9474112D01*
X-3170816Y9462747D01*
X-3147741Y9455747D01*
X-3123750Y9453384D01*
X-3099758Y9455747D01*
X-3076684Y9462747D01*
X-3055420Y9474112D01*
X-3036783Y9489408D01*
X-3025260Y9503449D01*
X-3023388Y9504153D01*
X-3021842Y9502884D01*
X-3022051Y9501069D01*
X-3028579Y9491298D01*
X-3056636Y9423565D01*
X-3070939Y9351655D01*
X-3070939Y9278345D01*
X-3056636Y9206435D01*
X-3028579Y9138702D01*
X-3022051Y9128931D01*
X-3021920Y9126935D01*
X-3023583Y9125824D01*
X-3025260Y9126551D01*
X-3036784Y9140593D01*
X-3055421Y9155888D01*
X-3076684Y9167253D01*
X-3099759Y9174253D01*
X-3123750Y9176616D01*
X-3147742Y9174253D01*
X-3170816Y9167253D01*
X-3192080Y9155888D01*
X-3210717Y9140592D01*
X-3222240Y9126551D01*
X-3224112Y9125847D01*
X-3225658Y9127116D01*
X-3225449Y9128931D01*
X-3218921Y9138702D01*
X-3190864Y9206435D01*
X-3176561Y9278345D01*
X-3176561Y9351655D01*
X-3190864Y9423565D01*
X-3218921Y9491298D01*
X-3225449Y9501069D01*
X-3225580Y9503065D01*
X-3223917Y9504176D01*
X-3222240Y9503449D01*
G37*
G36*
X-4922240Y9503449D02*
G01*
X-4910716Y9489407D01*
X-4892079Y9474112D01*
X-4870816Y9462747D01*
X-4847741Y9455747D01*
X-4823750Y9453384D01*
X-4799758Y9455747D01*
X-4776684Y9462747D01*
X-4755420Y9474112D01*
X-4736783Y9489408D01*
X-4725260Y9503449D01*
X-4723388Y9504153D01*
X-4721842Y9502884D01*
X-4722051Y9501069D01*
X-4728579Y9491298D01*
X-4756636Y9423565D01*
X-4770939Y9351655D01*
X-4770939Y9278345D01*
X-4756636Y9206435D01*
X-4728579Y9138702D01*
X-4722051Y9128931D01*
X-4721920Y9126935D01*
X-4723583Y9125824D01*
X-4725260Y9126551D01*
X-4736784Y9140593D01*
X-4755421Y9155888D01*
X-4776684Y9167253D01*
X-4799759Y9174253D01*
X-4823750Y9176616D01*
X-4847742Y9174253D01*
X-4870816Y9167253D01*
X-4892080Y9155888D01*
X-4910717Y9140592D01*
X-4922240Y9126551D01*
X-4924112Y9125847D01*
X-4925658Y9127116D01*
X-4925449Y9128931D01*
X-4918921Y9138702D01*
X-4890864Y9206435D01*
X-4876561Y9278345D01*
X-4876561Y9351655D01*
X-4890864Y9423565D01*
X-4918921Y9491298D01*
X-4925449Y9501069D01*
X-4925580Y9503065D01*
X-4923917Y9504176D01*
X-4922240Y9503449D01*
G37*
G36*
X-5772240Y9503449D02*
G01*
X-5760716Y9489407D01*
X-5742079Y9474112D01*
X-5720816Y9462747D01*
X-5697741Y9455747D01*
X-5673750Y9453384D01*
X-5649758Y9455747D01*
X-5626684Y9462747D01*
X-5605420Y9474112D01*
X-5586783Y9489408D01*
X-5575260Y9503449D01*
X-5573388Y9504153D01*
X-5571842Y9502884D01*
X-5572051Y9501069D01*
X-5578579Y9491298D01*
X-5606636Y9423565D01*
X-5620939Y9351655D01*
X-5620939Y9278345D01*
X-5606636Y9206435D01*
X-5578579Y9138702D01*
X-5572051Y9128931D01*
X-5571920Y9126935D01*
X-5573583Y9125824D01*
X-5575260Y9126551D01*
X-5586784Y9140593D01*
X-5605421Y9155888D01*
X-5626684Y9167253D01*
X-5649759Y9174253D01*
X-5673750Y9176616D01*
X-5697742Y9174253D01*
X-5720816Y9167253D01*
X-5742080Y9155888D01*
X-5760717Y9140592D01*
X-5772240Y9126551D01*
X-5774112Y9125847D01*
X-5775658Y9127116D01*
X-5775449Y9128931D01*
X-5768921Y9138702D01*
X-5740864Y9206435D01*
X-5726561Y9278345D01*
X-5726561Y9351655D01*
X-5740864Y9423565D01*
X-5768921Y9491298D01*
X-5775449Y9501069D01*
X-5775580Y9503065D01*
X-5773917Y9504176D01*
X-5772240Y9503449D01*
G37*
G36*
X-6622240Y9503449D02*
G01*
X-6610716Y9489407D01*
X-6592079Y9474112D01*
X-6570816Y9462747D01*
X-6547741Y9455747D01*
X-6523750Y9453384D01*
X-6499758Y9455747D01*
X-6476684Y9462747D01*
X-6455420Y9474112D01*
X-6436783Y9489408D01*
X-6425260Y9503449D01*
X-6423388Y9504153D01*
X-6421842Y9502884D01*
X-6422051Y9501069D01*
X-6428579Y9491298D01*
X-6456636Y9423565D01*
X-6470939Y9351655D01*
X-6470939Y9278345D01*
X-6456636Y9206435D01*
X-6428579Y9138702D01*
X-6422051Y9128931D01*
X-6421920Y9126935D01*
X-6423583Y9125824D01*
X-6425260Y9126551D01*
X-6436784Y9140593D01*
X-6455421Y9155888D01*
X-6476684Y9167253D01*
X-6499759Y9174253D01*
X-6523750Y9176616D01*
X-6547742Y9174253D01*
X-6570816Y9167253D01*
X-6592080Y9155888D01*
X-6610717Y9140592D01*
X-6622240Y9126551D01*
X-6624112Y9125847D01*
X-6625658Y9127116D01*
X-6625449Y9128931D01*
X-6618921Y9138702D01*
X-6590864Y9206435D01*
X-6576561Y9278345D01*
X-6576561Y9351655D01*
X-6590864Y9423565D01*
X-6618921Y9491298D01*
X-6625449Y9501069D01*
X-6625580Y9503065D01*
X-6623917Y9504176D01*
X-6622240Y9503449D01*
G37*
G36*
X-4072240Y9503449D02*
G01*
X-4060716Y9489407D01*
X-4042079Y9474112D01*
X-4020816Y9462747D01*
X-3997741Y9455747D01*
X-3973750Y9453384D01*
X-3949758Y9455747D01*
X-3926684Y9462747D01*
X-3905420Y9474112D01*
X-3886783Y9489408D01*
X-3875260Y9503449D01*
X-3873388Y9504153D01*
X-3871842Y9502884D01*
X-3872051Y9501069D01*
X-3878579Y9491298D01*
X-3906636Y9423565D01*
X-3920939Y9351655D01*
X-3920939Y9278345D01*
X-3906636Y9206435D01*
X-3878579Y9138702D01*
X-3872051Y9128931D01*
X-3871920Y9126935D01*
X-3873583Y9125824D01*
X-3875260Y9126551D01*
X-3886784Y9140593D01*
X-3905421Y9155888D01*
X-3926684Y9167253D01*
X-3949759Y9174253D01*
X-3973750Y9176616D01*
X-3997742Y9174253D01*
X-4020816Y9167253D01*
X-4042080Y9155888D01*
X-4060717Y9140592D01*
X-4072240Y9126551D01*
X-4074112Y9125847D01*
X-4075658Y9127116D01*
X-4075449Y9128931D01*
X-4068921Y9138702D01*
X-4040864Y9206435D01*
X-4026561Y9278345D01*
X-4026561Y9351655D01*
X-4040864Y9423565D01*
X-4068921Y9491298D01*
X-4075449Y9501069D01*
X-4075580Y9503065D01*
X-4073917Y9504176D01*
X-4072240Y9503449D01*
G37*
G36*
X-2372240Y9503449D02*
G01*
X-2360716Y9489407D01*
X-2342079Y9474112D01*
X-2320816Y9462747D01*
X-2297741Y9455747D01*
X-2273750Y9453384D01*
X-2249758Y9455747D01*
X-2226684Y9462747D01*
X-2205420Y9474112D01*
X-2186783Y9489408D01*
X-2175260Y9503449D01*
X-2173388Y9504153D01*
X-2171842Y9502884D01*
X-2172051Y9501069D01*
X-2178579Y9491298D01*
X-2206636Y9423565D01*
X-2220939Y9351655D01*
X-2220939Y9278345D01*
X-2206636Y9206435D01*
X-2178579Y9138702D01*
X-2172051Y9128931D01*
X-2171920Y9126935D01*
X-2173583Y9125824D01*
X-2175260Y9126551D01*
X-2186784Y9140593D01*
X-2205421Y9155888D01*
X-2226684Y9167253D01*
X-2249759Y9174253D01*
X-2273750Y9176616D01*
X-2297742Y9174253D01*
X-2320816Y9167253D01*
X-2342080Y9155888D01*
X-2360717Y9140592D01*
X-2372240Y9126551D01*
X-2374112Y9125847D01*
X-2375658Y9127116D01*
X-2375449Y9128931D01*
X-2368921Y9138702D01*
X-2340864Y9206435D01*
X-2326561Y9278345D01*
X-2326561Y9351655D01*
X-2340864Y9423565D01*
X-2368921Y9491298D01*
X-2375449Y9501069D01*
X-2375580Y9503065D01*
X-2373917Y9504176D01*
X-2372240Y9503449D01*
G37*
G36*
X-1519743Y9499711D02*
G01*
X-1508216Y9485666D01*
X-1489579Y9470371D01*
X-1468315Y9459006D01*
X-1445240Y9452006D01*
X-1421249Y9449643D01*
X-1397258Y9452006D01*
X-1374183Y9459006D01*
X-1352919Y9470372D01*
X-1334283Y9485667D01*
X-1322757Y9499711D01*
X-1320885Y9500415D01*
X-1319339Y9499146D01*
X-1319548Y9497331D01*
X-1323579Y9491298D01*
X-1351636Y9423565D01*
X-1365939Y9351655D01*
X-1365939Y9278345D01*
X-1351636Y9206435D01*
X-1323579Y9138702D01*
X-1319548Y9132669D01*
X-1319417Y9130673D01*
X-1321080Y9129562D01*
X-1322757Y9130289D01*
X-1334284Y9144334D01*
X-1352921Y9159629D01*
X-1374185Y9170994D01*
X-1397260Y9177994D01*
X-1421251Y9180357D01*
X-1445242Y9177994D01*
X-1468317Y9170994D01*
X-1489581Y9159628D01*
X-1508217Y9144333D01*
X-1519743Y9130289D01*
X-1521615Y9129585D01*
X-1523161Y9130854D01*
X-1522952Y9132669D01*
X-1518921Y9138702D01*
X-1490864Y9206435D01*
X-1476561Y9278345D01*
X-1476561Y9351655D01*
X-1490864Y9423565D01*
X-1518921Y9491298D01*
X-1522952Y9497331D01*
X-1523083Y9499327D01*
X-1521420Y9500438D01*
X-1519743Y9499711D01*
G37*
G36*
X13333415Y10608842D02*
G01*
X13334250Y10607216D01*
X13334250Y10540356D01*
X13334240Y10540160D01*
X13328647Y10483371D01*
X13328571Y10482986D01*
X13313798Y10434288D01*
X13313648Y10433926D01*
X13289656Y10389040D01*
X13289438Y10388714D01*
X13257153Y10349374D01*
X13256876Y10349097D01*
X13217536Y10316812D01*
X13217210Y10316594D01*
X13172324Y10292602D01*
X13171962Y10292452D01*
X13123264Y10277679D01*
X13122879Y10277603D01*
X13066090Y10272010D01*
X13065894Y10272000D01*
X12999034Y10272000D01*
X12997302Y10273000D01*
X12997302Y10275000D01*
X12998838Y10275990D01*
X13063646Y10282373D01*
X13125781Y10301222D01*
X13183043Y10331828D01*
X13233232Y10373018D01*
X13274422Y10423207D01*
X13305028Y10480469D01*
X13323877Y10542604D01*
X13330260Y10607412D01*
X13331425Y10609038D01*
X13333415Y10608842D01*
G37*
G36*
X11732240Y10607412D02*
G01*
X11738623Y10542604D01*
X11757472Y10480469D01*
X11788078Y10423207D01*
X11829268Y10373018D01*
X11879457Y10331828D01*
X11936719Y10301222D01*
X11998854Y10282373D01*
X12063662Y10275990D01*
X12065288Y10274825D01*
X12065092Y10272835D01*
X12063466Y10272000D01*
X11996606Y10272000D01*
X11996410Y10272010D01*
X11939621Y10277603D01*
X11939236Y10277679D01*
X11890538Y10292452D01*
X11890176Y10292602D01*
X11845290Y10316594D01*
X11844964Y10316812D01*
X11805624Y10349097D01*
X11805347Y10349374D01*
X11773062Y10388714D01*
X11772844Y10389040D01*
X11748852Y10433926D01*
X11748702Y10434288D01*
X11733929Y10482986D01*
X11733853Y10483371D01*
X11728260Y10540160D01*
X11728250Y10540356D01*
X11728250Y10607216D01*
X11729250Y10608948D01*
X11731250Y10608948D01*
X11732240Y10607412D01*
G37*
G36*
X5932240Y10607412D02*
G01*
X5938623Y10542604D01*
X5957472Y10480469D01*
X5988078Y10423207D01*
X6029268Y10373018D01*
X6079457Y10331828D01*
X6136719Y10301222D01*
X6198854Y10282373D01*
X6263662Y10275990D01*
X6265288Y10274825D01*
X6265092Y10272835D01*
X6263466Y10272000D01*
X6196606Y10272000D01*
X6196410Y10272010D01*
X6139621Y10277603D01*
X6139236Y10277679D01*
X6090538Y10292452D01*
X6090176Y10292602D01*
X6045290Y10316594D01*
X6044964Y10316812D01*
X6005624Y10349097D01*
X6005347Y10349374D01*
X5973062Y10388714D01*
X5972844Y10389040D01*
X5948852Y10433926D01*
X5948702Y10434288D01*
X5933929Y10482986D01*
X5933853Y10483371D01*
X5928260Y10540160D01*
X5928250Y10540356D01*
X5928250Y10607216D01*
X5929250Y10608948D01*
X5931250Y10608948D01*
X5932240Y10607412D01*
G37*
G36*
X7533415Y10608842D02*
G01*
X7534250Y10607216D01*
X7534250Y10540356D01*
X7534240Y10540160D01*
X7528647Y10483371D01*
X7528571Y10482986D01*
X7513798Y10434288D01*
X7513648Y10433926D01*
X7489656Y10389040D01*
X7489438Y10388714D01*
X7457153Y10349374D01*
X7456876Y10349097D01*
X7417536Y10316812D01*
X7417210Y10316594D01*
X7372324Y10292602D01*
X7371962Y10292452D01*
X7323264Y10277679D01*
X7322879Y10277603D01*
X7266090Y10272010D01*
X7265894Y10272000D01*
X7199034Y10272000D01*
X7197302Y10273000D01*
X7197302Y10275000D01*
X7198838Y10275990D01*
X7263646Y10282373D01*
X7325781Y10301222D01*
X7383043Y10331828D01*
X7433232Y10373018D01*
X7474422Y10423207D01*
X7505028Y10480469D01*
X7523877Y10542604D01*
X7530260Y10607412D01*
X7531425Y10609038D01*
X7533415Y10608842D01*
G37*
G36*
X-3217240Y10828449D02*
G01*
X-3205716Y10814407D01*
X-3187079Y10799112D01*
X-3165816Y10787747D01*
X-3142741Y10780747D01*
X-3118750Y10778384D01*
X-3094758Y10780747D01*
X-3071684Y10787747D01*
X-3050420Y10799112D01*
X-3031783Y10814408D01*
X-3020260Y10828449D01*
X-3018388Y10829153D01*
X-3016842Y10827884D01*
X-3017051Y10826069D01*
X-3023579Y10816298D01*
X-3051636Y10748565D01*
X-3065939Y10676655D01*
X-3065939Y10603345D01*
X-3051636Y10531435D01*
X-3023579Y10463702D01*
X-3017051Y10453931D01*
X-3016920Y10451935D01*
X-3018583Y10450824D01*
X-3020260Y10451551D01*
X-3031784Y10465593D01*
X-3050421Y10480888D01*
X-3071684Y10492253D01*
X-3094759Y10499253D01*
X-3118750Y10501616D01*
X-3142742Y10499253D01*
X-3165816Y10492253D01*
X-3187080Y10480888D01*
X-3205717Y10465592D01*
X-3217240Y10451551D01*
X-3219112Y10450847D01*
X-3220658Y10452116D01*
X-3220449Y10453931D01*
X-3213921Y10463702D01*
X-3185864Y10531435D01*
X-3171561Y10603345D01*
X-3171561Y10676655D01*
X-3185864Y10748565D01*
X-3213921Y10816298D01*
X-3220449Y10826069D01*
X-3220580Y10828065D01*
X-3218917Y10829176D01*
X-3217240Y10828449D01*
G37*
G36*
X-6617240Y10828449D02*
G01*
X-6605716Y10814407D01*
X-6587079Y10799112D01*
X-6565816Y10787747D01*
X-6542741Y10780747D01*
X-6518750Y10778384D01*
X-6494758Y10780747D01*
X-6471684Y10787747D01*
X-6450420Y10799112D01*
X-6431783Y10814408D01*
X-6420260Y10828449D01*
X-6418388Y10829153D01*
X-6416842Y10827884D01*
X-6417051Y10826069D01*
X-6423579Y10816298D01*
X-6451636Y10748565D01*
X-6465939Y10676655D01*
X-6465939Y10603345D01*
X-6451636Y10531435D01*
X-6423579Y10463702D01*
X-6417051Y10453931D01*
X-6416920Y10451935D01*
X-6418583Y10450824D01*
X-6420260Y10451551D01*
X-6431784Y10465593D01*
X-6450421Y10480888D01*
X-6471684Y10492253D01*
X-6494759Y10499253D01*
X-6518750Y10501616D01*
X-6542742Y10499253D01*
X-6565816Y10492253D01*
X-6587080Y10480888D01*
X-6605717Y10465592D01*
X-6617240Y10451551D01*
X-6619112Y10450847D01*
X-6620658Y10452116D01*
X-6620449Y10453931D01*
X-6613921Y10463702D01*
X-6585864Y10531435D01*
X-6571561Y10603345D01*
X-6571561Y10676655D01*
X-6585864Y10748565D01*
X-6613921Y10816298D01*
X-6620449Y10826069D01*
X-6620580Y10828065D01*
X-6618917Y10829176D01*
X-6617240Y10828449D01*
G37*
G36*
X-2367240Y10828449D02*
G01*
X-2355716Y10814407D01*
X-2337079Y10799112D01*
X-2315816Y10787747D01*
X-2292741Y10780747D01*
X-2268750Y10778384D01*
X-2244758Y10780747D01*
X-2221684Y10787747D01*
X-2200420Y10799112D01*
X-2181783Y10814408D01*
X-2170260Y10828449D01*
X-2168388Y10829153D01*
X-2166842Y10827884D01*
X-2167051Y10826069D01*
X-2173579Y10816298D01*
X-2201636Y10748565D01*
X-2215939Y10676655D01*
X-2215939Y10603345D01*
X-2201636Y10531435D01*
X-2173579Y10463702D01*
X-2167051Y10453931D01*
X-2166920Y10451935D01*
X-2168583Y10450824D01*
X-2170260Y10451551D01*
X-2181784Y10465593D01*
X-2200421Y10480888D01*
X-2221684Y10492253D01*
X-2244759Y10499253D01*
X-2268750Y10501616D01*
X-2292742Y10499253D01*
X-2315816Y10492253D01*
X-2337080Y10480888D01*
X-2355717Y10465592D01*
X-2367240Y10451551D01*
X-2369112Y10450847D01*
X-2370658Y10452116D01*
X-2370449Y10453931D01*
X-2363921Y10463702D01*
X-2335864Y10531435D01*
X-2321561Y10603345D01*
X-2321561Y10676655D01*
X-2335864Y10748565D01*
X-2363921Y10816298D01*
X-2370449Y10826069D01*
X-2370580Y10828065D01*
X-2368917Y10829176D01*
X-2367240Y10828449D01*
G37*
G36*
X-4917240Y10828449D02*
G01*
X-4905716Y10814407D01*
X-4887079Y10799112D01*
X-4865816Y10787747D01*
X-4842741Y10780747D01*
X-4818750Y10778384D01*
X-4794758Y10780747D01*
X-4771684Y10787747D01*
X-4750420Y10799112D01*
X-4731783Y10814408D01*
X-4720260Y10828449D01*
X-4718388Y10829153D01*
X-4716842Y10827884D01*
X-4717051Y10826069D01*
X-4723579Y10816298D01*
X-4751636Y10748565D01*
X-4765939Y10676655D01*
X-4765939Y10603345D01*
X-4751636Y10531435D01*
X-4723579Y10463702D01*
X-4717051Y10453931D01*
X-4716920Y10451935D01*
X-4718583Y10450824D01*
X-4720260Y10451551D01*
X-4731784Y10465593D01*
X-4750421Y10480888D01*
X-4771684Y10492253D01*
X-4794759Y10499253D01*
X-4818750Y10501616D01*
X-4842742Y10499253D01*
X-4865816Y10492253D01*
X-4887080Y10480888D01*
X-4905717Y10465592D01*
X-4917240Y10451551D01*
X-4919112Y10450847D01*
X-4920658Y10452116D01*
X-4920449Y10453931D01*
X-4913921Y10463702D01*
X-4885864Y10531435D01*
X-4871561Y10603345D01*
X-4871561Y10676655D01*
X-4885864Y10748565D01*
X-4913921Y10816298D01*
X-4920449Y10826069D01*
X-4920580Y10828065D01*
X-4918917Y10829176D01*
X-4917240Y10828449D01*
G37*
G36*
X-1517240Y10828449D02*
G01*
X-1505716Y10814407D01*
X-1487079Y10799112D01*
X-1465816Y10787747D01*
X-1442741Y10780747D01*
X-1418750Y10778384D01*
X-1394758Y10780747D01*
X-1371684Y10787747D01*
X-1350420Y10799112D01*
X-1331783Y10814408D01*
X-1320260Y10828449D01*
X-1318388Y10829153D01*
X-1316842Y10827884D01*
X-1317051Y10826069D01*
X-1323579Y10816298D01*
X-1351636Y10748565D01*
X-1365939Y10676655D01*
X-1365939Y10603345D01*
X-1351636Y10531435D01*
X-1323579Y10463702D01*
X-1317051Y10453931D01*
X-1316920Y10451935D01*
X-1318583Y10450824D01*
X-1320260Y10451551D01*
X-1331784Y10465593D01*
X-1350421Y10480888D01*
X-1371684Y10492253D01*
X-1394759Y10499253D01*
X-1418750Y10501616D01*
X-1442742Y10499253D01*
X-1465816Y10492253D01*
X-1487080Y10480888D01*
X-1505717Y10465592D01*
X-1517240Y10451551D01*
X-1519112Y10450847D01*
X-1520658Y10452116D01*
X-1520449Y10453931D01*
X-1513921Y10463702D01*
X-1485864Y10531435D01*
X-1471561Y10603345D01*
X-1471561Y10676655D01*
X-1485864Y10748565D01*
X-1513921Y10816298D01*
X-1520449Y10826069D01*
X-1520580Y10828065D01*
X-1518917Y10829176D01*
X-1517240Y10828449D01*
G37*
G36*
X-4067240Y10828449D02*
G01*
X-4055716Y10814407D01*
X-4037079Y10799112D01*
X-4015816Y10787747D01*
X-3992741Y10780747D01*
X-3968750Y10778384D01*
X-3944758Y10780747D01*
X-3921684Y10787747D01*
X-3900420Y10799112D01*
X-3881783Y10814408D01*
X-3870260Y10828449D01*
X-3868388Y10829153D01*
X-3866842Y10827884D01*
X-3867051Y10826069D01*
X-3873579Y10816298D01*
X-3901636Y10748565D01*
X-3915939Y10676655D01*
X-3915939Y10603345D01*
X-3901636Y10531435D01*
X-3873579Y10463702D01*
X-3867051Y10453931D01*
X-3866920Y10451935D01*
X-3868583Y10450824D01*
X-3870260Y10451551D01*
X-3881784Y10465593D01*
X-3900421Y10480888D01*
X-3921684Y10492253D01*
X-3944759Y10499253D01*
X-3968750Y10501616D01*
X-3992742Y10499253D01*
X-4015816Y10492253D01*
X-4037080Y10480888D01*
X-4055717Y10465592D01*
X-4067240Y10451551D01*
X-4069112Y10450847D01*
X-4070658Y10452116D01*
X-4070449Y10453931D01*
X-4063921Y10463702D01*
X-4035864Y10531435D01*
X-4021561Y10603345D01*
X-4021561Y10676655D01*
X-4035864Y10748565D01*
X-4063921Y10816298D01*
X-4070449Y10826069D01*
X-4070580Y10828065D01*
X-4068917Y10829176D01*
X-4067240Y10828449D01*
G37*
G36*
X-5767240Y10828449D02*
G01*
X-5755716Y10814407D01*
X-5737079Y10799112D01*
X-5715816Y10787747D01*
X-5692741Y10780747D01*
X-5668750Y10778384D01*
X-5644758Y10780747D01*
X-5621684Y10787747D01*
X-5600420Y10799112D01*
X-5581783Y10814408D01*
X-5570260Y10828449D01*
X-5568388Y10829153D01*
X-5566842Y10827884D01*
X-5567051Y10826069D01*
X-5573579Y10816298D01*
X-5601636Y10748565D01*
X-5615939Y10676655D01*
X-5615939Y10603345D01*
X-5601636Y10531435D01*
X-5573579Y10463702D01*
X-5567051Y10453931D01*
X-5566920Y10451935D01*
X-5568583Y10450824D01*
X-5570260Y10451551D01*
X-5581784Y10465593D01*
X-5600421Y10480888D01*
X-5621684Y10492253D01*
X-5644759Y10499253D01*
X-5668750Y10501616D01*
X-5692742Y10499253D01*
X-5715816Y10492253D01*
X-5737080Y10480888D01*
X-5755717Y10465592D01*
X-5767240Y10451551D01*
X-5769112Y10450847D01*
X-5770658Y10452116D01*
X-5770449Y10453931D01*
X-5763921Y10463702D01*
X-5735864Y10531435D01*
X-5721561Y10603345D01*
X-5721561Y10676655D01*
X-5735864Y10748565D01*
X-5763921Y10816298D01*
X-5770449Y10826069D01*
X-5770580Y10828065D01*
X-5768917Y10829176D01*
X-5767240Y10828449D01*
G37*
G36*
X6265198Y12177000D02*
G01*
X6265198Y12175000D01*
X6263662Y12174010D01*
X6198854Y12167627D01*
X6136719Y12148778D01*
X6079457Y12118172D01*
X6029268Y12076982D01*
X5988078Y12026793D01*
X5957472Y11969531D01*
X5938623Y11907396D01*
X5932240Y11842588D01*
X5931075Y11840962D01*
X5929085Y11841158D01*
X5928250Y11842784D01*
X5928250Y11909644D01*
X5928260Y11909840D01*
X5933853Y11966629D01*
X5933929Y11967014D01*
X5948702Y12015712D01*
X5948852Y12016074D01*
X5972844Y12060960D01*
X5973062Y12061286D01*
X6005347Y12100626D01*
X6005624Y12100903D01*
X6044964Y12133188D01*
X6045290Y12133406D01*
X6090176Y12157398D01*
X6090538Y12157548D01*
X6139236Y12172321D01*
X6139621Y12172397D01*
X6196410Y12177990D01*
X6196606Y12178000D01*
X6263466Y12178000D01*
X6265198Y12177000D01*
G37*
G36*
X12065198Y12177000D02*
G01*
X12065198Y12175000D01*
X12063662Y12174010D01*
X11998854Y12167627D01*
X11936719Y12148778D01*
X11879457Y12118172D01*
X11829268Y12076982D01*
X11788078Y12026793D01*
X11757472Y11969531D01*
X11738623Y11907396D01*
X11732240Y11842588D01*
X11731075Y11840962D01*
X11729085Y11841158D01*
X11728250Y11842784D01*
X11728250Y11909644D01*
X11728260Y11909840D01*
X11733853Y11966629D01*
X11733929Y11967014D01*
X11748702Y12015712D01*
X11748852Y12016074D01*
X11772844Y12060960D01*
X11773062Y12061286D01*
X11805347Y12100626D01*
X11805624Y12100903D01*
X11844964Y12133188D01*
X11845290Y12133406D01*
X11890176Y12157398D01*
X11890538Y12157548D01*
X11939236Y12172321D01*
X11939621Y12172397D01*
X11996410Y12177990D01*
X11996606Y12178000D01*
X12063466Y12178000D01*
X12065198Y12177000D01*
G37*
G36*
X7266090Y12177990D02*
G01*
X7322879Y12172397D01*
X7323264Y12172321D01*
X7371962Y12157548D01*
X7372324Y12157398D01*
X7417210Y12133406D01*
X7417536Y12133188D01*
X7456876Y12100903D01*
X7457153Y12100626D01*
X7489438Y12061286D01*
X7489656Y12060960D01*
X7513648Y12016074D01*
X7513798Y12015712D01*
X7528571Y11967014D01*
X7528647Y11966629D01*
X7534240Y11909840D01*
X7534250Y11909644D01*
X7534250Y11842784D01*
X7533250Y11841052D01*
X7531250Y11841052D01*
X7530260Y11842588D01*
X7523877Y11907396D01*
X7505028Y11969531D01*
X7474422Y12026793D01*
X7433232Y12076982D01*
X7383043Y12118172D01*
X7325781Y12148778D01*
X7263646Y12167627D01*
X7198838Y12174010D01*
X7197212Y12175175D01*
X7197408Y12177165D01*
X7199034Y12178000D01*
X7265894Y12178000D01*
X7266090Y12177990D01*
G37*
G36*
X13066090Y12177990D02*
G01*
X13122879Y12172397D01*
X13123264Y12172321D01*
X13171962Y12157548D01*
X13172324Y12157398D01*
X13217210Y12133406D01*
X13217536Y12133188D01*
X13256876Y12100903D01*
X13257153Y12100626D01*
X13289438Y12061286D01*
X13289656Y12060960D01*
X13313648Y12016074D01*
X13313798Y12015712D01*
X13328571Y11967014D01*
X13328647Y11966629D01*
X13334240Y11909840D01*
X13334250Y11909644D01*
X13334250Y11842784D01*
X13333250Y11841052D01*
X13331250Y11841052D01*
X13330260Y11842588D01*
X13323877Y11907396D01*
X13305028Y11969531D01*
X13274422Y12026793D01*
X13233232Y12076982D01*
X13183043Y12118172D01*
X13125781Y12148778D01*
X13063646Y12167627D01*
X12998838Y12174010D01*
X12997212Y12175175D01*
X12997408Y12177165D01*
X12999034Y12178000D01*
X13065894Y12178000D01*
X13066090Y12177990D01*
G37*
M02*
