M48
; DRILL file {KiCad (5.1.10)-1} date 08/18/21 11:57:55
; FORMAT={-:-/ absolute / inch / decimal}
; #@! TF.CreationDate,2021-08-18T11:57:55+08:00
; #@! TF.GenerationSoftware,Kicad,Pcbnew,(5.1.10)-1
; #@! TF.FileFunction,Plated,1,2,PTH
FMAT,2
INCH
T1C0.0157
T2C0.0197
T3C0.0236
T4C0.1260
%
G90
G05
T1
X-0.6457Y-0.2008
X-0.5945Y-0.122
X-0.5945Y-0.2795
X-0.4921Y-0.1299
X-0.3976Y-0.1299
X-0.33Y-0.33
X-0.1171Y-0.288
X-0.1171Y-0.3402
X-0.0837Y-0.3402
X-0.0835Y-0.288
X-0.0502Y-0.3402
X-0.05Y-0.288
X-0.0167Y-0.3402
X-0.0165Y-0.288
X0.0167Y-0.3402
X0.0169Y-0.288
X0.0502Y-0.3402
X0.0504Y-0.288
X0.0515Y-0.3985
X0.0837Y-0.3402
X0.0839Y-0.288
X0.1171Y-0.3402
X0.1173Y-0.288
T2
X-0.9173Y-0.2165
X-0.8908Y-0.1525
X-0.8908Y-0.2806
X-0.8268Y-0.126
X-0.8268Y-0.3071
X-0.7627Y-0.1525
X-0.7627Y-0.2806
X-0.7362Y-0.2165
X0.5787Y-0.2165
X0.6053Y-0.1525
X0.6053Y-0.2806
X0.6693Y-0.126
X0.6693Y-0.3071
X0.7333Y-0.1525
X0.7333Y-0.2806
X0.7598Y-0.2165
T4
X-0.8268Y-0.2165
X0.6693Y-0.2165
T3
G00X-0.1703Y-0.1528
M15
G01X-0.1703Y-0.1843
M16
G05
G00X-0.1703Y-0.272
M15
G01X-0.1703Y-0.3311
M16
G05
G00X0.1703Y-0.1528
M15
G01X0.1703Y-0.1843
M16
G05
G00X0.1703Y-0.272
M15
G01X0.1703Y-0.3311
M16
G05
T0
M30
