G04 #@! TF.GenerationSoftware,KiCad,Pcbnew,(5.1.10)-1*
G04 #@! TF.CreationDate,2021-08-18T11:57:54+08:00*
G04 #@! TF.ProjectId,dboard,64626f61-7264-42e6-9b69-6361645f7063,rev?*
G04 #@! TF.SameCoordinates,Original*
G04 #@! TF.FileFunction,Copper,L2,Bot*
G04 #@! TF.FilePolarity,Positive*
%FSLAX46Y46*%
G04 Gerber Fmt 4.6, Leading zero omitted, Abs format (unit mm)*
G04 Created by KiCad (PCBNEW (5.1.10)-1) date 2021-08-18 11:57:54*
%MOMM*%
%LPD*%
G01*
G04 APERTURE LIST*
G04 #@! TA.AperFunction,ComponentPad*
%ADD10C,0.650000*%
G04 #@! TD*
G04 #@! TA.AperFunction,ComponentPad*
%ADD11O,0.900000X2.400000*%
G04 #@! TD*
G04 #@! TA.AperFunction,ComponentPad*
%ADD12O,0.900000X1.700000*%
G04 #@! TD*
G04 #@! TA.AperFunction,SMDPad,CuDef*
%ADD13R,1.060000X0.650000*%
G04 #@! TD*
G04 #@! TA.AperFunction,ComponentPad*
%ADD14C,6.000000*%
G04 #@! TD*
G04 #@! TA.AperFunction,ComponentPad*
%ADD15C,0.800000*%
G04 #@! TD*
G04 #@! TA.AperFunction,ViaPad*
%ADD16C,0.800000*%
G04 #@! TD*
G04 #@! TA.AperFunction,Conductor*
%ADD17C,0.400000*%
G04 #@! TD*
G04 #@! TA.AperFunction,Conductor*
%ADD18C,2.000000*%
G04 #@! TD*
G04 #@! TA.AperFunction,Conductor*
%ADD19C,0.600000*%
G04 #@! TD*
G04 #@! TA.AperFunction,Conductor*
%ADD20C,0.200000*%
G04 #@! TD*
G04 #@! TA.AperFunction,Conductor*
%ADD21C,0.100000*%
G04 #@! TD*
G04 APERTURE END LIST*
D10*
X-1275000Y-8640000D03*
X-2975000Y-8640000D03*
X-2125000Y-8640000D03*
X-425000Y-8640000D03*
X425000Y-8640000D03*
X1275000Y-8640000D03*
X2125000Y-8640000D03*
X2975000Y-8640000D03*
X-2975000Y-7315000D03*
X-2120000Y-7315000D03*
X-1270000Y-7315000D03*
X-420000Y-7315000D03*
X430000Y-7315000D03*
X1280000Y-7315000D03*
X2130000Y-7315000D03*
X2980000Y-7315000D03*
D11*
X-4325000Y-7660000D03*
X4325000Y-7660000D03*
D12*
X-4325000Y-4280000D03*
X4325000Y-4280000D03*
G04 #@! TA.AperFunction,SMDPad,CuDef*
G36*
G01*
X-15750000Y-8637000D02*
X-15750000Y-9813000D01*
G75*
G02*
X-16062000Y-10125000I-312000J0D01*
G01*
X-16938000Y-10125000D01*
G75*
G02*
X-17250000Y-9813000I0J312000D01*
G01*
X-17250000Y-8637000D01*
G75*
G02*
X-16938000Y-8325000I312000J0D01*
G01*
X-16062000Y-8325000D01*
G75*
G02*
X-15750000Y-8637000I0J-312000D01*
G01*
G37*
G04 #@! TD.AperFunction*
G04 #@! TA.AperFunction,SMDPad,CuDef*
G36*
G01*
X-9950000Y-8637000D02*
X-9950000Y-9813000D01*
G75*
G02*
X-10262000Y-10125000I-312000J0D01*
G01*
X-11138000Y-10125000D01*
G75*
G02*
X-11450000Y-9813000I0J312000D01*
G01*
X-11450000Y-8637000D01*
G75*
G02*
X-11138000Y-8325000I312000J0D01*
G01*
X-10262000Y-8325000D01*
G75*
G02*
X-9950000Y-8637000I0J-312000D01*
G01*
G37*
G04 #@! TD.AperFunction*
G04 #@! TA.AperFunction,SMDPad,CuDef*
G36*
G01*
X-14800000Y-4225000D02*
X-14800000Y-5975000D01*
G75*
G02*
X-14950000Y-6125000I-150000J0D01*
G01*
X-15250000Y-6125000D01*
G75*
G02*
X-15400000Y-5975000I0J150000D01*
G01*
X-15400000Y-4225000D01*
G75*
G02*
X-15250000Y-4075000I150000J0D01*
G01*
X-14950000Y-4075000D01*
G75*
G02*
X-14800000Y-4225000I0J-150000D01*
G01*
G37*
G04 #@! TD.AperFunction*
G04 #@! TA.AperFunction,SMDPad,CuDef*
G36*
G01*
X-13800000Y-4225000D02*
X-13800000Y-5975000D01*
G75*
G02*
X-13950000Y-6125000I-150000J0D01*
G01*
X-14250000Y-6125000D01*
G75*
G02*
X-14400000Y-5975000I0J150000D01*
G01*
X-14400000Y-4225000D01*
G75*
G02*
X-14250000Y-4075000I150000J0D01*
G01*
X-13950000Y-4075000D01*
G75*
G02*
X-13800000Y-4225000I0J-150000D01*
G01*
G37*
G04 #@! TD.AperFunction*
G04 #@! TA.AperFunction,SMDPad,CuDef*
G36*
G01*
X-12800000Y-4225000D02*
X-12800000Y-5975000D01*
G75*
G02*
X-12950000Y-6125000I-150000J0D01*
G01*
X-13250000Y-6125000D01*
G75*
G02*
X-13400000Y-5975000I0J150000D01*
G01*
X-13400000Y-4225000D01*
G75*
G02*
X-13250000Y-4075000I150000J0D01*
G01*
X-12950000Y-4075000D01*
G75*
G02*
X-12800000Y-4225000I0J-150000D01*
G01*
G37*
G04 #@! TD.AperFunction*
G04 #@! TA.AperFunction,SMDPad,CuDef*
G36*
G01*
X-11800000Y-4225000D02*
X-11800000Y-5975000D01*
G75*
G02*
X-11950000Y-6125000I-150000J0D01*
G01*
X-12250000Y-6125000D01*
G75*
G02*
X-12400000Y-5975000I0J150000D01*
G01*
X-12400000Y-4225000D01*
G75*
G02*
X-12250000Y-4075000I150000J0D01*
G01*
X-11950000Y-4075000D01*
G75*
G02*
X-11800000Y-4225000I0J-150000D01*
G01*
G37*
G04 #@! TD.AperFunction*
D13*
X-8800000Y-4100000D03*
X-8800000Y-3150000D03*
X-8800000Y-5050000D03*
X-6600000Y-5050000D03*
X-6600000Y-4100000D03*
X-6600000Y-3150000D03*
G04 #@! TA.AperFunction,SMDPad,CuDef*
G36*
G01*
X5762500Y-1975000D02*
X7012500Y-1975000D01*
G75*
G02*
X7262500Y-2225000I0J-250000D01*
G01*
X7262500Y-2975000D01*
G75*
G02*
X7012500Y-3225000I-250000J0D01*
G01*
X5762500Y-3225000D01*
G75*
G02*
X5512500Y-2975000I0J250000D01*
G01*
X5512500Y-2225000D01*
G75*
G02*
X5762500Y-1975000I250000J0D01*
G01*
G37*
G04 #@! TD.AperFunction*
G04 #@! TA.AperFunction,SMDPad,CuDef*
G36*
G01*
X5762500Y-4775000D02*
X7012500Y-4775000D01*
G75*
G02*
X7262500Y-5025000I0J-250000D01*
G01*
X7262500Y-5775000D01*
G75*
G02*
X7012500Y-6025000I-250000J0D01*
G01*
X5762500Y-6025000D01*
G75*
G02*
X5512500Y-5775000I0J250000D01*
G01*
X5512500Y-5025000D01*
G75*
G02*
X5762500Y-4775000I250000J0D01*
G01*
G37*
G04 #@! TD.AperFunction*
G04 #@! TA.AperFunction,SMDPad,CuDef*
G36*
G01*
X6131250Y-6775000D02*
X6643750Y-6775000D01*
G75*
G02*
X6862500Y-6993750I0J-218750D01*
G01*
X6862500Y-7431250D01*
G75*
G02*
X6643750Y-7650000I-218750J0D01*
G01*
X6131250Y-7650000D01*
G75*
G02*
X5912500Y-7431250I0J218750D01*
G01*
X5912500Y-6993750D01*
G75*
G02*
X6131250Y-6775000I218750J0D01*
G01*
G37*
G04 #@! TD.AperFunction*
G04 #@! TA.AperFunction,SMDPad,CuDef*
G36*
G01*
X6131250Y-8350000D02*
X6643750Y-8350000D01*
G75*
G02*
X6862500Y-8568750I0J-218750D01*
G01*
X6862500Y-9006250D01*
G75*
G02*
X6643750Y-9225000I-218750J0D01*
G01*
X6131250Y-9225000D01*
G75*
G02*
X5912500Y-9006250I0J218750D01*
G01*
X5912500Y-8568750D01*
G75*
G02*
X6131250Y-8350000I218750J0D01*
G01*
G37*
G04 #@! TD.AperFunction*
G04 #@! TA.AperFunction,SMDPad,CuDef*
G36*
G01*
X7631250Y-6775000D02*
X8143750Y-6775000D01*
G75*
G02*
X8362500Y-6993750I0J-218750D01*
G01*
X8362500Y-7431250D01*
G75*
G02*
X8143750Y-7650000I-218750J0D01*
G01*
X7631250Y-7650000D01*
G75*
G02*
X7412500Y-7431250I0J218750D01*
G01*
X7412500Y-6993750D01*
G75*
G02*
X7631250Y-6775000I218750J0D01*
G01*
G37*
G04 #@! TD.AperFunction*
G04 #@! TA.AperFunction,SMDPad,CuDef*
G36*
G01*
X7631250Y-8350000D02*
X8143750Y-8350000D01*
G75*
G02*
X8362500Y-8568750I0J-218750D01*
G01*
X8362500Y-9006250D01*
G75*
G02*
X8143750Y-9225000I-218750J0D01*
G01*
X7631250Y-9225000D01*
G75*
G02*
X7412500Y-9006250I0J218750D01*
G01*
X7412500Y-8568750D01*
G75*
G02*
X7631250Y-8350000I218750J0D01*
G01*
G37*
G04 #@! TD.AperFunction*
D14*
X17000000Y-5500000D03*
D15*
X19300000Y-5500000D03*
X18626346Y-7126346D03*
X17000000Y-7800000D03*
X15373654Y-7126346D03*
X14700000Y-5500000D03*
X15373654Y-3873654D03*
X17000000Y-3200000D03*
X18626346Y-3873654D03*
D14*
X-21000000Y-5500000D03*
D15*
X-18700000Y-5500000D03*
X-19373654Y-7126346D03*
X-21000000Y-7800000D03*
X-22626346Y-7126346D03*
X-23300000Y-5500000D03*
X-22626346Y-3873654D03*
X-21000000Y-3200000D03*
X-19373654Y-3873654D03*
G04 #@! TA.AperFunction,SMDPad,CuDef*
G36*
G01*
X-9025000Y-9075000D02*
X-7775000Y-9075000D01*
G75*
G02*
X-7525000Y-9325000I0J-250000D01*
G01*
X-7525000Y-10075000D01*
G75*
G02*
X-7775000Y-10325000I-250000J0D01*
G01*
X-9025000Y-10325000D01*
G75*
G02*
X-9275000Y-10075000I0J250000D01*
G01*
X-9275000Y-9325000D01*
G75*
G02*
X-9025000Y-9075000I250000J0D01*
G01*
G37*
G04 #@! TD.AperFunction*
G04 #@! TA.AperFunction,SMDPad,CuDef*
G36*
G01*
X-9025000Y-6275000D02*
X-7775000Y-6275000D01*
G75*
G02*
X-7525000Y-6525000I0J-250000D01*
G01*
X-7525000Y-7275000D01*
G75*
G02*
X-7775000Y-7525000I-250000J0D01*
G01*
X-9025000Y-7525000D01*
G75*
G02*
X-9275000Y-7275000I0J250000D01*
G01*
X-9275000Y-6525000D01*
G75*
G02*
X-9025000Y-6275000I250000J0D01*
G01*
G37*
G04 #@! TD.AperFunction*
G04 #@! TA.AperFunction,SMDPad,CuDef*
G36*
G01*
X8143750Y-3987500D02*
X9056250Y-3987500D01*
G75*
G02*
X9300000Y-4231250I0J-243750D01*
G01*
X9300000Y-4718750D01*
G75*
G02*
X9056250Y-4962500I-243750J0D01*
G01*
X8143750Y-4962500D01*
G75*
G02*
X7900000Y-4718750I0J243750D01*
G01*
X7900000Y-4231250D01*
G75*
G02*
X8143750Y-3987500I243750J0D01*
G01*
G37*
G04 #@! TD.AperFunction*
G04 #@! TA.AperFunction,SMDPad,CuDef*
G36*
G01*
X8143750Y-2112500D02*
X9056250Y-2112500D01*
G75*
G02*
X9300000Y-2356250I0J-243750D01*
G01*
X9300000Y-2843750D01*
G75*
G02*
X9056250Y-3087500I-243750J0D01*
G01*
X8143750Y-3087500D01*
G75*
G02*
X7900000Y-2843750I0J243750D01*
G01*
X7900000Y-2356250D01*
G75*
G02*
X8143750Y-2112500I243750J0D01*
G01*
G37*
G04 #@! TD.AperFunction*
D16*
X-10100000Y-3300000D03*
X-12500000Y-3300000D03*
X-15100000Y-7100000D03*
X-15100000Y-3100000D03*
X-16400000Y-5100000D03*
X-8382000Y-8382000D03*
X1307716Y-10122285D03*
D17*
X6387500Y-7212500D02*
X7887500Y-7212500D01*
X6387500Y-5400000D02*
X6387500Y-7212500D01*
X-15100000Y-3100000D02*
X-15100000Y-1500000D01*
X-7200000Y-1500000D02*
X-5500000Y-1500000D01*
X-5500000Y-3600000D02*
X-5500000Y-1500000D01*
X-5500000Y-3600000D02*
X-5502407Y-3649008D01*
X-5502407Y-3649008D02*
X-5509607Y-3697545D01*
X-5509607Y-3697545D02*
X-5521529Y-3745142D01*
X-5521529Y-3745142D02*
X-5538060Y-3791341D01*
X-5538060Y-3791341D02*
X-5559039Y-3835698D01*
X-5559039Y-3835698D02*
X-5584265Y-3877785D01*
X-5584265Y-3877785D02*
X-5613494Y-3917196D01*
X-5613494Y-3917196D02*
X-5646446Y-3953553D01*
X-5646446Y-3953553D02*
X-5682803Y-3986505D01*
X-5682803Y-3986505D02*
X-5722214Y-4015734D01*
X-5722214Y-4015734D02*
X-5764301Y-4040960D01*
X-5764301Y-4040960D02*
X-5808658Y-4061939D01*
X-5808658Y-4061939D02*
X-5854857Y-4078470D01*
X-5854857Y-4078470D02*
X-5902454Y-4090392D01*
X-5902454Y-4090392D02*
X-5950991Y-4097592D01*
X-5950991Y-4097592D02*
X-6000000Y-4100000D01*
X-5500000Y-4600000D02*
X-5500000Y-9300000D01*
X-5500000Y-4600000D02*
X-5502407Y-4550991D01*
X-5502407Y-4550991D02*
X-5509607Y-4502454D01*
X-5509607Y-4502454D02*
X-5521529Y-4454857D01*
X-5521529Y-4454857D02*
X-5538060Y-4408658D01*
X-5538060Y-4408658D02*
X-5559039Y-4364301D01*
X-5559039Y-4364301D02*
X-5584265Y-4322214D01*
X-5584265Y-4322214D02*
X-5613494Y-4282803D01*
X-5613494Y-4282803D02*
X-5646446Y-4246446D01*
X-5646446Y-4246446D02*
X-5682803Y-4213494D01*
X-5682803Y-4213494D02*
X-5722214Y-4184265D01*
X-5722214Y-4184265D02*
X-5764301Y-4159039D01*
X-5764301Y-4159039D02*
X-5808658Y-4138060D01*
X-5808658Y-4138060D02*
X-5854857Y-4121529D01*
X-5854857Y-4121529D02*
X-5902454Y-4109607D01*
X-5902454Y-4109607D02*
X-5950991Y-4102407D01*
X-5950991Y-4102407D02*
X-6000000Y-4100000D01*
X-6000000Y-4100000D02*
X-6600000Y-4100000D01*
X8170342Y-4904657D02*
X8600000Y-4475000D01*
X8170342Y-4904657D02*
X8137658Y-4938984D01*
X8137658Y-4938984D02*
X8106699Y-4974875D01*
X8106699Y-4974875D02*
X8077538Y-5012241D01*
X8077538Y-5012241D02*
X8050246Y-5050993D01*
X8050246Y-5050993D02*
X8024888Y-5091038D01*
X8024888Y-5091038D02*
X8001526Y-5132278D01*
X8001526Y-5132278D02*
X7980215Y-5174616D01*
X7980215Y-5174616D02*
X7961007Y-5217948D01*
X7961007Y-5217948D02*
X7943949Y-5262170D01*
X7943949Y-5262170D02*
X7929081Y-5307176D01*
X7929081Y-5307176D02*
X7916439Y-5352857D01*
X7916439Y-5352857D02*
X7906054Y-5399104D01*
X7906054Y-5399104D02*
X7897951Y-5445804D01*
X7897951Y-5445804D02*
X7892149Y-5492846D01*
X7892149Y-5492846D02*
X7888662Y-5540116D01*
X7888662Y-5540116D02*
X7887500Y-5587500D01*
X7887500Y-5587500D02*
X7887500Y-7212500D01*
X-15100000Y-3100000D02*
X-15100000Y-5100000D01*
X-13400000Y-1500000D02*
X-15100000Y-1500000D01*
X-2975000Y-7315000D02*
X-2975000Y-8640000D01*
X-3635000Y-9300000D02*
X-5500000Y-9300000D01*
X-2975000Y-8640000D02*
X-3635000Y-9300000D01*
X2980000Y-8635000D02*
X2975000Y-8640000D01*
X2980000Y-7315000D02*
X2980000Y-8635000D01*
X5995500Y-7212500D02*
X6387500Y-7212500D01*
X5334000Y-7874000D02*
X5995500Y-7212500D01*
X5334000Y-9017000D02*
X5334000Y-7874000D01*
X4826000Y-9525000D02*
X5334000Y-9017000D01*
X3860000Y-9525000D02*
X4826000Y-9525000D01*
X2975000Y-8640000D02*
X3860000Y-9525000D01*
X-2975000Y-7096998D02*
X-2975000Y-7315000D01*
X-1867991Y-5989989D02*
X-2975000Y-7096998D01*
X2980000Y-6855381D02*
X2114609Y-5989990D01*
X2114609Y-5989990D02*
X-1867991Y-5989989D01*
X2980000Y-7315000D02*
X2980000Y-6855381D01*
X-4320000Y-2600000D02*
X-4320000Y-6780000D01*
X-4320000Y-2600000D02*
X4320000Y-2600000D01*
X4320000Y-2600000D02*
X4320000Y-6780000D01*
X6387500Y-2600000D02*
X8600000Y-2600000D01*
X4320000Y-2600000D02*
X6387500Y-2600000D01*
D18*
X17000000Y-5500000D02*
X11500000Y-5500000D01*
D17*
X14707106Y-3207106D02*
X17000000Y-5500000D01*
X14707106Y-3207106D02*
X14621285Y-3125398D01*
X14621285Y-3125398D02*
X14531560Y-3048000D01*
X14531560Y-3048000D02*
X14438144Y-2975098D01*
X14438144Y-2975098D02*
X14341264Y-2906867D01*
X14341264Y-2906867D02*
X14241153Y-2843472D01*
X14241153Y-2843472D02*
X14138051Y-2785066D01*
X14138051Y-2785066D02*
X14032208Y-2731789D01*
X14032208Y-2731789D02*
X13923879Y-2683770D01*
X13923879Y-2683770D02*
X13813323Y-2641124D01*
X13813323Y-2641124D02*
X13700808Y-2603954D01*
X13700808Y-2603954D02*
X13586605Y-2572350D01*
X13586605Y-2572350D02*
X13470989Y-2546387D01*
X13470989Y-2546387D02*
X13354238Y-2526129D01*
X13354238Y-2526129D02*
X13236634Y-2511624D01*
X13236634Y-2511624D02*
X13118459Y-2502907D01*
X13118459Y-2502907D02*
X13000000Y-2500000D01*
X13000000Y-2500000D02*
X11000000Y-2500000D01*
X15500000Y-700000D02*
X12500000Y-700000D01*
X15500000Y-700000D02*
X15647025Y-707222D01*
X15647025Y-707222D02*
X15792635Y-728822D01*
X15792635Y-728822D02*
X15935427Y-764589D01*
X15935427Y-764589D02*
X16074025Y-814180D01*
X16074025Y-814180D02*
X16207095Y-877118D01*
X16207095Y-877118D02*
X16333355Y-952795D01*
X16333355Y-952795D02*
X16451589Y-1040484D01*
X16451589Y-1040484D02*
X16560660Y-1139339D01*
X16560660Y-1139339D02*
X16659515Y-1248410D01*
X16659515Y-1248410D02*
X16747204Y-1366644D01*
X16747204Y-1366644D02*
X16822881Y-1492904D01*
X16822881Y-1492904D02*
X16885819Y-1625974D01*
X16885819Y-1625974D02*
X16935410Y-1764572D01*
X16935410Y-1764572D02*
X16971177Y-1907364D01*
X16971177Y-1907364D02*
X16992777Y-2052974D01*
X16992777Y-2052974D02*
X17000000Y-2200000D01*
X17000000Y-2200000D02*
X17000000Y-5500000D01*
X13000001Y-8499999D02*
X11499999Y-8499999D01*
X13000001Y-8499999D02*
X13118460Y-8497090D01*
X13118460Y-8497090D02*
X13236635Y-8488373D01*
X13236635Y-8488373D02*
X13354239Y-8473868D01*
X13354239Y-8473868D02*
X13470990Y-8453610D01*
X13470990Y-8453610D02*
X13586606Y-8427647D01*
X13586606Y-8427647D02*
X13700809Y-8396043D01*
X13700809Y-8396043D02*
X13813324Y-8358873D01*
X13813324Y-8358873D02*
X13923880Y-8316227D01*
X13923880Y-8316227D02*
X14032209Y-8268208D01*
X14032209Y-8268208D02*
X14138052Y-8214931D01*
X14138052Y-8214931D02*
X14241154Y-8156524D01*
X14241154Y-8156524D02*
X14341265Y-8093130D01*
X14341265Y-8093130D02*
X14438145Y-8024899D01*
X14438145Y-8024899D02*
X14531560Y-7951997D01*
X14531560Y-7951997D02*
X14621286Y-7874599D01*
X14621286Y-7874599D02*
X14707107Y-7792892D01*
X14707107Y-7792892D02*
X17000000Y-5500000D01*
X15500000Y-10300000D02*
X12300000Y-10300000D01*
X15500000Y-10300000D02*
X15647025Y-10292777D01*
X15647025Y-10292777D02*
X15792635Y-10271177D01*
X15792635Y-10271177D02*
X15935427Y-10235410D01*
X15935427Y-10235410D02*
X16074025Y-10185819D01*
X16074025Y-10185819D02*
X16207095Y-10122881D01*
X16207095Y-10122881D02*
X16333355Y-10047204D01*
X16333355Y-10047204D02*
X16451589Y-9959515D01*
X16451589Y-9959515D02*
X16560660Y-9860660D01*
X16560660Y-9860660D02*
X16659515Y-9751589D01*
X16659515Y-9751589D02*
X16747204Y-9633355D01*
X16747204Y-9633355D02*
X16822881Y-9507095D01*
X16822881Y-9507095D02*
X16885819Y-9374025D01*
X16885819Y-9374025D02*
X16935410Y-9235427D01*
X16935410Y-9235427D02*
X16971177Y-9092635D01*
X16971177Y-9092635D02*
X16992777Y-8947025D01*
X16992777Y-8947025D02*
X17000000Y-8800000D01*
X17000000Y-8800000D02*
X17000000Y-5500000D01*
X1628001Y-6589999D02*
X2130000Y-7091998D01*
X-1618001Y-6589999D02*
X1628001Y-6589999D01*
X-1995001Y-6966999D02*
X-1618001Y-6589999D01*
X-1995001Y-7202001D02*
X-1995001Y-6966999D01*
X-2108000Y-7315000D02*
X-1995001Y-7202001D01*
X2130000Y-7091998D02*
X2130000Y-7315000D01*
X-2120000Y-7315000D02*
X-2108000Y-7315000D01*
X-8400000Y-8400000D02*
X-8382000Y-8382000D01*
X-8400000Y-9700000D02*
X-8400000Y-8400000D01*
X-9900000Y-5000000D02*
X-9898836Y-5047383D01*
X-9898836Y-5047383D02*
X-9895349Y-5094653D01*
X-9895349Y-5094653D02*
X-9889547Y-5141695D01*
X-9889547Y-5141695D02*
X-9881444Y-5188395D01*
X-9881444Y-5188395D02*
X-9871059Y-5234642D01*
X-9871059Y-5234642D02*
X-9858417Y-5280323D01*
X-9858417Y-5280323D02*
X-9843549Y-5325329D01*
X-9843549Y-5325329D02*
X-9826491Y-5369551D01*
X-9826491Y-5369551D02*
X-9807283Y-5412883D01*
X-9807283Y-5412883D02*
X-9785972Y-5455220D01*
X-9785972Y-5455220D02*
X-9762610Y-5496460D01*
X-9762610Y-5496460D02*
X-9737252Y-5536505D01*
X-9737252Y-5536505D02*
X-9709959Y-5575257D01*
X-9709959Y-5575257D02*
X-9680798Y-5612623D01*
X-9680798Y-5612623D02*
X-9649839Y-5648513D01*
X-9649839Y-5648513D02*
X-9617157Y-5682842D01*
X-9617157Y-5682842D02*
X-8400000Y-6900000D01*
D19*
X-12100000Y-5200000D02*
X-12100000Y-4200000D01*
D17*
X-9500000Y-4100000D02*
X-8800000Y-4100000D01*
X-9500000Y-4100000D02*
X-9539206Y-4101926D01*
X-9539206Y-4101926D02*
X-9578036Y-4107685D01*
X-9578036Y-4107685D02*
X-9616113Y-4117223D01*
X-9616113Y-4117223D02*
X-9653073Y-4130448D01*
X-9653073Y-4130448D02*
X-9688558Y-4147231D01*
X-9688558Y-4147231D02*
X-9722228Y-4167412D01*
X-9722228Y-4167412D02*
X-9753757Y-4190795D01*
X-9753757Y-4190795D02*
X-9782842Y-4217157D01*
X-9782842Y-4217157D02*
X-9809204Y-4246242D01*
X-9809204Y-4246242D02*
X-9832587Y-4277771D01*
X-9832587Y-4277771D02*
X-9852768Y-4311441D01*
X-9852768Y-4311441D02*
X-9869551Y-4346926D01*
X-9869551Y-4346926D02*
X-9882776Y-4383886D01*
X-9882776Y-4383886D02*
X-9892314Y-4421963D01*
X-9892314Y-4421963D02*
X-9898073Y-4460793D01*
X-9898073Y-4460793D02*
X-9900000Y-4500000D01*
X-10300000Y-4100000D02*
X-12100000Y-4100000D01*
X-10300000Y-4100000D02*
X-10260793Y-4101926D01*
X-10260793Y-4101926D02*
X-10221963Y-4107685D01*
X-10221963Y-4107685D02*
X-10183886Y-4117223D01*
X-10183886Y-4117223D02*
X-10146926Y-4130448D01*
X-10146926Y-4130448D02*
X-10111441Y-4147231D01*
X-10111441Y-4147231D02*
X-10077771Y-4167412D01*
X-10077771Y-4167412D02*
X-10046242Y-4190795D01*
X-10046242Y-4190795D02*
X-10017157Y-4217157D01*
X-10017157Y-4217157D02*
X-9990795Y-4246242D01*
X-9990795Y-4246242D02*
X-9967412Y-4277771D01*
X-9967412Y-4277771D02*
X-9947231Y-4311441D01*
X-9947231Y-4311441D02*
X-9930448Y-4346926D01*
X-9930448Y-4346926D02*
X-9917223Y-4383886D01*
X-9917223Y-4383886D02*
X-9907685Y-4421963D01*
X-9907685Y-4421963D02*
X-9901926Y-4460793D01*
X-9901926Y-4460793D02*
X-9900000Y-4500000D01*
X-9900000Y-4500000D02*
X-9900000Y-5000000D01*
D20*
X-1270000Y-8635000D02*
X-1275000Y-8640000D01*
X-1270000Y-7315000D02*
X-1270000Y-8635000D01*
X1610451Y-10425020D02*
X6973980Y-10425020D01*
X1307716Y-10122285D02*
X1610451Y-10425020D01*
X7887500Y-9511500D02*
X7887500Y-8787500D01*
X6973980Y-10425020D02*
X7887500Y-9511500D01*
X1280000Y-8635000D02*
X1275000Y-8640000D01*
X1280000Y-7315000D02*
X1280000Y-8635000D01*
X6387500Y-9487500D02*
X6387500Y-8787500D01*
X5849990Y-10025010D02*
X6387500Y-9487500D01*
X2200391Y-10025010D02*
X5849990Y-10025010D01*
X1275000Y-9099619D02*
X2200391Y-10025010D01*
X1275000Y-8640000D02*
X1275000Y-9099619D01*
X-7000000Y-9300000D02*
X-7000000Y-7100000D01*
X-6994221Y-9417620D02*
X-7000000Y-9300000D01*
X-6976942Y-9534108D02*
X-6994221Y-9417620D01*
X-6948328Y-9648341D02*
X-6976942Y-9534108D01*
X-6908655Y-9759220D02*
X-6948328Y-9648341D01*
X-6858305Y-9865676D02*
X-6908655Y-9759220D01*
X-6797763Y-9966684D02*
X-6858305Y-9865676D01*
X-6727612Y-10061271D02*
X-6797763Y-9966684D01*
X-6648528Y-10148528D02*
X-6727612Y-10061271D01*
X-6561271Y-10227612D02*
X-6648528Y-10148528D01*
X-6466684Y-10297763D02*
X-6561271Y-10227612D01*
X-6365676Y-10358305D02*
X-6466684Y-10297763D01*
X-6259220Y-10408655D02*
X-6365676Y-10358305D01*
X-6148341Y-10448328D02*
X-6259220Y-10408655D01*
X-6034108Y-10476942D02*
X-6148341Y-10448328D01*
X-5917620Y-10494221D02*
X-6034108Y-10476942D01*
X-5800000Y-10500000D02*
X-5917620Y-10494221D01*
X-7424264Y-6075735D02*
X-8450000Y-5050000D01*
X-7375239Y-6127226D02*
X-7424264Y-6075735D01*
X-7328800Y-6181062D02*
X-7375239Y-6127226D01*
X-7285058Y-6237111D02*
X-7328800Y-6181062D01*
X-7244120Y-6295239D02*
X-7285058Y-6237111D01*
X-7206083Y-6355306D02*
X-7244120Y-6295239D01*
X-7171039Y-6417167D02*
X-7206083Y-6355306D01*
X-7139073Y-6480673D02*
X-7171039Y-6417167D01*
X-7110262Y-6545671D02*
X-7139073Y-6480673D01*
X-7084674Y-6612005D02*
X-7110262Y-6545671D01*
X-7062372Y-6679514D02*
X-7084674Y-6612005D01*
X-7043410Y-6748036D02*
X-7062372Y-6679514D01*
X-7027832Y-6817405D02*
X-7043410Y-6748036D01*
X-7015677Y-6887456D02*
X-7027832Y-6817405D01*
X-7006974Y-6958019D02*
X-7015677Y-6887456D01*
X-7001744Y-7028924D02*
X-7006974Y-6958019D01*
X-7000000Y-7100000D02*
X-7001744Y-7028924D01*
X-8800000Y-5050000D02*
X-8450000Y-5050000D01*
X-8651777Y-4901777D02*
X-8800000Y-5050000D01*
X-8651777Y-4901777D02*
X-8630322Y-4881350D01*
X-8630322Y-4881350D02*
X-8607890Y-4862000D01*
X-8607890Y-4862000D02*
X-8584536Y-4843775D01*
X-8584536Y-4843775D02*
X-8560316Y-4826717D01*
X-8560316Y-4826717D02*
X-8535288Y-4810868D01*
X-8535288Y-4810868D02*
X-8509513Y-4796267D01*
X-8509513Y-4796267D02*
X-8483052Y-4782948D01*
X-8483052Y-4782948D02*
X-8455970Y-4770943D01*
X-8455970Y-4770943D02*
X-8428331Y-4760281D01*
X-8428331Y-4760281D02*
X-8400203Y-4750989D01*
X-8400203Y-4750989D02*
X-8371652Y-4743088D01*
X-8371652Y-4743088D02*
X-8342748Y-4736597D01*
X-8342748Y-4736597D02*
X-8313560Y-4731533D01*
X-8313560Y-4731533D02*
X-8284159Y-4727906D01*
X-8284159Y-4727906D02*
X-8254615Y-4725727D01*
X-8254615Y-4725727D02*
X-8225001Y-4725001D01*
X-7900000Y-4425001D02*
X-7901444Y-4454406D01*
X-7901444Y-4454406D02*
X-7905764Y-4483528D01*
X-7905764Y-4483528D02*
X-7912917Y-4512086D01*
X-7912917Y-4512086D02*
X-7922836Y-4539806D01*
X-7922836Y-4539806D02*
X-7935423Y-4566420D01*
X-7935423Y-4566420D02*
X-7950559Y-4591672D01*
X-7950559Y-4591672D02*
X-7968096Y-4615318D01*
X-7968096Y-4615318D02*
X-7987867Y-4637133D01*
X-7987867Y-4637133D02*
X-8009682Y-4656904D01*
X-8009682Y-4656904D02*
X-8033328Y-4674441D01*
X-8033328Y-4674441D02*
X-8058580Y-4689577D01*
X-8058580Y-4689577D02*
X-8085194Y-4702164D01*
X-8085194Y-4702164D02*
X-8112914Y-4712083D01*
X-8112914Y-4712083D02*
X-8141472Y-4719236D01*
X-8141472Y-4719236D02*
X-8170594Y-4723556D01*
X-8170594Y-4723556D02*
X-8200000Y-4725001D01*
X-8200000Y-4725001D02*
X-8225001Y-4725001D01*
X-7900000Y-2900000D02*
X-7900000Y-4425001D01*
X-7900000Y-2900000D02*
X-7901926Y-2860793D01*
X-7901926Y-2860793D02*
X-7907685Y-2821963D01*
X-7907685Y-2821963D02*
X-7917223Y-2783886D01*
X-7917223Y-2783886D02*
X-7930448Y-2746926D01*
X-7930448Y-2746926D02*
X-7947231Y-2711441D01*
X-7947231Y-2711441D02*
X-7967412Y-2677771D01*
X-7967412Y-2677771D02*
X-7990795Y-2646242D01*
X-7990795Y-2646242D02*
X-8017157Y-2617157D01*
X-8017157Y-2617157D02*
X-8046242Y-2590795D01*
X-8046242Y-2590795D02*
X-8077771Y-2567412D01*
X-8077771Y-2567412D02*
X-8111441Y-2547231D01*
X-8111441Y-2547231D02*
X-8146926Y-2530448D01*
X-8146926Y-2530448D02*
X-8183886Y-2517223D01*
X-8183886Y-2517223D02*
X-8221963Y-2507685D01*
X-8221963Y-2507685D02*
X-8260793Y-2501926D01*
X-8260793Y-2501926D02*
X-8300000Y-2500000D01*
X-13100000Y-5100000D02*
X-13400000Y-4800000D01*
X-13400000Y-3300000D02*
X-13400000Y-4800000D01*
X-13400000Y-3300000D02*
X-13396147Y-3221586D01*
X-13396147Y-3221586D02*
X-13384628Y-3143927D01*
X-13384628Y-3143927D02*
X-13365552Y-3067772D01*
X-13365552Y-3067772D02*
X-13339103Y-2993853D01*
X-13339103Y-2993853D02*
X-13305537Y-2922882D01*
X-13305537Y-2922882D02*
X-13265175Y-2855543D01*
X-13265175Y-2855543D02*
X-13218408Y-2792485D01*
X-13218408Y-2792485D02*
X-13165685Y-2734314D01*
X-13165685Y-2734314D02*
X-13107514Y-2681591D01*
X-13107514Y-2681591D02*
X-13044456Y-2634824D01*
X-13044456Y-2634824D02*
X-12977117Y-2594462D01*
X-12977117Y-2594462D02*
X-12906146Y-2560896D01*
X-12906146Y-2560896D02*
X-12832227Y-2534447D01*
X-12832227Y-2534447D02*
X-12756072Y-2515371D01*
X-12756072Y-2515371D02*
X-12678413Y-2503852D01*
X-12678413Y-2503852D02*
X-12600000Y-2500000D01*
X-12600000Y-2500000D02*
X-8300000Y-2500000D01*
X-14100000Y-5100000D02*
X-13800000Y-4800000D01*
X-6748222Y-4901777D02*
X-6600000Y-5050000D01*
X-6748222Y-4901777D02*
X-6769676Y-4881349D01*
X-6769676Y-4881349D02*
X-6792108Y-4862000D01*
X-6792108Y-4862000D02*
X-6815462Y-4843774D01*
X-6815462Y-4843774D02*
X-6839682Y-4826717D01*
X-6839682Y-4826717D02*
X-6864710Y-4810868D01*
X-6864710Y-4810868D02*
X-6890485Y-4796267D01*
X-6890485Y-4796267D02*
X-6916946Y-4782947D01*
X-6916946Y-4782947D02*
X-6944028Y-4770943D01*
X-6944028Y-4770943D02*
X-6971667Y-4760281D01*
X-6971667Y-4760281D02*
X-6999796Y-4750989D01*
X-6999796Y-4750989D02*
X-7028347Y-4743088D01*
X-7028347Y-4743088D02*
X-7057251Y-4736597D01*
X-7057251Y-4736597D02*
X-7086439Y-4731533D01*
X-7086439Y-4731533D02*
X-7115840Y-4727906D01*
X-7115840Y-4727906D02*
X-7145384Y-4725727D01*
X-7145384Y-4725727D02*
X-7174999Y-4725001D01*
X-7500000Y-4425001D02*
X-7498555Y-4454406D01*
X-7498555Y-4454406D02*
X-7494235Y-4483528D01*
X-7494235Y-4483528D02*
X-7487082Y-4512086D01*
X-7487082Y-4512086D02*
X-7477163Y-4539806D01*
X-7477163Y-4539806D02*
X-7464576Y-4566420D01*
X-7464576Y-4566420D02*
X-7449440Y-4591672D01*
X-7449440Y-4591672D02*
X-7431903Y-4615318D01*
X-7431903Y-4615318D02*
X-7412132Y-4637133D01*
X-7412132Y-4637133D02*
X-7390317Y-4656904D01*
X-7390317Y-4656904D02*
X-7366671Y-4674441D01*
X-7366671Y-4674441D02*
X-7341419Y-4689577D01*
X-7341419Y-4689577D02*
X-7314805Y-4702164D01*
X-7314805Y-4702164D02*
X-7287085Y-4712083D01*
X-7287085Y-4712083D02*
X-7258527Y-4719236D01*
X-7258527Y-4719236D02*
X-7229405Y-4723556D01*
X-7229405Y-4723556D02*
X-7200000Y-4725001D01*
X-7200000Y-4725001D02*
X-7174999Y-4725001D01*
X-7500000Y-2900000D02*
X-7500000Y-4425001D01*
X-7500000Y-2900000D02*
X-7503852Y-2821586D01*
X-7503852Y-2821586D02*
X-7515371Y-2743927D01*
X-7515371Y-2743927D02*
X-7534447Y-2667772D01*
X-7534447Y-2667772D02*
X-7560896Y-2593853D01*
X-7560896Y-2593853D02*
X-7594462Y-2522882D01*
X-7594462Y-2522882D02*
X-7634824Y-2455543D01*
X-7634824Y-2455543D02*
X-7681591Y-2392485D01*
X-7681591Y-2392485D02*
X-7734314Y-2334314D01*
X-7734314Y-2334314D02*
X-7792485Y-2281591D01*
X-7792485Y-2281591D02*
X-7855543Y-2234824D01*
X-7855543Y-2234824D02*
X-7922882Y-2194462D01*
X-7922882Y-2194462D02*
X-7993853Y-2160896D01*
X-7993853Y-2160896D02*
X-8067772Y-2134447D01*
X-8067772Y-2134447D02*
X-8143927Y-2115371D01*
X-8143927Y-2115371D02*
X-8221586Y-2103852D01*
X-8221586Y-2103852D02*
X-8300000Y-2100000D01*
X-13800000Y-3300000D02*
X-13800000Y-4800000D01*
X-13800000Y-3300000D02*
X-13794221Y-3182379D01*
X-13794221Y-3182379D02*
X-13776942Y-3065891D01*
X-13776942Y-3065891D02*
X-13748328Y-2951658D01*
X-13748328Y-2951658D02*
X-13708655Y-2840779D01*
X-13708655Y-2840779D02*
X-13658305Y-2734323D01*
X-13658305Y-2734323D02*
X-13597763Y-2633315D01*
X-13597763Y-2633315D02*
X-13527612Y-2538728D01*
X-13527612Y-2538728D02*
X-13448528Y-2451471D01*
X-13448528Y-2451471D02*
X-13361271Y-2372387D01*
X-13361271Y-2372387D02*
X-13266684Y-2302236D01*
X-13266684Y-2302236D02*
X-13165676Y-2241694D01*
X-13165676Y-2241694D02*
X-13059220Y-2191344D01*
X-13059220Y-2191344D02*
X-12948341Y-2151671D01*
X-12948341Y-2151671D02*
X-12834108Y-2123057D01*
X-12834108Y-2123057D02*
X-12717620Y-2105778D01*
X-12717620Y-2105778D02*
X-12600000Y-2100000D01*
X-12600000Y-2100000D02*
X-8300000Y-2100000D01*
X-6596147Y-9378413D02*
X-6600000Y-9300000D01*
X-6539103Y-9606146D02*
X-6565552Y-9532227D01*
X-5800000Y-10100000D02*
X-5878413Y-10096147D01*
X-6307514Y-9918408D02*
X-6365685Y-9865685D01*
X-5878413Y-10096147D02*
X-5956072Y-10084628D01*
X-5956072Y-10084628D02*
X-6032227Y-10065552D01*
X-6032227Y-10065552D02*
X-6106146Y-10039103D01*
X-6106146Y-10039103D02*
X-6177117Y-10005537D01*
X-6177117Y-10005537D02*
X-6244456Y-9965175D01*
X-6244456Y-9965175D02*
X-6307514Y-9918408D01*
X-6365685Y-9865685D02*
X-6418408Y-9807514D01*
X-6418408Y-9807514D02*
X-6465175Y-9744456D01*
X-6465175Y-9744456D02*
X-6505537Y-9677117D01*
X-6565552Y-9532227D02*
X-6584628Y-9456072D01*
X-6505537Y-9677117D02*
X-6539103Y-9606146D01*
X-6584628Y-9456072D02*
X-6596147Y-9378413D01*
X-6600000Y-9300000D02*
X-6600000Y-5050000D01*
X-425000Y-8640000D02*
X-425000Y-9315000D01*
X-1210000Y-10100000D02*
X-5789974Y-10100000D01*
X-5789974Y-10100000D02*
X-5799976Y-10099508D01*
X-425000Y-9315000D02*
X-1210000Y-10100000D01*
X430000Y-7390002D02*
X430000Y-7315000D01*
X-425000Y-8245002D02*
X430000Y-7390002D01*
X-425000Y-8640000D02*
X-425000Y-8245002D01*
X425000Y-9030698D02*
X425000Y-8640000D01*
X-1044302Y-10500000D02*
X425000Y-9030698D01*
X-5800000Y-10500000D02*
X-1044302Y-10500000D01*
D17*
X12800000Y-10300000D02*
X8088949Y-10300000D01*
X8358158Y-10030791D01*
X8384869Y-10008870D01*
X8472345Y-9902281D01*
X8537345Y-9780675D01*
X8558210Y-9711893D01*
X8600236Y-9689430D01*
X8724746Y-9587246D01*
X8826930Y-9462736D01*
X8902858Y-9320683D01*
X8949615Y-9166547D01*
X8965403Y-9006250D01*
X8965403Y-8568750D01*
X8949615Y-8408453D01*
X8902858Y-8254317D01*
X8826930Y-8112264D01*
X8734796Y-8000000D01*
X8826930Y-7887736D01*
X8902858Y-7745683D01*
X8949615Y-7591547D01*
X8965403Y-7431250D01*
X8965403Y-6993750D01*
X8949615Y-6833453D01*
X8902858Y-6679317D01*
X8826930Y-6537264D01*
X8724746Y-6412754D01*
X8687500Y-6382187D01*
X8687500Y-5597288D01*
X8687939Y-5579372D01*
X8688536Y-5571281D01*
X8689261Y-5565403D01*
X9056250Y-5565403D01*
X9221424Y-5549135D01*
X9380250Y-5500955D01*
X9526625Y-5422716D01*
X9654924Y-5317424D01*
X9760216Y-5189125D01*
X9838455Y-5042750D01*
X9886635Y-4883924D01*
X9902903Y-4718750D01*
X9902903Y-4231250D01*
X9886635Y-4066076D01*
X9838455Y-3907250D01*
X9760216Y-3760875D01*
X9654924Y-3632576D01*
X9614742Y-3599600D01*
X9634955Y-3588796D01*
X9726317Y-3513817D01*
X9801296Y-3422455D01*
X9857010Y-3318221D01*
X9891318Y-3205121D01*
X9902903Y-3087500D01*
X9900000Y-2850000D01*
X9750000Y-2700000D01*
X8700000Y-2700000D01*
X8700000Y-2720000D01*
X8500000Y-2720000D01*
X8500000Y-2700000D01*
X6487500Y-2700000D01*
X6487500Y-3675000D01*
X6637500Y-3825000D01*
X7262500Y-3827903D01*
X7380121Y-3816318D01*
X7415960Y-3805447D01*
X7361545Y-3907250D01*
X7313365Y-4066076D01*
X7297758Y-4224542D01*
X7178893Y-4188485D01*
X7012500Y-4172097D01*
X5762500Y-4172097D01*
X5596107Y-4188485D01*
X5436108Y-4237020D01*
X5375000Y-4269683D01*
X5375000Y-3810288D01*
X5394879Y-3816318D01*
X5512500Y-3827903D01*
X6137500Y-3825000D01*
X6287500Y-3675000D01*
X6287500Y-2700000D01*
X5062500Y-2700000D01*
X4912500Y-2850000D01*
X4911267Y-3009309D01*
X4825202Y-2951401D01*
X4634430Y-2871659D01*
X4587278Y-2863285D01*
X4425000Y-2985573D01*
X4425000Y-4180000D01*
X4445000Y-4180000D01*
X4445000Y-4380000D01*
X4425000Y-4380000D01*
X4425000Y-5574427D01*
X4587278Y-5696715D01*
X4634430Y-5688341D01*
X4825202Y-5608599D01*
X4909597Y-5551814D01*
X4909597Y-5775000D01*
X4925985Y-5941393D01*
X4967079Y-6076863D01*
X4825202Y-5981401D01*
X4634430Y-5901659D01*
X4587278Y-5893285D01*
X4425000Y-6015573D01*
X4425000Y-7560000D01*
X4445000Y-7560000D01*
X4445000Y-7760000D01*
X4425000Y-7760000D01*
X4425000Y-7780000D01*
X4225000Y-7780000D01*
X4225000Y-7760000D01*
X4205000Y-7760000D01*
X4205000Y-7560000D01*
X4225000Y-7560000D01*
X4225000Y-6015573D01*
X4062722Y-5893285D01*
X4015570Y-5901659D01*
X3824798Y-5981401D01*
X3653248Y-6096828D01*
X3507513Y-6243505D01*
X3504314Y-6248325D01*
X2708078Y-5452089D01*
X2683031Y-5421569D01*
X2652510Y-5396521D01*
X2561215Y-5321597D01*
X2422236Y-5247311D01*
X2271436Y-5201567D01*
X2114609Y-5186120D01*
X2075309Y-5189991D01*
X-1828701Y-5189989D01*
X-1867992Y-5186119D01*
X-1907283Y-5189989D01*
X-2024817Y-5201565D01*
X-2095386Y-5222972D01*
X-2175619Y-5247310D01*
X-2314598Y-5321596D01*
X-2405893Y-5396520D01*
X-2405898Y-5396525D01*
X-2436412Y-5421567D01*
X-2461454Y-5452081D01*
X-3405947Y-6396575D01*
X-3507513Y-6243505D01*
X-3653248Y-6096828D01*
X-3824798Y-5981401D01*
X-4015570Y-5901659D01*
X-4062722Y-5893285D01*
X-4225000Y-6015573D01*
X-4225000Y-7560000D01*
X-4205000Y-7560000D01*
X-4205000Y-7760000D01*
X-4225000Y-7760000D01*
X-4225000Y-7780000D01*
X-4425000Y-7780000D01*
X-4425000Y-7760000D01*
X-4445000Y-7760000D01*
X-4445000Y-7560000D01*
X-4425000Y-7560000D01*
X-4425000Y-6015573D01*
X-4550000Y-5921377D01*
X-4550000Y-5668623D01*
X-4425000Y-5574427D01*
X-4425000Y-4380000D01*
X-4225000Y-4380000D01*
X-4225000Y-5574427D01*
X-4062722Y-5696715D01*
X-4015570Y-5688341D01*
X-3824798Y-5608599D01*
X-3653248Y-5493172D01*
X-3507513Y-5346495D01*
X-3393194Y-5174205D01*
X-3314684Y-4982923D01*
X-3275000Y-4780000D01*
X-3275000Y-4380000D01*
X3275000Y-4380000D01*
X3275000Y-4780000D01*
X3314684Y-4982923D01*
X3393194Y-5174205D01*
X3507513Y-5346495D01*
X3653248Y-5493172D01*
X3824798Y-5608599D01*
X4015570Y-5688341D01*
X4062722Y-5696715D01*
X4225000Y-5574427D01*
X4225000Y-4380000D01*
X3275000Y-4380000D01*
X-3275000Y-4380000D01*
X-4225000Y-4380000D01*
X-4425000Y-4380000D01*
X-4445000Y-4380000D01*
X-4445000Y-4180000D01*
X-4425000Y-4180000D01*
X-4425000Y-2985573D01*
X-4225000Y-2985573D01*
X-4225000Y-4180000D01*
X-3275000Y-4180000D01*
X-3275000Y-3780000D01*
X3275000Y-3780000D01*
X3275000Y-4180000D01*
X4225000Y-4180000D01*
X4225000Y-2985573D01*
X4062722Y-2863285D01*
X4015570Y-2871659D01*
X3824798Y-2951401D01*
X3653248Y-3066828D01*
X3507513Y-3213505D01*
X3393194Y-3385795D01*
X3314684Y-3577077D01*
X3275000Y-3780000D01*
X-3275000Y-3780000D01*
X-3314684Y-3577077D01*
X-3393194Y-3385795D01*
X-3507513Y-3213505D01*
X-3653248Y-3066828D01*
X-3824798Y-2951401D01*
X-4015570Y-2871659D01*
X-4062722Y-2863285D01*
X-4225000Y-2985573D01*
X-4425000Y-2985573D01*
X-4550000Y-2891377D01*
X-4550000Y-1975000D01*
X4909597Y-1975000D01*
X4912500Y-2350000D01*
X5062500Y-2500000D01*
X6287500Y-2500000D01*
X6287500Y-1525000D01*
X6487500Y-1525000D01*
X6487500Y-2500000D01*
X8500000Y-2500000D01*
X8500000Y-1662500D01*
X8700000Y-1662500D01*
X8700000Y-2500000D01*
X9750000Y-2500000D01*
X9900000Y-2350000D01*
X9902903Y-2112500D01*
X9891318Y-1994879D01*
X9857010Y-1881779D01*
X9801296Y-1777545D01*
X9726317Y-1686183D01*
X9634955Y-1611204D01*
X9530721Y-1555490D01*
X9417621Y-1521182D01*
X9300000Y-1509597D01*
X8850000Y-1512500D01*
X8700000Y-1662500D01*
X8500000Y-1662500D01*
X8350000Y-1512500D01*
X7900000Y-1509597D01*
X7782379Y-1521182D01*
X7689395Y-1549388D01*
X7688817Y-1548683D01*
X7597455Y-1473704D01*
X7493221Y-1417990D01*
X7380121Y-1383682D01*
X7262500Y-1372097D01*
X6637500Y-1375000D01*
X6487500Y-1525000D01*
X6287500Y-1525000D01*
X6137500Y-1375000D01*
X5512500Y-1372097D01*
X5394879Y-1383682D01*
X5281779Y-1417990D01*
X5177545Y-1473704D01*
X5086183Y-1548683D01*
X5011204Y-1640045D01*
X4955490Y-1744279D01*
X4921182Y-1857379D01*
X4909597Y-1975000D01*
X-4550000Y-1975000D01*
X-4550000Y-700000D01*
X12800000Y-700000D01*
X12800000Y-10300000D01*
G04 #@! TA.AperFunction,Conductor*
D21*
G36*
X12800000Y-10300000D02*
G01*
X8088949Y-10300000D01*
X8358158Y-10030791D01*
X8384869Y-10008870D01*
X8472345Y-9902281D01*
X8537345Y-9780675D01*
X8558210Y-9711893D01*
X8600236Y-9689430D01*
X8724746Y-9587246D01*
X8826930Y-9462736D01*
X8902858Y-9320683D01*
X8949615Y-9166547D01*
X8965403Y-9006250D01*
X8965403Y-8568750D01*
X8949615Y-8408453D01*
X8902858Y-8254317D01*
X8826930Y-8112264D01*
X8734796Y-8000000D01*
X8826930Y-7887736D01*
X8902858Y-7745683D01*
X8949615Y-7591547D01*
X8965403Y-7431250D01*
X8965403Y-6993750D01*
X8949615Y-6833453D01*
X8902858Y-6679317D01*
X8826930Y-6537264D01*
X8724746Y-6412754D01*
X8687500Y-6382187D01*
X8687500Y-5597288D01*
X8687939Y-5579372D01*
X8688536Y-5571281D01*
X8689261Y-5565403D01*
X9056250Y-5565403D01*
X9221424Y-5549135D01*
X9380250Y-5500955D01*
X9526625Y-5422716D01*
X9654924Y-5317424D01*
X9760216Y-5189125D01*
X9838455Y-5042750D01*
X9886635Y-4883924D01*
X9902903Y-4718750D01*
X9902903Y-4231250D01*
X9886635Y-4066076D01*
X9838455Y-3907250D01*
X9760216Y-3760875D01*
X9654924Y-3632576D01*
X9614742Y-3599600D01*
X9634955Y-3588796D01*
X9726317Y-3513817D01*
X9801296Y-3422455D01*
X9857010Y-3318221D01*
X9891318Y-3205121D01*
X9902903Y-3087500D01*
X9900000Y-2850000D01*
X9750000Y-2700000D01*
X8700000Y-2700000D01*
X8700000Y-2720000D01*
X8500000Y-2720000D01*
X8500000Y-2700000D01*
X6487500Y-2700000D01*
X6487500Y-3675000D01*
X6637500Y-3825000D01*
X7262500Y-3827903D01*
X7380121Y-3816318D01*
X7415960Y-3805447D01*
X7361545Y-3907250D01*
X7313365Y-4066076D01*
X7297758Y-4224542D01*
X7178893Y-4188485D01*
X7012500Y-4172097D01*
X5762500Y-4172097D01*
X5596107Y-4188485D01*
X5436108Y-4237020D01*
X5375000Y-4269683D01*
X5375000Y-3810288D01*
X5394879Y-3816318D01*
X5512500Y-3827903D01*
X6137500Y-3825000D01*
X6287500Y-3675000D01*
X6287500Y-2700000D01*
X5062500Y-2700000D01*
X4912500Y-2850000D01*
X4911267Y-3009309D01*
X4825202Y-2951401D01*
X4634430Y-2871659D01*
X4587278Y-2863285D01*
X4425000Y-2985573D01*
X4425000Y-4180000D01*
X4445000Y-4180000D01*
X4445000Y-4380000D01*
X4425000Y-4380000D01*
X4425000Y-5574427D01*
X4587278Y-5696715D01*
X4634430Y-5688341D01*
X4825202Y-5608599D01*
X4909597Y-5551814D01*
X4909597Y-5775000D01*
X4925985Y-5941393D01*
X4967079Y-6076863D01*
X4825202Y-5981401D01*
X4634430Y-5901659D01*
X4587278Y-5893285D01*
X4425000Y-6015573D01*
X4425000Y-7560000D01*
X4445000Y-7560000D01*
X4445000Y-7760000D01*
X4425000Y-7760000D01*
X4425000Y-7780000D01*
X4225000Y-7780000D01*
X4225000Y-7760000D01*
X4205000Y-7760000D01*
X4205000Y-7560000D01*
X4225000Y-7560000D01*
X4225000Y-6015573D01*
X4062722Y-5893285D01*
X4015570Y-5901659D01*
X3824798Y-5981401D01*
X3653248Y-6096828D01*
X3507513Y-6243505D01*
X3504314Y-6248325D01*
X2708078Y-5452089D01*
X2683031Y-5421569D01*
X2652510Y-5396521D01*
X2561215Y-5321597D01*
X2422236Y-5247311D01*
X2271436Y-5201567D01*
X2114609Y-5186120D01*
X2075309Y-5189991D01*
X-1828701Y-5189989D01*
X-1867992Y-5186119D01*
X-1907283Y-5189989D01*
X-2024817Y-5201565D01*
X-2095386Y-5222972D01*
X-2175619Y-5247310D01*
X-2314598Y-5321596D01*
X-2405893Y-5396520D01*
X-2405898Y-5396525D01*
X-2436412Y-5421567D01*
X-2461454Y-5452081D01*
X-3405947Y-6396575D01*
X-3507513Y-6243505D01*
X-3653248Y-6096828D01*
X-3824798Y-5981401D01*
X-4015570Y-5901659D01*
X-4062722Y-5893285D01*
X-4225000Y-6015573D01*
X-4225000Y-7560000D01*
X-4205000Y-7560000D01*
X-4205000Y-7760000D01*
X-4225000Y-7760000D01*
X-4225000Y-7780000D01*
X-4425000Y-7780000D01*
X-4425000Y-7760000D01*
X-4445000Y-7760000D01*
X-4445000Y-7560000D01*
X-4425000Y-7560000D01*
X-4425000Y-6015573D01*
X-4550000Y-5921377D01*
X-4550000Y-5668623D01*
X-4425000Y-5574427D01*
X-4425000Y-4380000D01*
X-4225000Y-4380000D01*
X-4225000Y-5574427D01*
X-4062722Y-5696715D01*
X-4015570Y-5688341D01*
X-3824798Y-5608599D01*
X-3653248Y-5493172D01*
X-3507513Y-5346495D01*
X-3393194Y-5174205D01*
X-3314684Y-4982923D01*
X-3275000Y-4780000D01*
X-3275000Y-4380000D01*
X3275000Y-4380000D01*
X3275000Y-4780000D01*
X3314684Y-4982923D01*
X3393194Y-5174205D01*
X3507513Y-5346495D01*
X3653248Y-5493172D01*
X3824798Y-5608599D01*
X4015570Y-5688341D01*
X4062722Y-5696715D01*
X4225000Y-5574427D01*
X4225000Y-4380000D01*
X3275000Y-4380000D01*
X-3275000Y-4380000D01*
X-4225000Y-4380000D01*
X-4425000Y-4380000D01*
X-4445000Y-4380000D01*
X-4445000Y-4180000D01*
X-4425000Y-4180000D01*
X-4425000Y-2985573D01*
X-4225000Y-2985573D01*
X-4225000Y-4180000D01*
X-3275000Y-4180000D01*
X-3275000Y-3780000D01*
X3275000Y-3780000D01*
X3275000Y-4180000D01*
X4225000Y-4180000D01*
X4225000Y-2985573D01*
X4062722Y-2863285D01*
X4015570Y-2871659D01*
X3824798Y-2951401D01*
X3653248Y-3066828D01*
X3507513Y-3213505D01*
X3393194Y-3385795D01*
X3314684Y-3577077D01*
X3275000Y-3780000D01*
X-3275000Y-3780000D01*
X-3314684Y-3577077D01*
X-3393194Y-3385795D01*
X-3507513Y-3213505D01*
X-3653248Y-3066828D01*
X-3824798Y-2951401D01*
X-4015570Y-2871659D01*
X-4062722Y-2863285D01*
X-4225000Y-2985573D01*
X-4425000Y-2985573D01*
X-4550000Y-2891377D01*
X-4550000Y-1975000D01*
X4909597Y-1975000D01*
X4912500Y-2350000D01*
X5062500Y-2500000D01*
X6287500Y-2500000D01*
X6287500Y-1525000D01*
X6487500Y-1525000D01*
X6487500Y-2500000D01*
X8500000Y-2500000D01*
X8500000Y-1662500D01*
X8700000Y-1662500D01*
X8700000Y-2500000D01*
X9750000Y-2500000D01*
X9900000Y-2350000D01*
X9902903Y-2112500D01*
X9891318Y-1994879D01*
X9857010Y-1881779D01*
X9801296Y-1777545D01*
X9726317Y-1686183D01*
X9634955Y-1611204D01*
X9530721Y-1555490D01*
X9417621Y-1521182D01*
X9300000Y-1509597D01*
X8850000Y-1512500D01*
X8700000Y-1662500D01*
X8500000Y-1662500D01*
X8350000Y-1512500D01*
X7900000Y-1509597D01*
X7782379Y-1521182D01*
X7689395Y-1549388D01*
X7688817Y-1548683D01*
X7597455Y-1473704D01*
X7493221Y-1417990D01*
X7380121Y-1383682D01*
X7262500Y-1372097D01*
X6637500Y-1375000D01*
X6487500Y-1525000D01*
X6287500Y-1525000D01*
X6137500Y-1375000D01*
X5512500Y-1372097D01*
X5394879Y-1383682D01*
X5281779Y-1417990D01*
X5177545Y-1473704D01*
X5086183Y-1548683D01*
X5011204Y-1640045D01*
X4955490Y-1744279D01*
X4921182Y-1857379D01*
X4909597Y-1975000D01*
X-4550000Y-1975000D01*
X-4550000Y-700000D01*
X12800000Y-700000D01*
X12800000Y-10300000D01*
G37*
G04 #@! TD.AperFunction*
D17*
X-5450000Y-9400000D02*
X-5772772Y-9400000D01*
X-5799933Y-9398664D01*
X-5804976Y-9398911D01*
X-5809716Y-9398678D01*
X-5819348Y-9397250D01*
X-5828779Y-9394887D01*
X-5837948Y-9391607D01*
X-5846743Y-9387447D01*
X-5855083Y-9382448D01*
X-5862908Y-9376645D01*
X-5870114Y-9370113D01*
X-5876649Y-9362903D01*
X-5882445Y-9355089D01*
X-5887448Y-9346741D01*
X-5891606Y-9337950D01*
X-5894888Y-9328777D01*
X-5897250Y-9319350D01*
X-5898678Y-9309717D01*
X-5900000Y-9282823D01*
X-5900000Y-5950429D01*
X-5839279Y-5932010D01*
X-5735045Y-5876296D01*
X-5643683Y-5801317D01*
X-5568704Y-5709955D01*
X-5512990Y-5605721D01*
X-5478682Y-5492621D01*
X-5467097Y-5375000D01*
X-5467097Y-4725000D01*
X-5478682Y-4607379D01*
X-5488504Y-4575000D01*
X-5478682Y-4542621D01*
X-5467097Y-4425000D01*
X-5470000Y-4350000D01*
X-5620000Y-4200000D01*
X-5779392Y-4200000D01*
X-5839279Y-4167990D01*
X-5952379Y-4133682D01*
X-6070000Y-4122097D01*
X-6680439Y-4122097D01*
X-6691812Y-4117056D01*
X-6705881Y-4112408D01*
X-6719448Y-4106395D01*
X-6720000Y-4106213D01*
X-6720000Y-4077903D01*
X-6070000Y-4077903D01*
X-5952379Y-4066318D01*
X-5839279Y-4032010D01*
X-5779392Y-4000000D01*
X-5620000Y-4000000D01*
X-5470000Y-3850000D01*
X-5467097Y-3775000D01*
X-5478682Y-3657379D01*
X-5488504Y-3625000D01*
X-5478682Y-3592621D01*
X-5467097Y-3475000D01*
X-5467097Y-2825000D01*
X-5478682Y-2707379D01*
X-5512990Y-2594279D01*
X-5568704Y-2490045D01*
X-5643683Y-2398683D01*
X-5735045Y-2323704D01*
X-5839279Y-2267990D01*
X-5952379Y-2233682D01*
X-6070000Y-2222097D01*
X-6962378Y-2222097D01*
X-6976374Y-2192504D01*
X-7002803Y-2148411D01*
X-7029493Y-2103880D01*
X-7029497Y-2103875D01*
X-7042816Y-2081655D01*
X-7052093Y-2066177D01*
X-7053766Y-2063920D01*
X-7078275Y-2030874D01*
X-7078276Y-2030872D01*
X-7126959Y-1965232D01*
X-7139832Y-1947874D01*
X-7169348Y-1915308D01*
X-7169349Y-1915306D01*
X-7196853Y-1884961D01*
X-7209225Y-1871310D01*
X-7209226Y-1871309D01*
X-7211486Y-1868816D01*
X-7238743Y-1838742D01*
X-7315306Y-1769349D01*
X-7315309Y-1769347D01*
X-7315616Y-1769069D01*
X-7347873Y-1739832D01*
X-7466176Y-1652093D01*
X-7503876Y-1629497D01*
X-7503881Y-1629492D01*
X-7566600Y-1591901D01*
X-7592504Y-1576374D01*
X-7600580Y-1572554D01*
X-7607080Y-1569480D01*
X-7685914Y-1532194D01*
X-7685918Y-1532193D01*
X-7725648Y-1513402D01*
X-7729412Y-1512055D01*
X-7766768Y-1498689D01*
X-7767031Y-1498595D01*
X-7767034Y-1498593D01*
X-7864325Y-1463782D01*
X-7906961Y-1453102D01*
X-7906968Y-1453099D01*
X-8007203Y-1427993D01*
X-8031605Y-1424373D01*
X-8109412Y-1412831D01*
X-8109418Y-1412831D01*
X-8139907Y-1408309D01*
X-8152898Y-1406382D01*
X-8216911Y-1403238D01*
X-8248480Y-1401687D01*
X-8265610Y-1400000D01*
X-8282823Y-1400000D01*
X-8300003Y-1399156D01*
X-8317180Y-1400000D01*
X-12582816Y-1400000D01*
X-12599997Y-1399156D01*
X-12617177Y-1400000D01*
X-12634390Y-1400000D01*
X-12651520Y-1401687D01*
X-12683100Y-1403239D01*
X-12683104Y-1403238D01*
X-12768581Y-1407438D01*
X-12786314Y-1408309D01*
X-12868620Y-1420517D01*
X-12868623Y-1420517D01*
X-12970835Y-1435680D01*
X-13051546Y-1455897D01*
X-13051549Y-1455897D01*
X-13142130Y-1478587D01*
X-13151787Y-1481006D01*
X-13230128Y-1509037D01*
X-13230130Y-1509037D01*
X-13314009Y-1539050D01*
X-13327421Y-1543849D01*
X-13401849Y-1579051D01*
X-13402639Y-1579425D01*
X-13402641Y-1579425D01*
X-13451703Y-1602630D01*
X-13496053Y-1623606D01*
X-13567420Y-1666382D01*
X-13567423Y-1666383D01*
X-13656053Y-1719506D01*
X-13686711Y-1742244D01*
X-13739050Y-1781061D01*
X-13739052Y-1781063D01*
X-13750022Y-1789199D01*
X-13805876Y-1830623D01*
X-13805882Y-1830629D01*
X-13805884Y-1830630D01*
X-13821399Y-1844692D01*
X-13867532Y-1886504D01*
X-13867539Y-1886508D01*
X-13925509Y-1939050D01*
X-13944097Y-1955897D01*
X-13944099Y-1955900D01*
X-13944102Y-1955902D01*
X-13950332Y-1962776D01*
X-14013491Y-2032460D01*
X-14013495Y-2032467D01*
X-14028518Y-2049042D01*
X-14066770Y-2091248D01*
X-14069375Y-2094122D01*
X-14118936Y-2160948D01*
X-14118938Y-2160949D01*
X-14137232Y-2185616D01*
X-14180493Y-2243946D01*
X-14223270Y-2315315D01*
X-14223271Y-2315316D01*
X-14262680Y-2381067D01*
X-14276394Y-2403948D01*
X-14311970Y-2479166D01*
X-14311970Y-2479167D01*
X-14356150Y-2572578D01*
X-14363915Y-2594279D01*
X-14384181Y-2650920D01*
X-14384182Y-2650921D01*
X-14407000Y-2714695D01*
X-14418994Y-2748216D01*
X-14439212Y-2828929D01*
X-14462653Y-2922511D01*
X-14464319Y-2929164D01*
X-14479482Y-3031377D01*
X-14479482Y-3031385D01*
X-14489748Y-3100599D01*
X-14491690Y-3113688D01*
X-14496731Y-3216291D01*
X-14498312Y-3248476D01*
X-14500000Y-3265611D01*
X-14500000Y-3282821D01*
X-14500844Y-3299998D01*
X-14500000Y-3317179D01*
X-14500000Y-3517843D01*
X-14538124Y-3529408D01*
X-14543021Y-3532025D01*
X-14569279Y-3517990D01*
X-14682379Y-3483682D01*
X-14800000Y-3472097D01*
X-14850000Y-3475000D01*
X-15000000Y-3625000D01*
X-15000000Y-4195526D01*
X-15002903Y-4225000D01*
X-15002903Y-5975000D01*
X-15000000Y-6004474D01*
X-15000000Y-6575000D01*
X-14850000Y-6725000D01*
X-14800000Y-6727903D01*
X-14682379Y-6716318D01*
X-14569279Y-6682010D01*
X-14543021Y-6667975D01*
X-14538124Y-6670592D01*
X-14396884Y-6713436D01*
X-14250000Y-6727903D01*
X-13950000Y-6727903D01*
X-13803116Y-6713436D01*
X-13661876Y-6670592D01*
X-13600000Y-6637518D01*
X-13538124Y-6670592D01*
X-13396884Y-6713436D01*
X-13250000Y-6727903D01*
X-12950000Y-6727903D01*
X-12803116Y-6713436D01*
X-12661876Y-6670592D01*
X-12600000Y-6637518D01*
X-12538124Y-6670592D01*
X-12396884Y-6713436D01*
X-12250000Y-6727903D01*
X-11950000Y-6727903D01*
X-11803116Y-6713436D01*
X-11661876Y-6670592D01*
X-11531710Y-6601016D01*
X-11417617Y-6507383D01*
X-11323984Y-6393290D01*
X-11254408Y-6263124D01*
X-11211564Y-6121884D01*
X-11197097Y-5975000D01*
X-11197097Y-4900000D01*
X-10700000Y-4900000D01*
X-10700000Y-4970562D01*
X-10700723Y-4980366D01*
X-10700000Y-5009796D01*
X-10700000Y-5039293D01*
X-10699101Y-5048423D01*
X-10699558Y-5067050D01*
X-10698112Y-5086655D01*
X-10697629Y-5106310D01*
X-10695224Y-5125809D01*
X-10694624Y-5133935D01*
X-10694142Y-5153582D01*
X-10691736Y-5173091D01*
X-10690290Y-5192693D01*
X-10686931Y-5212054D01*
X-10685933Y-5220145D01*
X-10684487Y-5239746D01*
X-10681127Y-5259110D01*
X-10678721Y-5278619D01*
X-10674415Y-5297796D01*
X-10673021Y-5305827D01*
X-10670615Y-5325335D01*
X-10666309Y-5344509D01*
X-10662949Y-5363875D01*
X-10657705Y-5382824D01*
X-10655920Y-5390775D01*
X-10652558Y-5410148D01*
X-10647314Y-5429096D01*
X-10643011Y-5448259D01*
X-10636849Y-5466912D01*
X-10634667Y-5474798D01*
X-10630364Y-5493958D01*
X-10624204Y-5512605D01*
X-10618956Y-5531568D01*
X-10611877Y-5549919D01*
X-10609332Y-5557622D01*
X-10604086Y-5576580D01*
X-10597006Y-5594933D01*
X-10590845Y-5613584D01*
X-10582885Y-5631541D01*
X-10579946Y-5639161D01*
X-10573780Y-5657825D01*
X-10565815Y-5675794D01*
X-10558745Y-5694122D01*
X-10549911Y-5711673D01*
X-10546597Y-5719150D01*
X-10539526Y-5737479D01*
X-10530696Y-5755021D01*
X-10522726Y-5773001D01*
X-10513031Y-5790114D01*
X-10509376Y-5797376D01*
X-10501410Y-5815347D01*
X-10491719Y-5832454D01*
X-10482882Y-5850010D01*
X-10472369Y-5866613D01*
X-10468357Y-5873695D01*
X-10459516Y-5891258D01*
X-10448997Y-5907869D01*
X-10439313Y-5924964D01*
X-10427998Y-5941030D01*
X-10423633Y-5947924D01*
X-10413939Y-5965035D01*
X-10402621Y-5981105D01*
X-10392114Y-5997697D01*
X-10380022Y-6013192D01*
X-10375322Y-6019865D01*
X-10364808Y-6036468D01*
X-10352711Y-6051969D01*
X-10341394Y-6068037D01*
X-10328561Y-6082914D01*
X-10323548Y-6089337D01*
X-10312229Y-6105409D01*
X-10299387Y-6120296D01*
X-10287298Y-6135787D01*
X-10273752Y-6150015D01*
X-10268427Y-6156188D01*
X-10256346Y-6171669D01*
X-10242792Y-6185906D01*
X-10229940Y-6200805D01*
X-10216439Y-6213659D01*
X-10210626Y-6220742D01*
X-10189799Y-6241569D01*
X-10169477Y-6262915D01*
X-10162021Y-6269347D01*
X-9877903Y-6553466D01*
X-9877903Y-7275000D01*
X-9861515Y-7441393D01*
X-9812980Y-7601392D01*
X-9734163Y-7748848D01*
X-9628093Y-7878093D01*
X-9498848Y-7984163D01*
X-9351392Y-8062980D01*
X-9334387Y-8068138D01*
X-9343571Y-8090311D01*
X-9382000Y-8283509D01*
X-9382000Y-8401405D01*
X-9416740Y-8286882D01*
X-9501286Y-8128707D01*
X-9615066Y-7990066D01*
X-9753707Y-7876286D01*
X-9911882Y-7791740D01*
X-10083511Y-7739677D01*
X-10262000Y-7722097D01*
X-11138000Y-7722097D01*
X-11316489Y-7739677D01*
X-11488118Y-7791740D01*
X-11646293Y-7876286D01*
X-11784934Y-7990066D01*
X-11898714Y-8128707D01*
X-11983260Y-8286882D01*
X-12035323Y-8458511D01*
X-12052903Y-8637000D01*
X-12052903Y-9813000D01*
X-12035323Y-9991489D01*
X-11983260Y-10163118D01*
X-11910095Y-10300000D01*
X-15289905Y-10300000D01*
X-15216740Y-10163118D01*
X-15164677Y-9991489D01*
X-15147097Y-9813000D01*
X-15147097Y-8637000D01*
X-15164677Y-8458511D01*
X-15216740Y-8286882D01*
X-15301286Y-8128707D01*
X-15415066Y-7990066D01*
X-15553707Y-7876286D01*
X-15711882Y-7791740D01*
X-15883511Y-7739677D01*
X-16062000Y-7722097D01*
X-16800000Y-7722097D01*
X-16800000Y-6125000D01*
X-16002903Y-6125000D01*
X-15991318Y-6242621D01*
X-15957010Y-6355721D01*
X-15901296Y-6459955D01*
X-15826317Y-6551317D01*
X-15734955Y-6626296D01*
X-15630721Y-6682010D01*
X-15517621Y-6716318D01*
X-15400000Y-6727903D01*
X-15350000Y-6725000D01*
X-15200000Y-6575000D01*
X-15200000Y-5200000D01*
X-15850000Y-5200000D01*
X-16000000Y-5350000D01*
X-16002903Y-6125000D01*
X-16800000Y-6125000D01*
X-16800000Y-4075000D01*
X-16002903Y-4075000D01*
X-16000000Y-4850000D01*
X-15850000Y-5000000D01*
X-15200000Y-5000000D01*
X-15200000Y-3625000D01*
X-15350000Y-3475000D01*
X-15400000Y-3472097D01*
X-15517621Y-3483682D01*
X-15630721Y-3517990D01*
X-15734955Y-3573704D01*
X-15826317Y-3648683D01*
X-15901296Y-3740045D01*
X-15957010Y-3844279D01*
X-15991318Y-3957379D01*
X-16002903Y-4075000D01*
X-16800000Y-4075000D01*
X-16800000Y-700000D01*
X-5450000Y-700000D01*
X-5450000Y-9400000D01*
G04 #@! TA.AperFunction,Conductor*
D21*
G36*
X-5450000Y-9400000D02*
G01*
X-5772772Y-9400000D01*
X-5799933Y-9398664D01*
X-5804976Y-9398911D01*
X-5809716Y-9398678D01*
X-5819348Y-9397250D01*
X-5828779Y-9394887D01*
X-5837948Y-9391607D01*
X-5846743Y-9387447D01*
X-5855083Y-9382448D01*
X-5862908Y-9376645D01*
X-5870114Y-9370113D01*
X-5876649Y-9362903D01*
X-5882445Y-9355089D01*
X-5887448Y-9346741D01*
X-5891606Y-9337950D01*
X-5894888Y-9328777D01*
X-5897250Y-9319350D01*
X-5898678Y-9309717D01*
X-5900000Y-9282823D01*
X-5900000Y-5950429D01*
X-5839279Y-5932010D01*
X-5735045Y-5876296D01*
X-5643683Y-5801317D01*
X-5568704Y-5709955D01*
X-5512990Y-5605721D01*
X-5478682Y-5492621D01*
X-5467097Y-5375000D01*
X-5467097Y-4725000D01*
X-5478682Y-4607379D01*
X-5488504Y-4575000D01*
X-5478682Y-4542621D01*
X-5467097Y-4425000D01*
X-5470000Y-4350000D01*
X-5620000Y-4200000D01*
X-5779392Y-4200000D01*
X-5839279Y-4167990D01*
X-5952379Y-4133682D01*
X-6070000Y-4122097D01*
X-6680439Y-4122097D01*
X-6691812Y-4117056D01*
X-6705881Y-4112408D01*
X-6719448Y-4106395D01*
X-6720000Y-4106213D01*
X-6720000Y-4077903D01*
X-6070000Y-4077903D01*
X-5952379Y-4066318D01*
X-5839279Y-4032010D01*
X-5779392Y-4000000D01*
X-5620000Y-4000000D01*
X-5470000Y-3850000D01*
X-5467097Y-3775000D01*
X-5478682Y-3657379D01*
X-5488504Y-3625000D01*
X-5478682Y-3592621D01*
X-5467097Y-3475000D01*
X-5467097Y-2825000D01*
X-5478682Y-2707379D01*
X-5512990Y-2594279D01*
X-5568704Y-2490045D01*
X-5643683Y-2398683D01*
X-5735045Y-2323704D01*
X-5839279Y-2267990D01*
X-5952379Y-2233682D01*
X-6070000Y-2222097D01*
X-6962378Y-2222097D01*
X-6976374Y-2192504D01*
X-7002803Y-2148411D01*
X-7029493Y-2103880D01*
X-7029497Y-2103875D01*
X-7042816Y-2081655D01*
X-7052093Y-2066177D01*
X-7053766Y-2063920D01*
X-7078275Y-2030874D01*
X-7078276Y-2030872D01*
X-7126959Y-1965232D01*
X-7139832Y-1947874D01*
X-7169348Y-1915308D01*
X-7169349Y-1915306D01*
X-7196853Y-1884961D01*
X-7209225Y-1871310D01*
X-7209226Y-1871309D01*
X-7211486Y-1868816D01*
X-7238743Y-1838742D01*
X-7315306Y-1769349D01*
X-7315309Y-1769347D01*
X-7315616Y-1769069D01*
X-7347873Y-1739832D01*
X-7466176Y-1652093D01*
X-7503876Y-1629497D01*
X-7503881Y-1629492D01*
X-7566600Y-1591901D01*
X-7592504Y-1576374D01*
X-7600580Y-1572554D01*
X-7607080Y-1569480D01*
X-7685914Y-1532194D01*
X-7685918Y-1532193D01*
X-7725648Y-1513402D01*
X-7729412Y-1512055D01*
X-7766768Y-1498689D01*
X-7767031Y-1498595D01*
X-7767034Y-1498593D01*
X-7864325Y-1463782D01*
X-7906961Y-1453102D01*
X-7906968Y-1453099D01*
X-8007203Y-1427993D01*
X-8031605Y-1424373D01*
X-8109412Y-1412831D01*
X-8109418Y-1412831D01*
X-8139907Y-1408309D01*
X-8152898Y-1406382D01*
X-8216911Y-1403238D01*
X-8248480Y-1401687D01*
X-8265610Y-1400000D01*
X-8282823Y-1400000D01*
X-8300003Y-1399156D01*
X-8317180Y-1400000D01*
X-12582816Y-1400000D01*
X-12599997Y-1399156D01*
X-12617177Y-1400000D01*
X-12634390Y-1400000D01*
X-12651520Y-1401687D01*
X-12683100Y-1403239D01*
X-12683104Y-1403238D01*
X-12768581Y-1407438D01*
X-12786314Y-1408309D01*
X-12868620Y-1420517D01*
X-12868623Y-1420517D01*
X-12970835Y-1435680D01*
X-13051546Y-1455897D01*
X-13051549Y-1455897D01*
X-13142130Y-1478587D01*
X-13151787Y-1481006D01*
X-13230128Y-1509037D01*
X-13230130Y-1509037D01*
X-13314009Y-1539050D01*
X-13327421Y-1543849D01*
X-13401849Y-1579051D01*
X-13402639Y-1579425D01*
X-13402641Y-1579425D01*
X-13451703Y-1602630D01*
X-13496053Y-1623606D01*
X-13567420Y-1666382D01*
X-13567423Y-1666383D01*
X-13656053Y-1719506D01*
X-13686711Y-1742244D01*
X-13739050Y-1781061D01*
X-13739052Y-1781063D01*
X-13750022Y-1789199D01*
X-13805876Y-1830623D01*
X-13805882Y-1830629D01*
X-13805884Y-1830630D01*
X-13821399Y-1844692D01*
X-13867532Y-1886504D01*
X-13867539Y-1886508D01*
X-13925509Y-1939050D01*
X-13944097Y-1955897D01*
X-13944099Y-1955900D01*
X-13944102Y-1955902D01*
X-13950332Y-1962776D01*
X-14013491Y-2032460D01*
X-14013495Y-2032467D01*
X-14028518Y-2049042D01*
X-14066770Y-2091248D01*
X-14069375Y-2094122D01*
X-14118936Y-2160948D01*
X-14118938Y-2160949D01*
X-14137232Y-2185616D01*
X-14180493Y-2243946D01*
X-14223270Y-2315315D01*
X-14223271Y-2315316D01*
X-14262680Y-2381067D01*
X-14276394Y-2403948D01*
X-14311970Y-2479166D01*
X-14311970Y-2479167D01*
X-14356150Y-2572578D01*
X-14363915Y-2594279D01*
X-14384181Y-2650920D01*
X-14384182Y-2650921D01*
X-14407000Y-2714695D01*
X-14418994Y-2748216D01*
X-14439212Y-2828929D01*
X-14462653Y-2922511D01*
X-14464319Y-2929164D01*
X-14479482Y-3031377D01*
X-14479482Y-3031385D01*
X-14489748Y-3100599D01*
X-14491690Y-3113688D01*
X-14496731Y-3216291D01*
X-14498312Y-3248476D01*
X-14500000Y-3265611D01*
X-14500000Y-3282821D01*
X-14500844Y-3299998D01*
X-14500000Y-3317179D01*
X-14500000Y-3517843D01*
X-14538124Y-3529408D01*
X-14543021Y-3532025D01*
X-14569279Y-3517990D01*
X-14682379Y-3483682D01*
X-14800000Y-3472097D01*
X-14850000Y-3475000D01*
X-15000000Y-3625000D01*
X-15000000Y-4195526D01*
X-15002903Y-4225000D01*
X-15002903Y-5975000D01*
X-15000000Y-6004474D01*
X-15000000Y-6575000D01*
X-14850000Y-6725000D01*
X-14800000Y-6727903D01*
X-14682379Y-6716318D01*
X-14569279Y-6682010D01*
X-14543021Y-6667975D01*
X-14538124Y-6670592D01*
X-14396884Y-6713436D01*
X-14250000Y-6727903D01*
X-13950000Y-6727903D01*
X-13803116Y-6713436D01*
X-13661876Y-6670592D01*
X-13600000Y-6637518D01*
X-13538124Y-6670592D01*
X-13396884Y-6713436D01*
X-13250000Y-6727903D01*
X-12950000Y-6727903D01*
X-12803116Y-6713436D01*
X-12661876Y-6670592D01*
X-12600000Y-6637518D01*
X-12538124Y-6670592D01*
X-12396884Y-6713436D01*
X-12250000Y-6727903D01*
X-11950000Y-6727903D01*
X-11803116Y-6713436D01*
X-11661876Y-6670592D01*
X-11531710Y-6601016D01*
X-11417617Y-6507383D01*
X-11323984Y-6393290D01*
X-11254408Y-6263124D01*
X-11211564Y-6121884D01*
X-11197097Y-5975000D01*
X-11197097Y-4900000D01*
X-10700000Y-4900000D01*
X-10700000Y-4970562D01*
X-10700723Y-4980366D01*
X-10700000Y-5009796D01*
X-10700000Y-5039293D01*
X-10699101Y-5048423D01*
X-10699558Y-5067050D01*
X-10698112Y-5086655D01*
X-10697629Y-5106310D01*
X-10695224Y-5125809D01*
X-10694624Y-5133935D01*
X-10694142Y-5153582D01*
X-10691736Y-5173091D01*
X-10690290Y-5192693D01*
X-10686931Y-5212054D01*
X-10685933Y-5220145D01*
X-10684487Y-5239746D01*
X-10681127Y-5259110D01*
X-10678721Y-5278619D01*
X-10674415Y-5297796D01*
X-10673021Y-5305827D01*
X-10670615Y-5325335D01*
X-10666309Y-5344509D01*
X-10662949Y-5363875D01*
X-10657705Y-5382824D01*
X-10655920Y-5390775D01*
X-10652558Y-5410148D01*
X-10647314Y-5429096D01*
X-10643011Y-5448259D01*
X-10636849Y-5466912D01*
X-10634667Y-5474798D01*
X-10630364Y-5493958D01*
X-10624204Y-5512605D01*
X-10618956Y-5531568D01*
X-10611877Y-5549919D01*
X-10609332Y-5557622D01*
X-10604086Y-5576580D01*
X-10597006Y-5594933D01*
X-10590845Y-5613584D01*
X-10582885Y-5631541D01*
X-10579946Y-5639161D01*
X-10573780Y-5657825D01*
X-10565815Y-5675794D01*
X-10558745Y-5694122D01*
X-10549911Y-5711673D01*
X-10546597Y-5719150D01*
X-10539526Y-5737479D01*
X-10530696Y-5755021D01*
X-10522726Y-5773001D01*
X-10513031Y-5790114D01*
X-10509376Y-5797376D01*
X-10501410Y-5815347D01*
X-10491719Y-5832454D01*
X-10482882Y-5850010D01*
X-10472369Y-5866613D01*
X-10468357Y-5873695D01*
X-10459516Y-5891258D01*
X-10448997Y-5907869D01*
X-10439313Y-5924964D01*
X-10427998Y-5941030D01*
X-10423633Y-5947924D01*
X-10413939Y-5965035D01*
X-10402621Y-5981105D01*
X-10392114Y-5997697D01*
X-10380022Y-6013192D01*
X-10375322Y-6019865D01*
X-10364808Y-6036468D01*
X-10352711Y-6051969D01*
X-10341394Y-6068037D01*
X-10328561Y-6082914D01*
X-10323548Y-6089337D01*
X-10312229Y-6105409D01*
X-10299387Y-6120296D01*
X-10287298Y-6135787D01*
X-10273752Y-6150015D01*
X-10268427Y-6156188D01*
X-10256346Y-6171669D01*
X-10242792Y-6185906D01*
X-10229940Y-6200805D01*
X-10216439Y-6213659D01*
X-10210626Y-6220742D01*
X-10189799Y-6241569D01*
X-10169477Y-6262915D01*
X-10162021Y-6269347D01*
X-9877903Y-6553466D01*
X-9877903Y-7275000D01*
X-9861515Y-7441393D01*
X-9812980Y-7601392D01*
X-9734163Y-7748848D01*
X-9628093Y-7878093D01*
X-9498848Y-7984163D01*
X-9351392Y-8062980D01*
X-9334387Y-8068138D01*
X-9343571Y-8090311D01*
X-9382000Y-8283509D01*
X-9382000Y-8401405D01*
X-9416740Y-8286882D01*
X-9501286Y-8128707D01*
X-9615066Y-7990066D01*
X-9753707Y-7876286D01*
X-9911882Y-7791740D01*
X-10083511Y-7739677D01*
X-10262000Y-7722097D01*
X-11138000Y-7722097D01*
X-11316489Y-7739677D01*
X-11488118Y-7791740D01*
X-11646293Y-7876286D01*
X-11784934Y-7990066D01*
X-11898714Y-8128707D01*
X-11983260Y-8286882D01*
X-12035323Y-8458511D01*
X-12052903Y-8637000D01*
X-12052903Y-9813000D01*
X-12035323Y-9991489D01*
X-11983260Y-10163118D01*
X-11910095Y-10300000D01*
X-15289905Y-10300000D01*
X-15216740Y-10163118D01*
X-15164677Y-9991489D01*
X-15147097Y-9813000D01*
X-15147097Y-8637000D01*
X-15164677Y-8458511D01*
X-15216740Y-8286882D01*
X-15301286Y-8128707D01*
X-15415066Y-7990066D01*
X-15553707Y-7876286D01*
X-15711882Y-7791740D01*
X-15883511Y-7739677D01*
X-16062000Y-7722097D01*
X-16800000Y-7722097D01*
X-16800000Y-6125000D01*
X-16002903Y-6125000D01*
X-15991318Y-6242621D01*
X-15957010Y-6355721D01*
X-15901296Y-6459955D01*
X-15826317Y-6551317D01*
X-15734955Y-6626296D01*
X-15630721Y-6682010D01*
X-15517621Y-6716318D01*
X-15400000Y-6727903D01*
X-15350000Y-6725000D01*
X-15200000Y-6575000D01*
X-15200000Y-5200000D01*
X-15850000Y-5200000D01*
X-16000000Y-5350000D01*
X-16002903Y-6125000D01*
X-16800000Y-6125000D01*
X-16800000Y-4075000D01*
X-16002903Y-4075000D01*
X-16000000Y-4850000D01*
X-15850000Y-5000000D01*
X-15200000Y-5000000D01*
X-15200000Y-3625000D01*
X-15350000Y-3475000D01*
X-15400000Y-3472097D01*
X-15517621Y-3483682D01*
X-15630721Y-3517990D01*
X-15734955Y-3573704D01*
X-15826317Y-3648683D01*
X-15901296Y-3740045D01*
X-15957010Y-3844279D01*
X-15991318Y-3957379D01*
X-16002903Y-4075000D01*
X-16800000Y-4075000D01*
X-16800000Y-700000D01*
X-5450000Y-700000D01*
X-5450000Y-9400000D01*
G37*
G04 #@! TD.AperFunction*
D17*
X-9932903Y-3357359D02*
X-9950952Y-3350901D01*
X-9951165Y-3350800D01*
X-9951411Y-3350738D01*
X-9951605Y-3350669D01*
X-9951809Y-3350639D01*
X-10010347Y-3335977D01*
X-10065268Y-3322220D01*
X-10065472Y-3322147D01*
X-10065686Y-3322115D01*
X-10065691Y-3322114D01*
X-10065695Y-3322113D01*
X-10065924Y-3322056D01*
X-10066137Y-3322046D01*
X-10139623Y-3311147D01*
X-10182515Y-3304784D01*
X-10182751Y-3304796D01*
X-10184349Y-3304717D01*
X-10241138Y-3301927D01*
X-10260707Y-3300000D01*
X-10280371Y-3300000D01*
X-10299994Y-3299036D01*
X-10300022Y-3299037D01*
X-10300254Y-3299026D01*
X-10300483Y-3299060D01*
X-10319617Y-3300000D01*
X-12055793Y-3300000D01*
X-12100000Y-3295646D01*
X-12276430Y-3313023D01*
X-12446080Y-3364486D01*
X-12602431Y-3448057D01*
X-12690849Y-3520619D01*
X-12700000Y-3517843D01*
X-12700000Y-3317176D01*
X-12698678Y-3290282D01*
X-12697250Y-3280649D01*
X-12694888Y-3271222D01*
X-12691606Y-3262049D01*
X-12687448Y-3253258D01*
X-12682445Y-3244910D01*
X-12676649Y-3237096D01*
X-12670114Y-3229886D01*
X-12662908Y-3223354D01*
X-12655083Y-3217551D01*
X-12646743Y-3212552D01*
X-12637948Y-3208392D01*
X-12628779Y-3205112D01*
X-12619348Y-3202749D01*
X-12609722Y-3201321D01*
X-12582826Y-3200000D01*
X-9932903Y-3200000D01*
X-9932903Y-3357359D01*
G04 #@! TA.AperFunction,Conductor*
D21*
G36*
X-9932903Y-3357359D02*
G01*
X-9950952Y-3350901D01*
X-9951165Y-3350800D01*
X-9951411Y-3350738D01*
X-9951605Y-3350669D01*
X-9951809Y-3350639D01*
X-10010347Y-3335977D01*
X-10065268Y-3322220D01*
X-10065472Y-3322147D01*
X-10065686Y-3322115D01*
X-10065691Y-3322114D01*
X-10065695Y-3322113D01*
X-10065924Y-3322056D01*
X-10066137Y-3322046D01*
X-10139623Y-3311147D01*
X-10182515Y-3304784D01*
X-10182751Y-3304796D01*
X-10184349Y-3304717D01*
X-10241138Y-3301927D01*
X-10260707Y-3300000D01*
X-10280371Y-3300000D01*
X-10299994Y-3299036D01*
X-10300022Y-3299037D01*
X-10300254Y-3299026D01*
X-10300483Y-3299060D01*
X-10319617Y-3300000D01*
X-12055793Y-3300000D01*
X-12100000Y-3295646D01*
X-12276430Y-3313023D01*
X-12446080Y-3364486D01*
X-12602431Y-3448057D01*
X-12690849Y-3520619D01*
X-12700000Y-3517843D01*
X-12700000Y-3317176D01*
X-12698678Y-3290282D01*
X-12697250Y-3280649D01*
X-12694888Y-3271222D01*
X-12691606Y-3262049D01*
X-12687448Y-3253258D01*
X-12682445Y-3244910D01*
X-12676649Y-3237096D01*
X-12670114Y-3229886D01*
X-12662908Y-3223354D01*
X-12655083Y-3217551D01*
X-12646743Y-3212552D01*
X-12637948Y-3208392D01*
X-12628779Y-3205112D01*
X-12619348Y-3202749D01*
X-12609722Y-3201321D01*
X-12582826Y-3200000D01*
X-9932903Y-3200000D01*
X-9932903Y-3357359D01*
G37*
G04 #@! TD.AperFunction*
M02*
