G04 #@! TF.GenerationSoftware,KiCad,Pcbnew,(5.1.10)-1*
G04 #@! TF.CreationDate,2021-08-18T11:57:54+08:00*
G04 #@! TF.ProjectId,dboard,64626f61-7264-42e6-9b69-6361645f7063,rev?*
G04 #@! TF.SameCoordinates,Original*
G04 #@! TF.FileFunction,Soldermask,Top*
G04 #@! TF.FilePolarity,Negative*
%FSLAX46Y46*%
G04 Gerber Fmt 4.6, Leading zero omitted, Abs format (unit mm)*
G04 Created by KiCad (PCBNEW (5.1.10)-1) date 2021-08-18 11:57:54*
%MOMM*%
%LPD*%
G01*
G04 APERTURE LIST*
%ADD10C,0.752000*%
%ADD11O,1.002000X2.502000*%
%ADD12O,1.002000X1.802000*%
%ADD13C,6.102000*%
%ADD14C,0.902000*%
%ADD15C,0.100000*%
G04 APERTURE END LIST*
D10*
X-1275000Y-8640000D03*
X-2975000Y-8640000D03*
X-2125000Y-8640000D03*
X-425000Y-8640000D03*
X425000Y-8640000D03*
X1275000Y-8640000D03*
X2125000Y-8640000D03*
X2975000Y-8640000D03*
X-2975000Y-7315000D03*
X-2120000Y-7315000D03*
X-1270000Y-7315000D03*
X-420000Y-7315000D03*
X430000Y-7315000D03*
X1280000Y-7315000D03*
X2130000Y-7315000D03*
X2980000Y-7315000D03*
D11*
X-4325000Y-7660000D03*
X4325000Y-7660000D03*
D12*
X-4325000Y-4280000D03*
X4325000Y-4280000D03*
D13*
X17000000Y-5500000D03*
D14*
X19300000Y-5500000D03*
X18626346Y-7126346D03*
X17000000Y-7800000D03*
X15373654Y-7126346D03*
X14700000Y-5500000D03*
X15373654Y-3873654D03*
X17000000Y-3200000D03*
X18626346Y-3873654D03*
D13*
X-21000000Y-5500000D03*
D14*
X-18700000Y-5500000D03*
X-19373654Y-7126346D03*
X-21000000Y-7800000D03*
X-22626346Y-7126346D03*
X-23300000Y-5500000D03*
X-22626346Y-3873654D03*
X-21000000Y-3200000D03*
X-19373654Y-3873654D03*
D15*
G36*
X-1798490Y-8451551D02*
G01*
X-1786966Y-8465593D01*
X-1768329Y-8480888D01*
X-1747066Y-8492253D01*
X-1723991Y-8499253D01*
X-1700000Y-8501616D01*
X-1676008Y-8499253D01*
X-1652934Y-8492253D01*
X-1631670Y-8480888D01*
X-1613033Y-8465592D01*
X-1601510Y-8451551D01*
X-1599638Y-8450847D01*
X-1598092Y-8452116D01*
X-1598301Y-8453931D01*
X-1604829Y-8463702D01*
X-1632886Y-8531435D01*
X-1647189Y-8603345D01*
X-1647189Y-8676655D01*
X-1632886Y-8748565D01*
X-1604829Y-8816298D01*
X-1598301Y-8826069D01*
X-1598170Y-8828065D01*
X-1599833Y-8829176D01*
X-1601510Y-8828449D01*
X-1613034Y-8814407D01*
X-1631671Y-8799112D01*
X-1652934Y-8787747D01*
X-1676009Y-8780747D01*
X-1700000Y-8778384D01*
X-1723992Y-8780747D01*
X-1747066Y-8787747D01*
X-1768330Y-8799112D01*
X-1786967Y-8814408D01*
X-1798490Y-8828449D01*
X-1800362Y-8829153D01*
X-1801908Y-8827884D01*
X-1801699Y-8826069D01*
X-1795171Y-8816298D01*
X-1767114Y-8748565D01*
X-1752811Y-8676655D01*
X-1752811Y-8603345D01*
X-1767114Y-8531435D01*
X-1795171Y-8463702D01*
X-1801699Y-8453931D01*
X-1801830Y-8451935D01*
X-1800167Y-8450824D01*
X-1798490Y-8451551D01*
G37*
G36*
X-948490Y-8451551D02*
G01*
X-936966Y-8465593D01*
X-918329Y-8480888D01*
X-897066Y-8492253D01*
X-873991Y-8499253D01*
X-850000Y-8501616D01*
X-826008Y-8499253D01*
X-802934Y-8492253D01*
X-781670Y-8480888D01*
X-763033Y-8465592D01*
X-751510Y-8451551D01*
X-749638Y-8450847D01*
X-748092Y-8452116D01*
X-748301Y-8453931D01*
X-754829Y-8463702D01*
X-782886Y-8531435D01*
X-797189Y-8603345D01*
X-797189Y-8676655D01*
X-782886Y-8748565D01*
X-754829Y-8816298D01*
X-748301Y-8826069D01*
X-748170Y-8828065D01*
X-749833Y-8829176D01*
X-751510Y-8828449D01*
X-763034Y-8814407D01*
X-781671Y-8799112D01*
X-802934Y-8787747D01*
X-826009Y-8780747D01*
X-850000Y-8778384D01*
X-873992Y-8780747D01*
X-897066Y-8787747D01*
X-918330Y-8799112D01*
X-936967Y-8814408D01*
X-948490Y-8828449D01*
X-950362Y-8829153D01*
X-951908Y-8827884D01*
X-951699Y-8826069D01*
X-945171Y-8816298D01*
X-917114Y-8748565D01*
X-902811Y-8676655D01*
X-902811Y-8603345D01*
X-917114Y-8531435D01*
X-945171Y-8463702D01*
X-951699Y-8453931D01*
X-951830Y-8451935D01*
X-950167Y-8450824D01*
X-948490Y-8451551D01*
G37*
G36*
X2451510Y-8451551D02*
G01*
X2463034Y-8465593D01*
X2481671Y-8480888D01*
X2502934Y-8492253D01*
X2526009Y-8499253D01*
X2550000Y-8501616D01*
X2573992Y-8499253D01*
X2597066Y-8492253D01*
X2618330Y-8480888D01*
X2636967Y-8465592D01*
X2648490Y-8451551D01*
X2650362Y-8450847D01*
X2651908Y-8452116D01*
X2651699Y-8453931D01*
X2645171Y-8463702D01*
X2617114Y-8531435D01*
X2602811Y-8603345D01*
X2602811Y-8676655D01*
X2617114Y-8748565D01*
X2645171Y-8816298D01*
X2651699Y-8826069D01*
X2651830Y-8828065D01*
X2650167Y-8829176D01*
X2648490Y-8828449D01*
X2636966Y-8814407D01*
X2618329Y-8799112D01*
X2597066Y-8787747D01*
X2573991Y-8780747D01*
X2550000Y-8778384D01*
X2526008Y-8780747D01*
X2502934Y-8787747D01*
X2481670Y-8799112D01*
X2463033Y-8814408D01*
X2451510Y-8828449D01*
X2449638Y-8829153D01*
X2448092Y-8827884D01*
X2448301Y-8826069D01*
X2454829Y-8816298D01*
X2482886Y-8748565D01*
X2497189Y-8676655D01*
X2497189Y-8603345D01*
X2482886Y-8531435D01*
X2454829Y-8463702D01*
X2448301Y-8453931D01*
X2448170Y-8451935D01*
X2449833Y-8450824D01*
X2451510Y-8451551D01*
G37*
G36*
X1601510Y-8451551D02*
G01*
X1613034Y-8465593D01*
X1631671Y-8480888D01*
X1652934Y-8492253D01*
X1676009Y-8499253D01*
X1700000Y-8501616D01*
X1723992Y-8499253D01*
X1747066Y-8492253D01*
X1768330Y-8480888D01*
X1786967Y-8465592D01*
X1798490Y-8451551D01*
X1800362Y-8450847D01*
X1801908Y-8452116D01*
X1801699Y-8453931D01*
X1795171Y-8463702D01*
X1767114Y-8531435D01*
X1752811Y-8603345D01*
X1752811Y-8676655D01*
X1767114Y-8748565D01*
X1795171Y-8816298D01*
X1801699Y-8826069D01*
X1801830Y-8828065D01*
X1800167Y-8829176D01*
X1798490Y-8828449D01*
X1786966Y-8814407D01*
X1768329Y-8799112D01*
X1747066Y-8787747D01*
X1723991Y-8780747D01*
X1700000Y-8778384D01*
X1676008Y-8780747D01*
X1652934Y-8787747D01*
X1631670Y-8799112D01*
X1613033Y-8814408D01*
X1601510Y-8828449D01*
X1599638Y-8829153D01*
X1598092Y-8827884D01*
X1598301Y-8826069D01*
X1604829Y-8816298D01*
X1632886Y-8748565D01*
X1647189Y-8676655D01*
X1647189Y-8603345D01*
X1632886Y-8531435D01*
X1604829Y-8463702D01*
X1598301Y-8453931D01*
X1598170Y-8451935D01*
X1599833Y-8450824D01*
X1601510Y-8451551D01*
G37*
G36*
X751510Y-8451551D02*
G01*
X763034Y-8465593D01*
X781671Y-8480888D01*
X802934Y-8492253D01*
X826009Y-8499253D01*
X850000Y-8501616D01*
X873992Y-8499253D01*
X897066Y-8492253D01*
X918330Y-8480888D01*
X936967Y-8465592D01*
X948490Y-8451551D01*
X950362Y-8450847D01*
X951908Y-8452116D01*
X951699Y-8453931D01*
X945171Y-8463702D01*
X917114Y-8531435D01*
X902811Y-8603345D01*
X902811Y-8676655D01*
X917114Y-8748565D01*
X945171Y-8816298D01*
X951699Y-8826069D01*
X951830Y-8828065D01*
X950167Y-8829176D01*
X948490Y-8828449D01*
X936966Y-8814407D01*
X918329Y-8799112D01*
X897066Y-8787747D01*
X873991Y-8780747D01*
X850000Y-8778384D01*
X826008Y-8780747D01*
X802934Y-8787747D01*
X781670Y-8799112D01*
X763033Y-8814408D01*
X751510Y-8828449D01*
X749638Y-8829153D01*
X748092Y-8827884D01*
X748301Y-8826069D01*
X754829Y-8816298D01*
X782886Y-8748565D01*
X797189Y-8676655D01*
X797189Y-8603345D01*
X782886Y-8531435D01*
X754829Y-8463702D01*
X748301Y-8453931D01*
X748170Y-8451935D01*
X749833Y-8450824D01*
X751510Y-8451551D01*
G37*
G36*
X-98490Y-8451551D02*
G01*
X-86966Y-8465593D01*
X-68329Y-8480888D01*
X-47066Y-8492253D01*
X-23991Y-8499253D01*
X0Y-8501616D01*
X23992Y-8499253D01*
X47066Y-8492253D01*
X68330Y-8480888D01*
X86967Y-8465592D01*
X98490Y-8451551D01*
X100362Y-8450847D01*
X101908Y-8452116D01*
X101699Y-8453931D01*
X95171Y-8463702D01*
X67114Y-8531435D01*
X52811Y-8603345D01*
X52811Y-8676655D01*
X67114Y-8748565D01*
X95171Y-8816298D01*
X101699Y-8826069D01*
X101830Y-8828065D01*
X100167Y-8829176D01*
X98490Y-8828449D01*
X86966Y-8814407D01*
X68329Y-8799112D01*
X47066Y-8787747D01*
X23991Y-8780747D01*
X0Y-8778384D01*
X-23992Y-8780747D01*
X-47066Y-8787747D01*
X-68330Y-8799112D01*
X-86967Y-8814408D01*
X-98490Y-8828449D01*
X-100362Y-8829153D01*
X-101908Y-8827884D01*
X-101699Y-8826069D01*
X-95171Y-8816298D01*
X-67114Y-8748565D01*
X-52811Y-8676655D01*
X-52811Y-8603345D01*
X-67114Y-8531435D01*
X-95171Y-8463702D01*
X-101699Y-8453931D01*
X-101830Y-8451935D01*
X-100167Y-8450824D01*
X-98490Y-8451551D01*
G37*
G36*
X-2648490Y-8451551D02*
G01*
X-2636966Y-8465593D01*
X-2618329Y-8480888D01*
X-2597066Y-8492253D01*
X-2573991Y-8499253D01*
X-2550000Y-8501616D01*
X-2526008Y-8499253D01*
X-2502934Y-8492253D01*
X-2481670Y-8480888D01*
X-2463033Y-8465592D01*
X-2451510Y-8451551D01*
X-2449638Y-8450847D01*
X-2448092Y-8452116D01*
X-2448301Y-8453931D01*
X-2454829Y-8463702D01*
X-2482886Y-8531435D01*
X-2497189Y-8603345D01*
X-2497189Y-8676655D01*
X-2482886Y-8748565D01*
X-2454829Y-8816298D01*
X-2448301Y-8826069D01*
X-2448170Y-8828065D01*
X-2449833Y-8829176D01*
X-2451510Y-8828449D01*
X-2463034Y-8814407D01*
X-2481671Y-8799112D01*
X-2502934Y-8787747D01*
X-2526009Y-8780747D01*
X-2550000Y-8778384D01*
X-2573992Y-8780747D01*
X-2597066Y-8787747D01*
X-2618330Y-8799112D01*
X-2636967Y-8814408D01*
X-2648490Y-8828449D01*
X-2650362Y-8829153D01*
X-2651908Y-8827884D01*
X-2651699Y-8826069D01*
X-2645171Y-8816298D01*
X-2617114Y-8748565D01*
X-2602811Y-8676655D01*
X-2602811Y-8603345D01*
X-2617114Y-8531435D01*
X-2645171Y-8463702D01*
X-2651699Y-8453931D01*
X-2651830Y-8451935D01*
X-2650167Y-8450824D01*
X-2648490Y-8451551D01*
G37*
G36*
X2456510Y-7126551D02*
G01*
X2468034Y-7140593D01*
X2486671Y-7155888D01*
X2507934Y-7167253D01*
X2531009Y-7174253D01*
X2555000Y-7176616D01*
X2578992Y-7174253D01*
X2602066Y-7167253D01*
X2623330Y-7155888D01*
X2641967Y-7140592D01*
X2653490Y-7126551D01*
X2655362Y-7125847D01*
X2656908Y-7127116D01*
X2656699Y-7128931D01*
X2650171Y-7138702D01*
X2622114Y-7206435D01*
X2607811Y-7278345D01*
X2607811Y-7351655D01*
X2622114Y-7423565D01*
X2650171Y-7491298D01*
X2656699Y-7501069D01*
X2656830Y-7503065D01*
X2655167Y-7504176D01*
X2653490Y-7503449D01*
X2641966Y-7489407D01*
X2623329Y-7474112D01*
X2602066Y-7462747D01*
X2578991Y-7455747D01*
X2555000Y-7453384D01*
X2531008Y-7455747D01*
X2507934Y-7462747D01*
X2486670Y-7474112D01*
X2468033Y-7489408D01*
X2456510Y-7503449D01*
X2454638Y-7504153D01*
X2453092Y-7502884D01*
X2453301Y-7501069D01*
X2459829Y-7491298D01*
X2487886Y-7423565D01*
X2502189Y-7351655D01*
X2502189Y-7278345D01*
X2487886Y-7206435D01*
X2459829Y-7138702D01*
X2453301Y-7128931D01*
X2453170Y-7126935D01*
X2454833Y-7125824D01*
X2456510Y-7126551D01*
G37*
G36*
X-1793490Y-7126551D02*
G01*
X-1781966Y-7140593D01*
X-1763329Y-7155888D01*
X-1742066Y-7167253D01*
X-1718991Y-7174253D01*
X-1695000Y-7176616D01*
X-1671008Y-7174253D01*
X-1647934Y-7167253D01*
X-1626670Y-7155888D01*
X-1608033Y-7140592D01*
X-1596510Y-7126551D01*
X-1594638Y-7125847D01*
X-1593092Y-7127116D01*
X-1593301Y-7128931D01*
X-1599829Y-7138702D01*
X-1627886Y-7206435D01*
X-1642189Y-7278345D01*
X-1642189Y-7351655D01*
X-1627886Y-7423565D01*
X-1599829Y-7491298D01*
X-1593301Y-7501069D01*
X-1593170Y-7503065D01*
X-1594833Y-7504176D01*
X-1596510Y-7503449D01*
X-1608034Y-7489407D01*
X-1626671Y-7474112D01*
X-1647934Y-7462747D01*
X-1671009Y-7455747D01*
X-1695000Y-7453384D01*
X-1718992Y-7455747D01*
X-1742066Y-7462747D01*
X-1763330Y-7474112D01*
X-1781967Y-7489408D01*
X-1793490Y-7503449D01*
X-1795362Y-7504153D01*
X-1796908Y-7502884D01*
X-1796699Y-7501069D01*
X-1790171Y-7491298D01*
X-1762114Y-7423565D01*
X-1747811Y-7351655D01*
X-1747811Y-7278345D01*
X-1762114Y-7206435D01*
X-1790171Y-7138702D01*
X-1796699Y-7128931D01*
X-1796830Y-7126935D01*
X-1795167Y-7125824D01*
X-1793490Y-7126551D01*
G37*
G36*
X-93490Y-7126551D02*
G01*
X-81966Y-7140593D01*
X-63329Y-7155888D01*
X-42066Y-7167253D01*
X-18991Y-7174253D01*
X5000Y-7176616D01*
X28992Y-7174253D01*
X52066Y-7167253D01*
X73330Y-7155888D01*
X91967Y-7140592D01*
X103490Y-7126551D01*
X105362Y-7125847D01*
X106908Y-7127116D01*
X106699Y-7128931D01*
X100171Y-7138702D01*
X72114Y-7206435D01*
X57811Y-7278345D01*
X57811Y-7351655D01*
X72114Y-7423565D01*
X100171Y-7491298D01*
X106699Y-7501069D01*
X106830Y-7503065D01*
X105167Y-7504176D01*
X103490Y-7503449D01*
X91966Y-7489407D01*
X73329Y-7474112D01*
X52066Y-7462747D01*
X28991Y-7455747D01*
X5000Y-7453384D01*
X-18992Y-7455747D01*
X-42066Y-7462747D01*
X-63330Y-7474112D01*
X-81967Y-7489408D01*
X-93490Y-7503449D01*
X-95362Y-7504153D01*
X-96908Y-7502884D01*
X-96699Y-7501069D01*
X-90171Y-7491298D01*
X-62114Y-7423565D01*
X-47811Y-7351655D01*
X-47811Y-7278345D01*
X-62114Y-7206435D01*
X-90171Y-7138702D01*
X-96699Y-7128931D01*
X-96830Y-7126935D01*
X-95167Y-7125824D01*
X-93490Y-7126551D01*
G37*
G36*
X-943490Y-7126551D02*
G01*
X-931966Y-7140593D01*
X-913329Y-7155888D01*
X-892066Y-7167253D01*
X-868991Y-7174253D01*
X-845000Y-7176616D01*
X-821008Y-7174253D01*
X-797934Y-7167253D01*
X-776670Y-7155888D01*
X-758033Y-7140592D01*
X-746510Y-7126551D01*
X-744638Y-7125847D01*
X-743092Y-7127116D01*
X-743301Y-7128931D01*
X-749829Y-7138702D01*
X-777886Y-7206435D01*
X-792189Y-7278345D01*
X-792189Y-7351655D01*
X-777886Y-7423565D01*
X-749829Y-7491298D01*
X-743301Y-7501069D01*
X-743170Y-7503065D01*
X-744833Y-7504176D01*
X-746510Y-7503449D01*
X-758034Y-7489407D01*
X-776671Y-7474112D01*
X-797934Y-7462747D01*
X-821009Y-7455747D01*
X-845000Y-7453384D01*
X-868992Y-7455747D01*
X-892066Y-7462747D01*
X-913330Y-7474112D01*
X-931967Y-7489408D01*
X-943490Y-7503449D01*
X-945362Y-7504153D01*
X-946908Y-7502884D01*
X-946699Y-7501069D01*
X-940171Y-7491298D01*
X-912114Y-7423565D01*
X-897811Y-7351655D01*
X-897811Y-7278345D01*
X-912114Y-7206435D01*
X-940171Y-7138702D01*
X-946699Y-7128931D01*
X-946830Y-7126935D01*
X-945167Y-7125824D01*
X-943490Y-7126551D01*
G37*
G36*
X1606510Y-7126551D02*
G01*
X1618034Y-7140593D01*
X1636671Y-7155888D01*
X1657934Y-7167253D01*
X1681009Y-7174253D01*
X1705000Y-7176616D01*
X1728992Y-7174253D01*
X1752066Y-7167253D01*
X1773330Y-7155888D01*
X1791967Y-7140592D01*
X1803490Y-7126551D01*
X1805362Y-7125847D01*
X1806908Y-7127116D01*
X1806699Y-7128931D01*
X1800171Y-7138702D01*
X1772114Y-7206435D01*
X1757811Y-7278345D01*
X1757811Y-7351655D01*
X1772114Y-7423565D01*
X1800171Y-7491298D01*
X1806699Y-7501069D01*
X1806830Y-7503065D01*
X1805167Y-7504176D01*
X1803490Y-7503449D01*
X1791966Y-7489407D01*
X1773329Y-7474112D01*
X1752066Y-7462747D01*
X1728991Y-7455747D01*
X1705000Y-7453384D01*
X1681008Y-7455747D01*
X1657934Y-7462747D01*
X1636670Y-7474112D01*
X1618033Y-7489408D01*
X1606510Y-7503449D01*
X1604638Y-7504153D01*
X1603092Y-7502884D01*
X1603301Y-7501069D01*
X1609829Y-7491298D01*
X1637886Y-7423565D01*
X1652189Y-7351655D01*
X1652189Y-7278345D01*
X1637886Y-7206435D01*
X1609829Y-7138702D01*
X1603301Y-7128931D01*
X1603170Y-7126935D01*
X1604833Y-7125824D01*
X1606510Y-7126551D01*
G37*
G36*
X756510Y-7126551D02*
G01*
X768034Y-7140593D01*
X786671Y-7155888D01*
X807934Y-7167253D01*
X831009Y-7174253D01*
X855000Y-7176616D01*
X878992Y-7174253D01*
X902066Y-7167253D01*
X923330Y-7155888D01*
X941967Y-7140592D01*
X953490Y-7126551D01*
X955362Y-7125847D01*
X956908Y-7127116D01*
X956699Y-7128931D01*
X950171Y-7138702D01*
X922114Y-7206435D01*
X907811Y-7278345D01*
X907811Y-7351655D01*
X922114Y-7423565D01*
X950171Y-7491298D01*
X956699Y-7501069D01*
X956830Y-7503065D01*
X955167Y-7504176D01*
X953490Y-7503449D01*
X941966Y-7489407D01*
X923329Y-7474112D01*
X902066Y-7462747D01*
X878991Y-7455747D01*
X855000Y-7453384D01*
X831008Y-7455747D01*
X807934Y-7462747D01*
X786670Y-7474112D01*
X768033Y-7489408D01*
X756510Y-7503449D01*
X754638Y-7504153D01*
X753092Y-7502884D01*
X753301Y-7501069D01*
X759829Y-7491298D01*
X787886Y-7423565D01*
X802189Y-7351655D01*
X802189Y-7278345D01*
X787886Y-7206435D01*
X759829Y-7138702D01*
X753301Y-7128931D01*
X753170Y-7126935D01*
X754833Y-7125824D01*
X756510Y-7126551D01*
G37*
G36*
X-2645993Y-7130289D02*
G01*
X-2634466Y-7144334D01*
X-2615829Y-7159629D01*
X-2594565Y-7170994D01*
X-2571490Y-7177994D01*
X-2547499Y-7180357D01*
X-2523508Y-7177994D01*
X-2500433Y-7170994D01*
X-2479169Y-7159628D01*
X-2460533Y-7144333D01*
X-2449007Y-7130289D01*
X-2447135Y-7129585D01*
X-2445589Y-7130854D01*
X-2445798Y-7132669D01*
X-2449829Y-7138702D01*
X-2477886Y-7206435D01*
X-2492189Y-7278345D01*
X-2492189Y-7351655D01*
X-2477886Y-7423565D01*
X-2449829Y-7491298D01*
X-2445798Y-7497331D01*
X-2445667Y-7499327D01*
X-2447330Y-7500438D01*
X-2449007Y-7499711D01*
X-2460534Y-7485666D01*
X-2479171Y-7470371D01*
X-2500435Y-7459006D01*
X-2523510Y-7452006D01*
X-2547501Y-7449643D01*
X-2571492Y-7452006D01*
X-2594567Y-7459006D01*
X-2615831Y-7470372D01*
X-2634467Y-7485667D01*
X-2645993Y-7499711D01*
X-2647865Y-7500415D01*
X-2649411Y-7499146D01*
X-2649202Y-7497331D01*
X-2645171Y-7491298D01*
X-2617114Y-7423565D01*
X-2602811Y-7351655D01*
X-2602811Y-7278345D01*
X-2617114Y-7206435D01*
X-2645171Y-7138702D01*
X-2649202Y-7132669D01*
X-2649333Y-7130673D01*
X-2647670Y-7129562D01*
X-2645993Y-7130289D01*
G37*
M02*
