G04 #@! TF.GenerationSoftware,KiCad,Pcbnew,(5.1.10)-1*
G04 #@! TF.CreationDate,2021-08-18T11:57:54+08:00*
G04 #@! TF.ProjectId,dboard,64626f61-7264-42e6-9b69-6361645f7063,rev?*
G04 #@! TF.SameCoordinates,Original*
G04 #@! TF.FileFunction,Copper,L1,Top*
G04 #@! TF.FilePolarity,Positive*
%FSLAX46Y46*%
G04 Gerber Fmt 4.6, Leading zero omitted, Abs format (unit mm)*
G04 Created by KiCad (PCBNEW (5.1.10)-1) date 2021-08-18 11:57:54*
%MOMM*%
%LPD*%
G01*
G04 APERTURE LIST*
G04 #@! TA.AperFunction,ComponentPad*
%ADD10C,0.650000*%
G04 #@! TD*
G04 #@! TA.AperFunction,ComponentPad*
%ADD11O,0.900000X2.400000*%
G04 #@! TD*
G04 #@! TA.AperFunction,ComponentPad*
%ADD12O,0.900000X1.700000*%
G04 #@! TD*
G04 #@! TA.AperFunction,ComponentPad*
%ADD13C,6.000000*%
G04 #@! TD*
G04 #@! TA.AperFunction,ComponentPad*
%ADD14C,0.800000*%
G04 #@! TD*
G04 #@! TA.AperFunction,ViaPad*
%ADD15C,0.800000*%
G04 #@! TD*
G04 #@! TA.AperFunction,Conductor*
%ADD16C,0.400000*%
G04 #@! TD*
G04 #@! TA.AperFunction,Conductor*
%ADD17C,0.200000*%
G04 #@! TD*
G04 #@! TA.AperFunction,Conductor*
%ADD18C,0.100000*%
G04 #@! TD*
G04 APERTURE END LIST*
D10*
X-1275000Y-8640000D03*
X-2975000Y-8640000D03*
X-2125000Y-8640000D03*
X-425000Y-8640000D03*
X425000Y-8640000D03*
X1275000Y-8640000D03*
X2125000Y-8640000D03*
X2975000Y-8640000D03*
X-2975000Y-7315000D03*
X-2120000Y-7315000D03*
X-1270000Y-7315000D03*
X-420000Y-7315000D03*
X430000Y-7315000D03*
X1280000Y-7315000D03*
X2130000Y-7315000D03*
X2980000Y-7315000D03*
D11*
X-4325000Y-7660000D03*
X4325000Y-7660000D03*
D12*
X-4325000Y-4280000D03*
X4325000Y-4280000D03*
D13*
X17000000Y-5500000D03*
D14*
X19300000Y-5500000D03*
X18626346Y-7126346D03*
X17000000Y-7800000D03*
X15373654Y-7126346D03*
X14700000Y-5500000D03*
X15373654Y-3873654D03*
X17000000Y-3200000D03*
X18626346Y-3873654D03*
D13*
X-21000000Y-5500000D03*
D14*
X-18700000Y-5500000D03*
X-19373654Y-7126346D03*
X-21000000Y-7800000D03*
X-22626346Y-7126346D03*
X-23300000Y-5500000D03*
X-22626346Y-3873654D03*
X-21000000Y-3200000D03*
X-19373654Y-3873654D03*
D15*
X-10100000Y-3300000D03*
X-12500000Y-3300000D03*
X-15100000Y-7100000D03*
X-15100000Y-3100000D03*
X-16400000Y-5100000D03*
X-8382000Y-8382000D03*
X1307716Y-10122285D03*
D16*
X17000000Y-5500000D02*
X17000000Y-1500000D01*
X17000000Y-5500000D02*
X21000000Y-5500000D01*
X17000000Y-5500000D02*
X17000000Y-9500000D01*
X17000000Y-5500000D02*
X12500000Y-5500000D01*
X-2120000Y-8635000D02*
X-2125000Y-8640000D01*
X-2120000Y-7315000D02*
X-2120000Y-8635000D01*
X2130000Y-8635000D02*
X2125000Y-8640000D01*
X2130000Y-7315000D02*
X2130000Y-8635000D01*
X-8382000Y-8382000D02*
X-6985000Y-9779000D01*
X-2125000Y-9099619D02*
X-2125000Y-8640000D01*
X-2804381Y-9779000D02*
X-2125000Y-9099619D01*
X-6985000Y-9779000D02*
X-2804381Y-9779000D01*
D17*
X-252334Y-10122285D02*
X1307716Y-10122285D01*
X-1275000Y-9099619D02*
X-252334Y-10122285D01*
X-1275000Y-8640000D02*
X-1275000Y-9099619D01*
X425000Y-8564998D02*
X425000Y-8640000D01*
X-420000Y-7719998D02*
X425000Y-8564998D01*
X-420000Y-7315000D02*
X-420000Y-7719998D01*
D16*
X17808329Y-771104D02*
X18593539Y-974904D01*
X19333186Y-1308091D01*
X20006124Y-1761139D01*
X20593106Y-2321093D01*
X21077346Y-2971936D01*
X21445006Y-3695070D01*
X21685572Y-4469816D01*
X21792159Y-5274007D01*
X21761725Y-6084665D01*
X21595139Y-6878609D01*
X21297164Y-7633131D01*
X20876319Y-8326660D01*
X20344640Y-8939367D01*
X19717327Y-9453731D01*
X19012315Y-9855048D01*
X18249761Y-10131841D01*
X17438489Y-10278544D01*
X16983502Y-10300000D01*
X2291958Y-10300000D01*
X2307716Y-10220776D01*
X2307716Y-10023794D01*
X2269287Y-9830596D01*
X2193905Y-9648607D01*
X2138040Y-9565000D01*
X2216105Y-9565000D01*
X2394813Y-9529453D01*
X2550000Y-9465173D01*
X2705187Y-9529453D01*
X2883895Y-9565000D01*
X3066105Y-9565000D01*
X3244813Y-9529453D01*
X3413152Y-9459725D01*
X3564653Y-9358495D01*
X3681181Y-9241967D01*
X3824798Y-9338599D01*
X4015570Y-9418341D01*
X4062722Y-9426715D01*
X4225000Y-9304427D01*
X4225000Y-7760000D01*
X4425000Y-7760000D01*
X4425000Y-9304427D01*
X4587278Y-9426715D01*
X4634430Y-9418341D01*
X4825202Y-9338599D01*
X4996752Y-9223172D01*
X5142487Y-9076495D01*
X5256806Y-8904205D01*
X5335316Y-8712923D01*
X5375000Y-8510000D01*
X5375000Y-8021527D01*
X14619895Y-8021527D01*
X14955449Y-8484214D01*
X15576926Y-8825746D01*
X16253091Y-9039470D01*
X16957959Y-9117176D01*
X17664443Y-9055875D01*
X18345392Y-8857923D01*
X18974640Y-8530928D01*
X19044551Y-8484214D01*
X19380105Y-8021527D01*
X19155948Y-7797370D01*
X19155948Y-7797369D01*
X17000000Y-5641421D01*
X14844052Y-7797369D01*
X14844052Y-7797370D01*
X14619895Y-8021527D01*
X5375000Y-8021527D01*
X5375000Y-7760000D01*
X4425000Y-7760000D01*
X4225000Y-7760000D01*
X4205000Y-7760000D01*
X4205000Y-7560000D01*
X4225000Y-7560000D01*
X4225000Y-6015573D01*
X4425000Y-6015573D01*
X4425000Y-7560000D01*
X5375000Y-7560000D01*
X5375000Y-6810000D01*
X5335316Y-6607077D01*
X5256806Y-6415795D01*
X5142487Y-6243505D01*
X4996752Y-6096828D01*
X4825202Y-5981401D01*
X4634430Y-5901659D01*
X4587278Y-5893285D01*
X4425000Y-6015573D01*
X4225000Y-6015573D01*
X4062722Y-5893285D01*
X4015570Y-5901659D01*
X3824798Y-5981401D01*
X3653248Y-6096828D01*
X3507513Y-6243505D01*
X3393194Y-6415795D01*
X3368939Y-6474890D01*
X3249813Y-6425547D01*
X3071105Y-6390000D01*
X2888895Y-6390000D01*
X2710187Y-6425547D01*
X2555000Y-6489827D01*
X2399813Y-6425547D01*
X2221105Y-6390000D01*
X2038895Y-6390000D01*
X1860187Y-6425547D01*
X1705000Y-6489827D01*
X1549813Y-6425547D01*
X1371105Y-6390000D01*
X1188895Y-6390000D01*
X1010187Y-6425547D01*
X855000Y-6489827D01*
X699813Y-6425547D01*
X521105Y-6390000D01*
X338895Y-6390000D01*
X160187Y-6425547D01*
X5000Y-6489827D01*
X-150187Y-6425547D01*
X-328895Y-6390000D01*
X-511105Y-6390000D01*
X-689813Y-6425547D01*
X-845000Y-6489827D01*
X-1000187Y-6425547D01*
X-1178895Y-6390000D01*
X-1361105Y-6390000D01*
X-1539813Y-6425547D01*
X-1695000Y-6489827D01*
X-1850187Y-6425547D01*
X-2028895Y-6390000D01*
X-2211105Y-6390000D01*
X-2389813Y-6425547D01*
X-2547500Y-6490863D01*
X-2705187Y-6425547D01*
X-2883895Y-6390000D01*
X-3066105Y-6390000D01*
X-3244813Y-6425547D01*
X-3368212Y-6476660D01*
X-3393194Y-6415795D01*
X-3507513Y-6243505D01*
X-3653248Y-6096828D01*
X-3824798Y-5981401D01*
X-4015570Y-5901659D01*
X-4062722Y-5893285D01*
X-4225000Y-6015573D01*
X-4225000Y-7560000D01*
X-4205000Y-7560000D01*
X-4205000Y-7760000D01*
X-4225000Y-7760000D01*
X-4225000Y-7780000D01*
X-4425000Y-7780000D01*
X-4425000Y-7760000D01*
X-4445000Y-7760000D01*
X-4445000Y-7560000D01*
X-4425000Y-7560000D01*
X-4425000Y-6015573D01*
X-4550000Y-5921377D01*
X-4550000Y-5668623D01*
X-4425000Y-5574427D01*
X-4425000Y-4380000D01*
X-4225000Y-4380000D01*
X-4225000Y-5574427D01*
X-4062722Y-5696715D01*
X-4015570Y-5688341D01*
X-3824798Y-5608599D01*
X-3653248Y-5493172D01*
X-3507513Y-5346495D01*
X-3393194Y-5174205D01*
X-3314684Y-4982923D01*
X-3275000Y-4780000D01*
X-3275000Y-4380000D01*
X3275000Y-4380000D01*
X3275000Y-4780000D01*
X3314684Y-4982923D01*
X3393194Y-5174205D01*
X3507513Y-5346495D01*
X3653248Y-5493172D01*
X3824798Y-5608599D01*
X4015570Y-5688341D01*
X4062722Y-5696715D01*
X4225000Y-5574427D01*
X4225000Y-4380000D01*
X4425000Y-4380000D01*
X4425000Y-5574427D01*
X4587278Y-5696715D01*
X4634430Y-5688341D01*
X4825202Y-5608599D01*
X4996752Y-5493172D01*
X5031738Y-5457959D01*
X13382824Y-5457959D01*
X13444125Y-6164443D01*
X13642077Y-6845392D01*
X13969072Y-7474640D01*
X14015786Y-7544551D01*
X14478473Y-7880105D01*
X14702630Y-7655948D01*
X14702631Y-7655948D01*
X16858579Y-5500000D01*
X17141421Y-5500000D01*
X19297369Y-7655948D01*
X19297370Y-7655948D01*
X19521527Y-7880105D01*
X19984214Y-7544551D01*
X20325746Y-6923074D01*
X20539470Y-6246909D01*
X20617176Y-5542041D01*
X20555875Y-4835557D01*
X20357923Y-4154608D01*
X20030928Y-3525360D01*
X19984214Y-3455449D01*
X19521527Y-3119895D01*
X19297370Y-3344052D01*
X19297369Y-3344052D01*
X17141421Y-5500000D01*
X16858579Y-5500000D01*
X14702631Y-3344052D01*
X14702630Y-3344052D01*
X14478473Y-3119895D01*
X14015786Y-3455449D01*
X13674254Y-4076926D01*
X13460530Y-4753091D01*
X13382824Y-5457959D01*
X5031738Y-5457959D01*
X5142487Y-5346495D01*
X5256806Y-5174205D01*
X5335316Y-4982923D01*
X5375000Y-4780000D01*
X5375000Y-4380000D01*
X4425000Y-4380000D01*
X4225000Y-4380000D01*
X3275000Y-4380000D01*
X-3275000Y-4380000D01*
X-4225000Y-4380000D01*
X-4425000Y-4380000D01*
X-4445000Y-4380000D01*
X-4445000Y-4180000D01*
X-4425000Y-4180000D01*
X-4425000Y-2985573D01*
X-4225000Y-2985573D01*
X-4225000Y-4180000D01*
X-3275000Y-4180000D01*
X-3275000Y-3780000D01*
X3275000Y-3780000D01*
X3275000Y-4180000D01*
X4225000Y-4180000D01*
X4225000Y-2985573D01*
X4425000Y-2985573D01*
X4425000Y-4180000D01*
X5375000Y-4180000D01*
X5375000Y-3780000D01*
X5335316Y-3577077D01*
X5256806Y-3385795D01*
X5142487Y-3213505D01*
X4996752Y-3066828D01*
X4865437Y-2978473D01*
X14619895Y-2978473D01*
X14844052Y-3202630D01*
X14844052Y-3202631D01*
X17000000Y-5358579D01*
X19155948Y-3202631D01*
X19155948Y-3202630D01*
X19380105Y-2978473D01*
X19044551Y-2515786D01*
X18423074Y-2174254D01*
X17746909Y-1960530D01*
X17042041Y-1882824D01*
X16335557Y-1944125D01*
X15654608Y-2142077D01*
X15025360Y-2469072D01*
X14955449Y-2515786D01*
X14619895Y-2978473D01*
X4865437Y-2978473D01*
X4825202Y-2951401D01*
X4634430Y-2871659D01*
X4587278Y-2863285D01*
X4425000Y-2985573D01*
X4225000Y-2985573D01*
X4062722Y-2863285D01*
X4015570Y-2871659D01*
X3824798Y-2951401D01*
X3653248Y-3066828D01*
X3507513Y-3213505D01*
X3393194Y-3385795D01*
X3314684Y-3577077D01*
X3275000Y-3780000D01*
X-3275000Y-3780000D01*
X-3314684Y-3577077D01*
X-3393194Y-3385795D01*
X-3507513Y-3213505D01*
X-3653248Y-3066828D01*
X-3824798Y-2951401D01*
X-4015570Y-2871659D01*
X-4062722Y-2863285D01*
X-4225000Y-2985573D01*
X-4425000Y-2985573D01*
X-4550000Y-2891377D01*
X-4550000Y-700000D01*
X16970351Y-700000D01*
X17808329Y-771104D01*
G04 #@! TA.AperFunction,Conductor*
D18*
G36*
X17808329Y-771104D02*
G01*
X18593539Y-974904D01*
X19333186Y-1308091D01*
X20006124Y-1761139D01*
X20593106Y-2321093D01*
X21077346Y-2971936D01*
X21445006Y-3695070D01*
X21685572Y-4469816D01*
X21792159Y-5274007D01*
X21761725Y-6084665D01*
X21595139Y-6878609D01*
X21297164Y-7633131D01*
X20876319Y-8326660D01*
X20344640Y-8939367D01*
X19717327Y-9453731D01*
X19012315Y-9855048D01*
X18249761Y-10131841D01*
X17438489Y-10278544D01*
X16983502Y-10300000D01*
X2291958Y-10300000D01*
X2307716Y-10220776D01*
X2307716Y-10023794D01*
X2269287Y-9830596D01*
X2193905Y-9648607D01*
X2138040Y-9565000D01*
X2216105Y-9565000D01*
X2394813Y-9529453D01*
X2550000Y-9465173D01*
X2705187Y-9529453D01*
X2883895Y-9565000D01*
X3066105Y-9565000D01*
X3244813Y-9529453D01*
X3413152Y-9459725D01*
X3564653Y-9358495D01*
X3681181Y-9241967D01*
X3824798Y-9338599D01*
X4015570Y-9418341D01*
X4062722Y-9426715D01*
X4225000Y-9304427D01*
X4225000Y-7760000D01*
X4425000Y-7760000D01*
X4425000Y-9304427D01*
X4587278Y-9426715D01*
X4634430Y-9418341D01*
X4825202Y-9338599D01*
X4996752Y-9223172D01*
X5142487Y-9076495D01*
X5256806Y-8904205D01*
X5335316Y-8712923D01*
X5375000Y-8510000D01*
X5375000Y-8021527D01*
X14619895Y-8021527D01*
X14955449Y-8484214D01*
X15576926Y-8825746D01*
X16253091Y-9039470D01*
X16957959Y-9117176D01*
X17664443Y-9055875D01*
X18345392Y-8857923D01*
X18974640Y-8530928D01*
X19044551Y-8484214D01*
X19380105Y-8021527D01*
X19155948Y-7797370D01*
X19155948Y-7797369D01*
X17000000Y-5641421D01*
X14844052Y-7797369D01*
X14844052Y-7797370D01*
X14619895Y-8021527D01*
X5375000Y-8021527D01*
X5375000Y-7760000D01*
X4425000Y-7760000D01*
X4225000Y-7760000D01*
X4205000Y-7760000D01*
X4205000Y-7560000D01*
X4225000Y-7560000D01*
X4225000Y-6015573D01*
X4425000Y-6015573D01*
X4425000Y-7560000D01*
X5375000Y-7560000D01*
X5375000Y-6810000D01*
X5335316Y-6607077D01*
X5256806Y-6415795D01*
X5142487Y-6243505D01*
X4996752Y-6096828D01*
X4825202Y-5981401D01*
X4634430Y-5901659D01*
X4587278Y-5893285D01*
X4425000Y-6015573D01*
X4225000Y-6015573D01*
X4062722Y-5893285D01*
X4015570Y-5901659D01*
X3824798Y-5981401D01*
X3653248Y-6096828D01*
X3507513Y-6243505D01*
X3393194Y-6415795D01*
X3368939Y-6474890D01*
X3249813Y-6425547D01*
X3071105Y-6390000D01*
X2888895Y-6390000D01*
X2710187Y-6425547D01*
X2555000Y-6489827D01*
X2399813Y-6425547D01*
X2221105Y-6390000D01*
X2038895Y-6390000D01*
X1860187Y-6425547D01*
X1705000Y-6489827D01*
X1549813Y-6425547D01*
X1371105Y-6390000D01*
X1188895Y-6390000D01*
X1010187Y-6425547D01*
X855000Y-6489827D01*
X699813Y-6425547D01*
X521105Y-6390000D01*
X338895Y-6390000D01*
X160187Y-6425547D01*
X5000Y-6489827D01*
X-150187Y-6425547D01*
X-328895Y-6390000D01*
X-511105Y-6390000D01*
X-689813Y-6425547D01*
X-845000Y-6489827D01*
X-1000187Y-6425547D01*
X-1178895Y-6390000D01*
X-1361105Y-6390000D01*
X-1539813Y-6425547D01*
X-1695000Y-6489827D01*
X-1850187Y-6425547D01*
X-2028895Y-6390000D01*
X-2211105Y-6390000D01*
X-2389813Y-6425547D01*
X-2547500Y-6490863D01*
X-2705187Y-6425547D01*
X-2883895Y-6390000D01*
X-3066105Y-6390000D01*
X-3244813Y-6425547D01*
X-3368212Y-6476660D01*
X-3393194Y-6415795D01*
X-3507513Y-6243505D01*
X-3653248Y-6096828D01*
X-3824798Y-5981401D01*
X-4015570Y-5901659D01*
X-4062722Y-5893285D01*
X-4225000Y-6015573D01*
X-4225000Y-7560000D01*
X-4205000Y-7560000D01*
X-4205000Y-7760000D01*
X-4225000Y-7760000D01*
X-4225000Y-7780000D01*
X-4425000Y-7780000D01*
X-4425000Y-7760000D01*
X-4445000Y-7760000D01*
X-4445000Y-7560000D01*
X-4425000Y-7560000D01*
X-4425000Y-6015573D01*
X-4550000Y-5921377D01*
X-4550000Y-5668623D01*
X-4425000Y-5574427D01*
X-4425000Y-4380000D01*
X-4225000Y-4380000D01*
X-4225000Y-5574427D01*
X-4062722Y-5696715D01*
X-4015570Y-5688341D01*
X-3824798Y-5608599D01*
X-3653248Y-5493172D01*
X-3507513Y-5346495D01*
X-3393194Y-5174205D01*
X-3314684Y-4982923D01*
X-3275000Y-4780000D01*
X-3275000Y-4380000D01*
X3275000Y-4380000D01*
X3275000Y-4780000D01*
X3314684Y-4982923D01*
X3393194Y-5174205D01*
X3507513Y-5346495D01*
X3653248Y-5493172D01*
X3824798Y-5608599D01*
X4015570Y-5688341D01*
X4062722Y-5696715D01*
X4225000Y-5574427D01*
X4225000Y-4380000D01*
X4425000Y-4380000D01*
X4425000Y-5574427D01*
X4587278Y-5696715D01*
X4634430Y-5688341D01*
X4825202Y-5608599D01*
X4996752Y-5493172D01*
X5031738Y-5457959D01*
X13382824Y-5457959D01*
X13444125Y-6164443D01*
X13642077Y-6845392D01*
X13969072Y-7474640D01*
X14015786Y-7544551D01*
X14478473Y-7880105D01*
X14702630Y-7655948D01*
X14702631Y-7655948D01*
X16858579Y-5500000D01*
X17141421Y-5500000D01*
X19297369Y-7655948D01*
X19297370Y-7655948D01*
X19521527Y-7880105D01*
X19984214Y-7544551D01*
X20325746Y-6923074D01*
X20539470Y-6246909D01*
X20617176Y-5542041D01*
X20555875Y-4835557D01*
X20357923Y-4154608D01*
X20030928Y-3525360D01*
X19984214Y-3455449D01*
X19521527Y-3119895D01*
X19297370Y-3344052D01*
X19297369Y-3344052D01*
X17141421Y-5500000D01*
X16858579Y-5500000D01*
X14702631Y-3344052D01*
X14702630Y-3344052D01*
X14478473Y-3119895D01*
X14015786Y-3455449D01*
X13674254Y-4076926D01*
X13460530Y-4753091D01*
X13382824Y-5457959D01*
X5031738Y-5457959D01*
X5142487Y-5346495D01*
X5256806Y-5174205D01*
X5335316Y-4982923D01*
X5375000Y-4780000D01*
X5375000Y-4380000D01*
X4425000Y-4380000D01*
X4225000Y-4380000D01*
X3275000Y-4380000D01*
X-3275000Y-4380000D01*
X-4225000Y-4380000D01*
X-4425000Y-4380000D01*
X-4445000Y-4380000D01*
X-4445000Y-4180000D01*
X-4425000Y-4180000D01*
X-4425000Y-2985573D01*
X-4225000Y-2985573D01*
X-4225000Y-4180000D01*
X-3275000Y-4180000D01*
X-3275000Y-3780000D01*
X3275000Y-3780000D01*
X3275000Y-4180000D01*
X4225000Y-4180000D01*
X4225000Y-2985573D01*
X4425000Y-2985573D01*
X4425000Y-4180000D01*
X5375000Y-4180000D01*
X5375000Y-3780000D01*
X5335316Y-3577077D01*
X5256806Y-3385795D01*
X5142487Y-3213505D01*
X4996752Y-3066828D01*
X4865437Y-2978473D01*
X14619895Y-2978473D01*
X14844052Y-3202630D01*
X14844052Y-3202631D01*
X17000000Y-5358579D01*
X19155948Y-3202631D01*
X19155948Y-3202630D01*
X19380105Y-2978473D01*
X19044551Y-2515786D01*
X18423074Y-2174254D01*
X17746909Y-1960530D01*
X17042041Y-1882824D01*
X16335557Y-1944125D01*
X15654608Y-2142077D01*
X15025360Y-2469072D01*
X14955449Y-2515786D01*
X14619895Y-2978473D01*
X4865437Y-2978473D01*
X4825202Y-2951401D01*
X4634430Y-2871659D01*
X4587278Y-2863285D01*
X4425000Y-2985573D01*
X4225000Y-2985573D01*
X4062722Y-2863285D01*
X4015570Y-2871659D01*
X3824798Y-2951401D01*
X3653248Y-3066828D01*
X3507513Y-3213505D01*
X3393194Y-3385795D01*
X3314684Y-3577077D01*
X3275000Y-3780000D01*
X-3275000Y-3780000D01*
X-3314684Y-3577077D01*
X-3393194Y-3385795D01*
X-3507513Y-3213505D01*
X-3653248Y-3066828D01*
X-3824798Y-2951401D01*
X-4015570Y-2871659D01*
X-4062722Y-2863285D01*
X-4225000Y-2985573D01*
X-4425000Y-2985573D01*
X-4550000Y-2891377D01*
X-4550000Y-700000D01*
X16970351Y-700000D01*
X17808329Y-771104D01*
G37*
G04 #@! TD.AperFunction*
D16*
X-5450000Y-8979000D02*
X-6653629Y-8979000D01*
X-7390164Y-8242466D01*
X-7420429Y-8090311D01*
X-7495811Y-7908322D01*
X-7605249Y-7744537D01*
X-7744537Y-7605249D01*
X-7908322Y-7495811D01*
X-8090311Y-7420429D01*
X-8283509Y-7382000D01*
X-8480491Y-7382000D01*
X-8673689Y-7420429D01*
X-8855678Y-7495811D01*
X-9019463Y-7605249D01*
X-9158751Y-7744537D01*
X-9268189Y-7908322D01*
X-9343571Y-8090311D01*
X-9382000Y-8283509D01*
X-9382000Y-8480491D01*
X-9343571Y-8673689D01*
X-9268189Y-8855678D01*
X-9158751Y-9019463D01*
X-9019463Y-9158751D01*
X-8855678Y-9268189D01*
X-8673689Y-9343571D01*
X-8521534Y-9373836D01*
X-7595371Y-10300000D01*
X-20970351Y-10300000D01*
X-21808329Y-10228896D01*
X-22593534Y-10025098D01*
X-23333185Y-9691910D01*
X-24006121Y-9238863D01*
X-24593100Y-8678913D01*
X-25077347Y-8028064D01*
X-25445006Y-7304930D01*
X-25685570Y-6530190D01*
X-25792159Y-5725994D01*
X-25770364Y-5145431D01*
X-24600000Y-5145431D01*
X-24600000Y-5854569D01*
X-24461654Y-6550081D01*
X-24190279Y-7205240D01*
X-23796303Y-7794866D01*
X-23294866Y-8296303D01*
X-22705240Y-8690279D01*
X-22050081Y-8961654D01*
X-21354569Y-9100000D01*
X-20645431Y-9100000D01*
X-19949919Y-8961654D01*
X-19294760Y-8690279D01*
X-18705134Y-8296303D01*
X-18203697Y-7794866D01*
X-17809721Y-7205240D01*
X-17538346Y-6550081D01*
X-17400000Y-5854569D01*
X-17400000Y-5145431D01*
X-17538346Y-4449919D01*
X-17809721Y-3794760D01*
X-18203697Y-3205134D01*
X-18705134Y-2703697D01*
X-19294760Y-2309721D01*
X-19949919Y-2038346D01*
X-20645431Y-1900000D01*
X-21354569Y-1900000D01*
X-22050081Y-2038346D01*
X-22705240Y-2309721D01*
X-23294866Y-2703697D01*
X-23796303Y-3205134D01*
X-24190279Y-3794760D01*
X-24461654Y-4449919D01*
X-24600000Y-5145431D01*
X-25770364Y-5145431D01*
X-25761725Y-4915335D01*
X-25595139Y-4121391D01*
X-25297164Y-3366869D01*
X-24876318Y-2673338D01*
X-24344640Y-2060633D01*
X-23717327Y-1546269D01*
X-23012317Y-1144953D01*
X-22249767Y-868160D01*
X-21438489Y-721456D01*
X-20983502Y-700000D01*
X-5450000Y-700000D01*
X-5450000Y-8979000D01*
G04 #@! TA.AperFunction,Conductor*
D18*
G36*
X-5450000Y-8979000D02*
G01*
X-6653629Y-8979000D01*
X-7390164Y-8242466D01*
X-7420429Y-8090311D01*
X-7495811Y-7908322D01*
X-7605249Y-7744537D01*
X-7744537Y-7605249D01*
X-7908322Y-7495811D01*
X-8090311Y-7420429D01*
X-8283509Y-7382000D01*
X-8480491Y-7382000D01*
X-8673689Y-7420429D01*
X-8855678Y-7495811D01*
X-9019463Y-7605249D01*
X-9158751Y-7744537D01*
X-9268189Y-7908322D01*
X-9343571Y-8090311D01*
X-9382000Y-8283509D01*
X-9382000Y-8480491D01*
X-9343571Y-8673689D01*
X-9268189Y-8855678D01*
X-9158751Y-9019463D01*
X-9019463Y-9158751D01*
X-8855678Y-9268189D01*
X-8673689Y-9343571D01*
X-8521534Y-9373836D01*
X-7595371Y-10300000D01*
X-20970351Y-10300000D01*
X-21808329Y-10228896D01*
X-22593534Y-10025098D01*
X-23333185Y-9691910D01*
X-24006121Y-9238863D01*
X-24593100Y-8678913D01*
X-25077347Y-8028064D01*
X-25445006Y-7304930D01*
X-25685570Y-6530190D01*
X-25792159Y-5725994D01*
X-25770364Y-5145431D01*
X-24600000Y-5145431D01*
X-24600000Y-5854569D01*
X-24461654Y-6550081D01*
X-24190279Y-7205240D01*
X-23796303Y-7794866D01*
X-23294866Y-8296303D01*
X-22705240Y-8690279D01*
X-22050081Y-8961654D01*
X-21354569Y-9100000D01*
X-20645431Y-9100000D01*
X-19949919Y-8961654D01*
X-19294760Y-8690279D01*
X-18705134Y-8296303D01*
X-18203697Y-7794866D01*
X-17809721Y-7205240D01*
X-17538346Y-6550081D01*
X-17400000Y-5854569D01*
X-17400000Y-5145431D01*
X-17538346Y-4449919D01*
X-17809721Y-3794760D01*
X-18203697Y-3205134D01*
X-18705134Y-2703697D01*
X-19294760Y-2309721D01*
X-19949919Y-2038346D01*
X-20645431Y-1900000D01*
X-21354569Y-1900000D01*
X-22050081Y-2038346D01*
X-22705240Y-2309721D01*
X-23294866Y-2703697D01*
X-23796303Y-3205134D01*
X-24190279Y-3794760D01*
X-24461654Y-4449919D01*
X-24600000Y-5145431D01*
X-25770364Y-5145431D01*
X-25761725Y-4915335D01*
X-25595139Y-4121391D01*
X-25297164Y-3366869D01*
X-24876318Y-2673338D01*
X-24344640Y-2060633D01*
X-23717327Y-1546269D01*
X-23012317Y-1144953D01*
X-22249767Y-868160D01*
X-21438489Y-721456D01*
X-20983502Y-700000D01*
X-5450000Y-700000D01*
X-5450000Y-8979000D01*
G37*
G04 #@! TD.AperFunction*
M02*
